<svg xmlns="http://www.w3.org/2000/svg" width="226.285" height="69.865"><g data-name="Raggruppa 3039"><path data-name="Unione 8" d="M37.864 69.365c-.189-1.281.628-2.234 1.119-3.276 1.422-3.024 2.858-6.042 4.382-9.014 1.132-2.209 2.618-2.371 4.128-.4 1.749 2.278 3.327 4.686 5 7.023.507.707.109.933-.467 1.247a32.78 32.78 0 01-11.731 3.946c-.626.077-1.333-.017-1.866.477zm-7.119 0c-1.2-.57-2.536-.5-3.793-.82A34.013 34.013 0 016.789 54.786c-.186-.268-.348-.554-.611-.976a19.067 19.067 0 014.517-.524c8.548-.649 17.1-1.206 25.655-1.792a8.433 8.433 0 01.854-.008c2.138.081 3.107 1.515 2.226 3.446-1.446 3.176-2.979 6.311-4.477 9.464q-.849 1.787-1.706 3.574a2.8 2.8 0 01-1.077 1.4zm25.353-8.092c-1.64-2.366-3.373-4.669-4.955-7.07-1.275-1.938-.319-3.671 2.017-3.846 2.357-.176 4.717-.327 7.076-.489v.016c1.65-.112 3.3-.227 4.953-.331.838-.052 1.142.206.7 1.065a35.485 35.485 0 01-8.568 10.8 1.023 1.023 0 01-.615.313c-.206 0-.394-.148-.606-.458zm91.055-1.961a2.485 2.485 0 01-2.079-2.853 27.96 27.96 0 00.116-4.663q.045-6.238 0-12.476c-.037-5 2.3-8.75 6.713-10.722a11.921 11.921 0 0114.309 3.094c4.711 5.534 3.269 14.57-2.568 18.168-4.275 2.637-8.895 2.325-13.11-1.261-.279-.236-.552-.48-1.06-.924 0 3.288.006 6.264 0 9.238a2.229 2.229 0 01-2.115 2.407q-.101.002-.206-.013zm8.67-27.824c-3 .22-6.125 2.84-6.41 7.717-.241 4.1 3.334 8.807 7.671 8.207 4.808.3 7.807-3.69 7.669-7.927-.126-3.891-1.912-8.037-7.894-8.037-.332.001-.676.013-1.036.04zm-28 27.643a2.068 2.068 0 01-1.1-3.114c.894-2.018 1.706-4.075 2.579-6.1a1.03 1.03 0 00-.081-1.036q-2.728-5.019-5.39-10.072c-1.364-2.579-2.744-5.152-4.03-7.768-.931-1.89-.554-2.78 1.115-3.327a1.863 1.863 0 012.421 1.151c1.2 2.547 2.464 5.072 3.756 7.561a84.946 84.946 0 004.338 8.261c1.6-3.132 2.846-6.364 4.169-9.567.843-2.04 1.692-4.077 2.609-6.082.646-1.414 1.469-1.694 2.854-1.135 1.323.533 1.618 1.137.98 2.717-1.673 4.138-3.41 8.251-5.154 12.36-1.565 3.687-3.171 7.357-4.761 11.034-.555 1.284-1.094 2.576-1.679 3.843a2.385 2.385 0 01-2.029 1.4 1.374 1.374 0 01-.599-.126zm79.59-9.2c-4.153-2.518-5.76-6.441-5.517-11.1.431-8.25 7.807-13.072 15.778-10.757 4.184 1.215 6.575 4.308 7.8 8.369.079.265.03.573.311.753v13.052c-.187.143-.379.279-.562.425-1.74 1.392-3.6.692-3.976-1.5-.052-.314-.042-.638-.071-1.14a14.619 14.619 0 01-5.173 3 10.634 10.634 0 01-3.188.509 10.287 10.287 0 01-5.404-1.613zm6.6-18.518a7.9 7.9 0 00-7.857 8.14c-.018 4.528 3.534 8.205 7.8 7.864 4.8.2 7.46-3.736 7.563-7.8.118-4.683-3.729-8.206-7.438-8.207zm-125.1 18.033a4.895 4.895 0 01-.069-.985V22.499c0-2.065.942-2.878 2.869-2.638a1.729 1.729 0 011.679 2.015c-.018 2.978.031 5.958-.021 8.937-.018.988.289 1.307 1.292 1.3 4.744-.045 9.49-.055 14.235.005 1.139.014 1.319-.434 1.31-1.424-.041-4.964-.014-9.93-.022-14.9a2.977 2.977 0 01.854-2.444 2.123 2.123 0 013.459.842 4.907 4.907 0 01.241 1.81q-.005 8.086 0 16.172c0 5.439.011 10.877-.01 16.316 0 1.029-.111 2.093-1.234 2.591a2.185 2.185 0 01-3.3-2.126c-.029-3.738-.059-7.475.017-11.208.027-1.307-.376-1.733-1.7-1.71-2.791.046-5.583.039-8.373.032-1.432 0-2.865-.008-4.3 0-2.364 0-2.457.111-2.457 2.444 0 3.5-.021 7 .011 10.5a2.092 2.092 0 01-1.772 2.343 2.042 2.042 0 01-.394.039 2.473 2.473 0 01-2.32-1.952zm87.731 1.93a2.678 2.678 0 01-2.668-2.994q-.011-6.308 0-12.616c0-4.3-.024-8.6.01-12.9.019-2.292 1.575-3.6 3.47-3.115 1.357.352 1.6 1.363 1.623 2.484.045 2.124.032 4.251 0 6.378-.012.92.032 1.375 1.108.679a11.13 11.13 0 0111.578-.479 8.043 8.043 0 014.426 5.7c1.033 4.767.395 9.587.527 14.381a2.179 2.179 0 01-2.262 2.473c-1.523-.1-2.264-.957-2.265-2.626 0-3.5.042-6.993-.015-10.489-.052-3.177-1.194-5.732-4.576-6.588-3.9-.986-8.9.949-8.558 5.954.243 3.574.052 7.177.045 10.769 0 1.892-.9 2.985-2.417 2.985zM3.162 48.295a33.1 33.1 0 01-2.654-13.23 33.721 33.721 0 0111.41-25.474c1.353-1.229 1.41-1.253 2.437.163 2.471 3.408 4.9 6.846 7.329 10.282a3.665 3.665 0 01.112 4.012q-1.861 3.82-3.618 7.69a1.966 1.966 0 00.795 2.813 2.154 2.154 0 002.967-.8 11.4 11.4 0 00.873-1.614c.355-.72.649-1.471 1.031-2.173 1.3-2.4 3.007-2.549 4.566-.366q4.869 6.814 9.658 13.678c1.418 2.032.588 3.767-1.876 3.911-10.549.612-21.066 1.7-31.626 2.172H4.46c-.84-.004-1.06-.471-1.303-1.066zm47.086-5.8q5.532-11.714 11.134-23.4a2.209 2.209 0 012.093-1.424 2.251 2.251 0 012.142 1.356 33.3 33.3 0 013.819 12.8 32.975 32.975 0 01-.252 8.462c-.183 1.091-.513 2.148-.688 3.25-.185 1.172-1.2 1.594-2.345 1.662q-6.727.408-13.452.836c-.085 0-.17.006-.252.006-2.211.001-3.183-1.476-2.204-3.549zm-8.856-2.046c-4.052-5.705-8.065-11.436-12.1-17.154a3.859 3.859 0 01-.862-2.346 3.473 3.473 0 01.4-1.632q4.106-8.547 8.187-17.107a1.85 1.85 0 012.247-1.3 34.927 34.927 0 0120.215 9.77 1.257 1.257 0 01.271 1.717c-4.375 9.2-8.711 18.422-13.1 27.617-.72 1.508-1.635 2.266-2.606 2.266a3.546 3.546 0 01-2.658-1.832zM22.974 14.208c-2.014-2.557-3.845-5.258-5.734-7.913-.531-.749.254-.869.635-1.091a32.585 32.585 0 0110.724-3.935c1.387-.244 2.789-.4 4.479-.641-2.212 4.58-4.241 8.933-6.421 13.21a2.185 2.185 0 01-1.937 1.274 2.224 2.224 0 01-1.751-.905z" fill="#fff" stroke="rgba(0,0,0,0)"/></g></svg>