<svg xmlns="http://www.w3.org/2000/svg" width="195.242" height="60.393" viewBox="0 0 195.242 60.393">
  <g id="Raggruppa_3676" data-name="Raggruppa 3676" transform="translate(0.5 0.627)">
    <path id="Unione_8" data-name="Unione 8" d="M32.216,59.266c-.163-1.1.541-1.926.965-2.824,1.226-2.607,2.464-5.209,3.778-7.772.976-1.9,2.258-2.044,3.559-.348,1.508,1.964,2.869,4.04,4.314,6.055.437.61.094.8-.4,1.075a28.265,28.265,0,0,1-10.115,3.4c-.539.066-1.149-.015-1.609.411Zm-6.138,0a17.132,17.132,0,0,0-3.27-.707A29.326,29.326,0,0,1,5.422,46.7c-.16-.231-.3-.478-.527-.841A16.442,16.442,0,0,1,8.79,45.4c7.371-.56,14.746-1.04,22.12-1.545a7.242,7.242,0,0,1,.736-.007c1.844.07,2.679,1.306,1.919,2.971C32.318,49.56,31,52.263,29.7,54.982c-.488,1.027-.976,2.056-1.471,3.081a2.414,2.414,0,0,1-.929,1.2Zm21.86-6.977c-1.414-2.04-2.908-4.025-4.272-6.1-1.1-1.671-.275-3.165,1.739-3.316,2.033-.151,4.067-.282,6.1-.422v.014c1.423-.1,2.847-.2,4.271-.285.722-.045.985.177.605.918a30.594,30.594,0,0,1-7.387,9.312.881.881,0,0,1-.53.27C48.283,52.684,48.122,52.556,47.937,52.289ZM126.445,50.6a2.143,2.143,0,0,1-1.793-2.459,24.089,24.089,0,0,0,.1-4.02q.039-5.379,0-10.757a9.412,9.412,0,0,1,5.788-9.244,10.279,10.279,0,0,1,12.338,2.668c4.062,4.772,2.818,12.562-2.214,15.665-3.686,2.273-7.669,2-11.3-1.087-.241-.2-.476-.414-.914-.8,0,2.835.005,5.4,0,7.965a1.922,1.922,0,0,1-1.823,2.076Q126.536,50.607,126.445,50.6Zm7.476-23.99c-2.591.19-5.281,2.449-5.527,6.654-.207,3.535,2.875,7.593,6.614,7.076,4.145.257,6.731-3.182,6.612-6.834-.109-3.355-1.648-6.929-6.806-6.929C134.528,26.575,134.231,26.586,133.921,26.608ZM109.777,50.442a1.784,1.784,0,0,1-.952-2.685c.771-1.74,1.471-3.514,2.223-5.263a.888.888,0,0,0-.07-.893q-2.352-4.327-4.647-8.684c-1.176-2.224-2.366-4.442-3.475-6.7-.8-1.63-.478-2.4.962-2.868a1.606,1.606,0,0,1,2.087.992c1.034,2.2,2.125,4.373,3.239,6.519a73.248,73.248,0,0,0,3.74,7.122c1.377-2.7,2.454-5.487,3.595-8.249.727-1.759,1.459-3.515,2.249-5.244a1.627,1.627,0,0,1,2.461-.978c1.141.459,1.4.98.845,2.342-1.443,3.568-2.94,7.114-4.443,10.657-1.349,3.179-2.735,6.343-4.1,9.514-.479,1.107-.943,2.221-1.448,3.314a2.056,2.056,0,0,1-1.749,1.211A1.186,1.186,0,0,1,109.777,50.442ZM178.4,42.508c-3.581-2.171-4.967-5.553-4.757-9.573.372-7.113,6.731-11.271,13.6-9.275,3.608,1.047,5.669,3.714,6.727,7.215.068.229.026.494.268.649V42.779c-.161.123-.327.241-.484.366-1.5,1.2-3.107.6-3.428-1.295-.045-.271-.036-.55-.061-.983a12.6,12.6,0,0,1-4.46,2.586,9.17,9.17,0,0,1-2.748.439A8.869,8.869,0,0,1,178.4,42.508Zm5.686-15.966a6.808,6.808,0,0,0-6.775,7.018c-.016,3.9,3.047,7.074,6.723,6.78,4.136.169,6.432-3.221,6.521-6.723a6.846,6.846,0,0,0-6.413-7.076ZM76.226,42.09a4.207,4.207,0,0,1-.059-.85q0-11.192,0-22.385c0-1.781.812-2.482,2.473-2.274a1.49,1.49,0,0,1,1.448,1.737c-.016,2.567.027,5.137-.019,7.705-.016.852.249,1.127,1.114,1.119,4.09-.039,8.182-.047,12.273,0,.982.012,1.137-.374,1.13-1.228-.035-4.28-.012-8.562-.019-12.843a2.567,2.567,0,0,1,.737-2.108,1.83,1.83,0,0,1,2.983.726,4.236,4.236,0,0,1,.207,1.561q0,6.972,0,13.944c0,4.689.009,9.378-.008,14.068,0,.887-.1,1.8-1.064,2.234a1.884,1.884,0,0,1-2.843-1.833c-.025-3.223-.051-6.445.015-9.664.023-1.127-.324-1.494-1.464-1.475-2.406.039-4.813.033-7.219.028-1.235,0-2.47-.007-3.7,0-2.038,0-2.118.1-2.118,2.108,0,3.017-.018,6.036.009,9.052a1.8,1.8,0,0,1-1.528,2.02,1.775,1.775,0,0,1-.34.033A2.132,2.132,0,0,1,76.226,42.09Zm75.642,1.664a2.309,2.309,0,0,1-2.3-2.582q-.01-5.439,0-10.877c0-3.708-.021-7.415.008-11.122.017-1.976,1.358-3.108,2.992-2.685,1.17.3,1.378,1.175,1.4,2.141.039,1.831.028,3.666,0,5.5-.01.793.027,1.185.955.586a9.6,9.6,0,0,1,9.982-.413,6.934,6.934,0,0,1,3.816,4.917c.891,4.11.34,8.266.455,12.4a1.878,1.878,0,0,1-1.95,2.132c-1.313-.09-1.952-.825-1.953-2.264,0-3.014.036-6.03-.013-9.044-.045-2.739-1.029-4.942-3.945-5.68-3.362-.85-7.67.818-7.379,5.133.21,3.081.045,6.188.039,9.285,0,1.631-.778,2.574-2.084,2.574ZM2.291,41.1A28.538,28.538,0,0,1,0,29.691,29.074,29.074,0,0,1,9.841,7.727c1.167-1.06,1.216-1.081,2.1.14,2.131,2.938,4.224,5.9,6.319,8.865a3.16,3.16,0,0,1,.1,3.459q-1.6,3.294-3.12,6.631a1.7,1.7,0,0,0,.685,2.425,1.857,1.857,0,0,0,2.558-.693,9.855,9.855,0,0,0,.753-1.392c.306-.621.56-1.268.889-1.874,1.119-2.066,2.592-2.2,3.937-.315q4.2,5.875,8.327,11.793c1.223,1.752.507,3.248-1.617,3.372-9.1.527-18.164,1.47-27.268,1.873l-.092,0C2.69,42.014,2.5,41.611,2.291,41.1Zm40.6-5q4.77-10.1,9.6-20.175a1.906,1.906,0,0,1,1.8-1.228,1.941,1.941,0,0,1,1.847,1.17A29.571,29.571,0,0,1,59.215,34.2c-.158.941-.443,1.852-.593,2.8-.16,1.011-1.033,1.374-2.022,1.433q-5.8.352-11.6.721c-.074,0-.146.005-.217.005C42.883,39.159,42.045,37.885,42.889,36.1Zm-7.636-1.764c-3.493-4.919-6.954-9.86-10.432-14.79a3.329,3.329,0,0,1-.743-2.022,2.994,2.994,0,0,1,.347-1.407q3.54-7.369,7.059-14.75A1.6,1.6,0,0,1,33.42.24,30.116,30.116,0,0,1,50.849,8.664a1.084,1.084,0,0,1,.233,1.48c-3.772,7.934-7.51,15.883-11.294,23.812-.621,1.3-1.409,1.953-2.247,1.953A3.058,3.058,0,0,1,35.253,34.334ZM19.373,11.709c-1.737-2.2-3.316-4.534-4.944-6.823-.458-.645.219-.749.548-.941A28.091,28.091,0,0,1,24.223.553c1.2-.21,2.4-.346,3.861-.553-1.907,3.949-3.657,7.7-5.536,11.39a1.883,1.883,0,0,1-1.67,1.1A1.918,1.918,0,0,1,19.373,11.709Z" transform="translate(0)" fill="#fff" stroke="rgba(0,0,0,0)" stroke-width="1"/>
  </g>
</svg>
