<svg id="Raggruppa_3671" data-name="Raggruppa 3671" xmlns="http://www.w3.org/2000/svg" xmlns:xlink="http://www.w3.org/1999/xlink" width="194.242" height="73.176" viewBox="0 0 194.242 73.176">
  <defs>
    <clipPath id="clip-path">
      <rect id="Rettangolo_44" data-name="Rettangolo 44" width="74.209" height="73.176" fill="#fff"/>
    </clipPath>
  </defs>
  <g id="Raggruppa_3013" data-name="Raggruppa 3013" transform="translate(0 0)">
    <g id="Raggruppa_3012" data-name="Raggruppa 3012" clip-path="url(#clip-path)">
      <path id="Tracciato_771" data-name="Tracciato 771" d="M30.186,70.453l-8.226,1.793c-1.364.3-2.733.573-4.09.9a.5.5,0,0,1-.675-.31,70.292,70.292,0,0,1-5.232-12.682A103.852,103.852,0,0,1,8.5,45.076c-.475-3.114-.905-6.238-1.235-9.37-.3-2.812-.5-5.638-.611-8.463C6.509,23.473,6.5,19.7,6.445,15.923c0-.366-.125-.494-.465-.587A7.615,7.615,0,0,1,.136,9.085,7.791,7.791,0,1,1,15.544,6.791,7.481,7.481,0,0,1,12.621,13.9a.845.845,0,0,0-.363.775,99.864,99.864,0,0,0,.861,10.052,107.8,107.8,0,0,0,5.195,21.151A118.6,118.6,0,0,0,29.243,68.957c.3.48.6.955.943,1.5" transform="translate(0 0)" fill="#fff"/>
      <path id="Tracciato_772" data-name="Tracciato 772" d="M297.79,410.038l-2.6-5.718c.162-.054.292-.1.425-.14a22.361,22.361,0,0,0,11.241-7.209,1.028,1.028,0,0,1,.475-.3,63.006,63.006,0,0,1,12-2.255,77.759,77.759,0,0,1,12.041-.259c2.514.15,5.02.446,7.528.681a4.811,4.811,0,0,1,.514.114c-.111.62-.207,1.238-.333,1.849a19.518,19.518,0,0,1-1.492,4.473.537.537,0,0,1-.644.342,57.128,57.128,0,0,0-10.185-.1,69.187,69.187,0,0,0-13.141,2.28,73.03,73.03,0,0,0-15.657,6.163c-.042.023-.087.038-.181.078" transform="translate(-266.364 -355.552)" fill="#fff"/>
      <path id="Tracciato_773" data-name="Tracciato 773" d="M259.862,30.778c-2.082-.594-4.095-1.239-6.143-1.738a57.846,57.846,0,0,0-16.316-1.5,75.694,75.694,0,0,0-23.246,4.811c-1.154.431-2.287.919-3.518,1.416a17.27,17.27,0,0,1-.393-1.8c-.172-1.518-.287-3.042-.433-4.562a.464.464,0,0,1,.337-.544A63.937,63.937,0,0,1,223.905,22.8a66.06,66.06,0,0,1,12.62-1.1c3.118.042,6.239.26,9.348.525a56.408,56.408,0,0,1,10.152,1.86,1.585,1.585,0,0,1,.775.512,18.5,18.5,0,0,1,3.062,6.184" transform="translate(-189.318 -19.573)" fill="#fff"/>
      <path id="Tracciato_774" data-name="Tracciato 774" d="M486,274.915c-9.7-2.484-19.427-2.06-29.229-.744a13.515,13.515,0,0,0,.487-7.313c1.057-.142,2.078-.3,3.1-.414a76.332,76.332,0,0,1,11.054-.483,57.233,57.233,0,0,1,13.911,1.981.909.909,0,0,1,.773.871,16.26,16.26,0,0,1,.053,5.528c-.037.186-.1.368-.152.574" transform="translate(-412.161 -239.953)" fill="#fff"/>
      <path id="Tracciato_775" data-name="Tracciato 775" d="M454.583,152.706c-9.693-3.777-19.612-3.72-29.679-1.733a13.982,13.982,0,0,0-2.854-6.733c.649-.125,1.226-.25,1.807-.345a65.763,65.763,0,0,1,12.927-.876,55.574,55.574,0,0,1,15.622,2.61,1.35,1.35,0,0,1,.824.682,11.592,11.592,0,0,1,1.353,6.394" transform="translate(-380.831 -129.018)" fill="#fff"/>
      <path id="Tracciato_776" data-name="Tracciato 776" d="M237.291,240.793c.762-.149,1.47-.314,2.186-.421a10.478,10.478,0,0,1,4.726.3,5.691,5.691,0,0,1,3.8,7.984,12.272,12.272,0,0,1-4.2,5.089c-.475.363-.979.688-1.529,1.072l-4.981-14.022" transform="translate(-214.116 -216.771)" fill="#fff"/>
    </g>
  </g>
  <text id="PRXy" transform="translate(103.242 41.464)" fill="#fff" font-size="23" font-family="HurmeGeometricSans4-Black,sans-serif, 'Hurme Geometric Sans \34 '" font-weight="800" letter-spacing="0.42em"><tspan x="0" y="0">PRXY</tspan></text>
</svg>
