<svg xmlns="http://www.w3.org/2000/svg" width="91" height="82.359"><defs><linearGradient id="prefix__a" x2="1" y2="1" gradientUnits="objectBoundingBox"><stop offset="0" stop-color="#32e4b6"/><stop offset="1" stop-color="#086eb1"/></linearGradient></defs><path data-name="Unione 6" d="M-2845 81.359h-88a.974.974 0 01-1-.947V67.159a.974.974 0 011-.947h15.5V26.565a.934.934 0 01.007-.112H-2934a.993.993 0 01-.962-.689.924.924 0 01.439-1.064l44-25.56a1.048 1.048 0 011.046 0l44 25.56a.924.924 0 01.439 1.064.993.993 0 01-.962.689h-16.508a.934.934 0 01.007.112v39.648h17.5a.974.974 0 011 .947v13.252a.974.974 0 01-.999.947zm-87-1.893h86v-11.36h-86zm43-13.253h24.5V26.565a.934.934 0 01.007-.112h-24.513a.934.934 0 01.007.112zm-26.5 0h24.5V26.565a.934.934 0 01.007-.112h-24.513a.934.934 0 01.007.112zm-14.959-41.653h80.917L-2890 1.057z" transform="translate(2935 1)" fill="url(#prefix__a)"/></svg>