<svg xmlns="http://www.w3.org/2000/svg" width="44.073" height="38.568" viewBox="0 0 44.073 38.568">
  <path id="cubes" d="M33.055,47.739V38.046a3.1,3.1,0,0,0-2.014-2.9l-7.919-2.97a3.062,3.062,0,0,0-2.178,0l-7.919,2.97a3.1,3.1,0,0,0-2.014,2.9v9.693l-9,3.383A3.09,3.09,0,0,0,0,54.022V63.2A3.1,3.1,0,0,0,1.713,65.97L10.2,70.214a3.081,3.081,0,0,0,2.772,0l9.064-4.528L31.1,70.214a3.081,3.081,0,0,0,2.772,0L42.36,65.97A3.1,3.1,0,0,0,44.073,63.2V54.022a3.1,3.1,0,0,0-2.014-2.9Zm-9.985,3V42.307l7.919-2.729v8.4Zm-9.985-13.4,8.952-3.357,8.952,3.357v.017L22.037,40.5,13.084,37.34Zm0,2.247L21,42.307v8.427L13.084,47.98ZM10.5,67.933,2.169,63.767V55.735L10.5,59.118ZM2.169,53.394v-.017l9.417-3.529,9.305,3.486v.1l-9.305,3.779L2.169,53.394Zm10.5,5.724,8.221-3.34v8.049l-8.221,4.115ZM31.4,67.933l-8.221-4.106v-8.04l8.221,3.34Zm10.5-4.166-8.333,4.166V59.118L41.9,55.735Zm0-10.373-9.417,3.822-9.305-3.779v-.1l9.305-3.486L41.9,53.377Z" transform="translate(0 -31.975)" fill="#30e6fc"/>
</svg>
