<svg xmlns="http://www.w3.org/2000/svg" xmlns:xlink="http://www.w3.org/1999/xlink" width="34.316" height="61" viewBox="0 0 34.316 61">
  <defs>
    <linearGradient id="linear-gradient" x1="-0.047" x2="0.777" y2="0.906" gradientUnits="objectBoundingBox">
      <stop offset="0" stop-color="#30e6fc"/>
      <stop offset="1" stop-color="#290266"/>
    </linearGradient>
  </defs>
  <path id="dollar-sign" d="M25.233,28.844,11.377,24.888A5.065,5.065,0,0,1,7.672,20.9,4.891,4.891,0,0,1,12.5,15.25H21.29a9.209,9.209,0,0,1,5.29,1.68,1.9,1.9,0,0,0,2.442-.2L31.75,14a1.927,1.927,0,0,0-.179-2.871,16.711,16.711,0,0,0-10.282-3.5h-.334V1.906A1.912,1.912,0,0,0,19.05,0H15.237a1.912,1.912,0,0,0-1.906,1.906V7.625h-.3A12.911,12.911,0,0,0,.357,17.109a12.54,12.54,0,0,0,8.7,15.047L22.91,36.111A5.065,5.065,0,0,1,26.615,40.1,4.891,4.891,0,0,1,21.79,45.75H13a9.209,9.209,0,0,1-5.29-1.68,1.9,1.9,0,0,0-2.442.2L2.537,47a1.927,1.927,0,0,0,.179,2.871A16.661,16.661,0,0,0,13,53.375h.334v5.719A1.912,1.912,0,0,0,15.237,61H19.05a1.912,1.912,0,0,0,1.906-1.906V53.375h.3A12.911,12.911,0,0,0,33.93,43.891,12.54,12.54,0,0,0,25.233,28.844Z" transform="translate(0.014)" fill="url(#linear-gradient)"/>
</svg>
