<svg xmlns="http://www.w3.org/2000/svg" width="386" height="291"><g data-name="Raggruppa 3100" transform="translate(-1268 -964)" fill="#fff"><circle data-name="Ellisse 1" cx="3" cy="3" r="3" transform="translate(1268 964)"/><circle data-name="Ellisse 6" cx="3" cy="3" r="3" transform="translate(1268 1059)"/><circle data-name="Ellisse 11" cx="3" cy="3" r="3" transform="translate(1268 1154)"/><circle data-name="Ellisse 20" cx="3" cy="3" r="3" transform="translate(1268 1249)"/><circle data-name="Ellisse 2" cx="3" cy="3" r="3" transform="translate(1363 964)"/><circle data-name="Ellisse 7" cx="3" cy="3" r="3" transform="translate(1363 1059)"/><circle data-name="Ellisse 12" cx="3" cy="3" r="3" transform="translate(1363 1154)"/><circle data-name="Ellisse 19" cx="3" cy="3" r="3" transform="translate(1363 1249)"/><circle data-name="Ellisse 3" cx="3" cy="3" r="3" transform="translate(1458 964)"/><circle data-name="Ellisse 8" cx="3" cy="3" r="3" transform="translate(1458 1059)"/><circle data-name="Ellisse 13" cx="3" cy="3" r="3" transform="translate(1458 1154)"/><circle data-name="Ellisse 18" cx="3" cy="3" r="3" transform="translate(1458 1249)"/><circle data-name="Ellisse 4" cx="3" cy="3" r="3" transform="translate(1553 964)"/><circle data-name="Ellisse 9" cx="3" cy="3" r="3" transform="translate(1553 1059)"/><circle data-name="Ellisse 14" cx="3" cy="3" r="3" transform="translate(1553 1154)"/><circle data-name="Ellisse 17" cx="3" cy="3" r="3" transform="translate(1553 1249)"/><circle data-name="Ellisse 5" cx="3" cy="3" r="3" transform="translate(1648 964)"/><circle data-name="Ellisse 10" cx="3" cy="3" r="3" transform="translate(1648 1059)"/><circle data-name="Ellisse 15" cx="3" cy="3" r="3" transform="translate(1648 1154)"/><circle data-name="Ellisse 16" cx="3" cy="3" r="3" transform="translate(1648 1249)"/></g></svg>