<svg data-name="Raggruppa 730" xmlns="http://www.w3.org/2000/svg" width="65.336" height="71.5"><defs><linearGradient id="prefix__a" x2="1" y2="1" gradientUnits="objectBoundingBox"><stop offset="0" stop-color="#32e4b6"/><stop offset="1" stop-color="#086eb1"/></linearGradient></defs><path data-name="Unione 2" d="M-2873.234 65.418a4.011 4.011 0 004.007-4.006 4.011 4.011 0 00-4.007-4.007 4.011 4.011 0 00-4.006 4.007 4.011 4.011 0 004.006 4.006m27.121-16.026a4.174 4.174 0 004.007-4.315 4.174 4.174 0 00-4.007-4.315 4.173 4.173 0 00-4.006 4.315 4.173 4.173 0 004.006 4.315m-53.933 0c2.039 0 3.7-1.936 3.7-4.315s-1.659-4.315-3.7-4.315-3.7 1.936-3.7 4.315 1.659 4.315 3.7 4.315m53.933-28.353a4.011 4.011 0 004.007-4.006 4.011 4.011 0 00-4.007-4.007 4.011 4.011 0 00-4.006 4.007 4.01 4.01 0 004.006 4.006m-53.933 0a3.866 3.866 0 003.7-4.006 3.866 3.866 0 00-3.7-4.007 3.866 3.866 0 00-3.7 4.007 3.866 3.866 0 003.7 4.006m26.812-15.41a4.011 4.011 0 004.007-4.006 4.011 4.011 0 00-4.007-4.007 4.011 4.011 0 00-4.006 4.007 4.011 4.011 0 004.006 4.006m0 61.638a5.856 5.856 0 01-5.855-5.855 5.856 5.856 0 015.855-5.856 5.856 5.856 0 015.856 5.856 5.856 5.856 0 01-5.856 5.855zm27.121-16.026a6.015 6.015 0 01-5.855-6.164 6.016 6.016 0 015.855-6.164 6.016 6.016 0 015.856 6.164 6.016 6.016 0 01-5.856 6.164zm-53.933 0c-3.064 0-5.547-2.759-5.547-6.164s2.484-6.164 5.547-6.164 5.547 2.76 5.547 6.164-2.483 6.164-5.547 6.164zm53.933-28.353a5.855 5.855 0 01-5.855-5.855 5.856 5.856 0 015.855-5.856 5.856 5.856 0 015.856 5.856 5.856 5.856 0 01-5.856 5.855zm-53.933 0a5.708 5.708 0 01-5.547-5.855 5.708 5.708 0 015.547-5.856 5.708 5.708 0 015.547 5.856 5.708 5.708 0 01-5.547 5.855zm26.812-15.41a5.856 5.856 0 01-5.855-5.855 5.856 5.856 0 015.855-5.856 5.856 5.856 0 015.856 5.856 5.856 5.856 0 01-5.856 5.855z" transform="translate(2905.593 4.233)" fill="url(#prefix__a)"/></svg>