<svg xmlns="http://www.w3.org/2000/svg" width="22.446" height="21.892" viewBox="0 0 22.446 21.892">
  <path id="Tracciato_22740" data-name="Tracciato 22740" d="M11.223,0A11.223,11.223,0,0,0,7.674,21.871c.561.1.772-.238.772-.533,0-.267-.014-1.15-.014-2.09-2.82.519-3.549-.687-3.774-1.319a4.081,4.081,0,0,0-1.15-1.585c-.393-.21-.954-.729-.014-.744a2.246,2.246,0,0,1,1.726,1.15,2.4,2.4,0,0,0,3.269.926,2.361,2.361,0,0,1,.715-1.5c-2.5-.281-5.106-1.249-5.106-5.541a4.368,4.368,0,0,1,1.15-3.016,4.033,4.033,0,0,1,.112-2.974s.94-.295,3.086,1.15a10.581,10.581,0,0,1,5.611,0c2.146-1.459,3.086-1.15,3.086-1.15a4.033,4.033,0,0,1,.112,2.974,4.342,4.342,0,0,1,1.15,3.016c0,4.307-2.623,5.261-5.12,5.541a2.658,2.658,0,0,1,.758,2.076c0,1.5-.014,2.708-.014,3.086,0,.295.21.645.772.533A11.229,11.229,0,0,0,11.223,0Z" fill="#fff" fill-rule="evenodd"/>
</svg>
