<svg xmlns="http://www.w3.org/2000/svg" width="55" height="71"><defs><linearGradient id="prefix__a" x2="1" y2="1" gradientUnits="objectBoundingBox"><stop offset="0" stop-color="#32e4b6"/><stop offset="1" stop-color="#086eb1"/></linearGradient></defs><path data-name="Unione 2" d="M0 71V0h44.052L55 11.714V71zm1.854-1.836h51.292V12.433l-9.9-10.6H1.854zm19.776-17.75V38.406a9.438 9.438 0 01-3.708-7.5 9.579 9.579 0 0119.158 0 9.438 9.438 0 01-3.708 7.5v13.008zm.408-25.914a7.6 7.6 0 00.729 11.457l.717.551v12.07h8.033V37.507l.717-.551a7.6 7.6 0 00.729-11.456 7.778 7.778 0 00-10.924 0z" fill="url(#prefix__a)"/></svg>