<svg xmlns="http://www.w3.org/2000/svg" width="24.785" height="14.052" viewBox="0 0 24.785 14.052">
  <g id="Raggruppa_716" data-name="Raggruppa 716" transform="translate(0 0)">
    <path id="Tracciato_140" data-name="Tracciato 140" d="M-4175.821-2791.405a7.029,7.029,0,0,1,7.024,7.033,6.92,6.92,0,0,1-2.083,4.974,6.926,6.926,0,0,1-4.944,2.045,6.924,6.924,0,0,1-4.963-2.066,6.909,6.909,0,0,1-2.062-4.957A7.029,7.029,0,0,1-4175.821-2791.405Z" transform="translate(4182.85 2791.405)" fill="#fff"/>
    <path id="Tracciato_141" data-name="Tracciato 141" d="M-1883.937-2731.327c-.011.271-.014.542-.033.812-.027.374-.068.747-.129,1.116a10,10,0,0,1-.421,1.674,6.808,6.808,0,0,1-.8,1.62,3.855,3.855,0,0,1-.942.988,2.324,2.324,0,0,1-.937.406,1.992,1.992,0,0,1-1.15-.137,2.763,2.763,0,0,1-.787-.518,4.662,4.662,0,0,1-.9-1.174,8.234,8.234,0,0,1-.82-2.2,10.8,10.8,0,0,1-.2-1.113c-.032-.254-.053-.51-.07-.765-.022-.337-.028-.674-.021-1.01,0-.21.015-.419.031-.629.02-.255.044-.51.08-.764a10.958,10.958,0,0,1,.234-1.2,8.941,8.941,0,0,1,.388-1.183,6.291,6.291,0,0,1,.772-1.391,3.766,3.766,0,0,1,.766-.775,2.34,2.34,0,0,1,1.046-.452,1.932,1.932,0,0,1,.812.052,2.5,2.5,0,0,1,.875.453,4.14,4.14,0,0,1,.936,1.072,7.067,7.067,0,0,1,.681,1.433,10.132,10.132,0,0,1,.436,1.742q.072.442.108.89c.021.268.038.536.039.805C-1883.944-2731.5-1883.934-2731.412-1883.937-2731.327Z" transform="translate(1905.72 2738.387)" fill="#fff"/>
    <path id="Tracciato_142" data-name="Tracciato 142" d="M-694.161-2625.234c0,.22,0,.441,0,.662q-.012.46-.039.92c-.016.266-.037.532-.062.8a14.916,14.916,0,0,1-.318,2.051,4.929,4.929,0,0,1-.368,1.088,1.305,1.305,0,0,1-.245.354.35.35,0,0,1-.551,0,1.317,1.317,0,0,1-.237-.344,4.272,4.272,0,0,1-.293-.792,10.771,10.771,0,0,1-.255-1.212c-.051-.316-.09-.633-.123-.951-.023-.218-.041-.435-.057-.652-.023-.327-.041-.655-.052-.983,0-.143-.005-.284-.011-.426-.009-.218-.01-.437-.008-.655,0-.235.005-.47.013-.705.009-.265.021-.529.038-.793.024-.368.054-.734.1-1.1a14.779,14.779,0,0,1,.232-1.475,6.387,6.387,0,0,1,.329-1.114,2.119,2.119,0,0,1,.226-.418.881.881,0,0,1,.145-.16.33.33,0,0,1,.457-.011.838.838,0,0,1,.17.188,2.414,2.414,0,0,1,.27.546,7.706,7.706,0,0,1,.328,1.246c.047.246.086.493.12.741s.063.487.084.731c.02.228.041.456.059.684.012.15.021.3.026.45.006.175.012.351.019.526C-694.156-2625.772-694.161-2625.5-694.161-2625.234Z" transform="translate(718.945 2632.258)" fill="#fff"/>
  </g>
</svg>
