<svg id="medium-icon" xmlns="http://www.w3.org/2000/svg" width="32.99" height="18.704" viewBox="0 0 32.99 18.704">
  <g id="Raggruppa_716" data-name="Raggruppa 716" transform="translate(0)">
    <path id="Tracciato_140" data-name="Tracciato 140" d="M-4173.5-2791.406a9.357,9.357,0,0,1,9.35,9.361,9.2,9.2,0,0,1-2.773,6.62,9.213,9.213,0,0,1-6.582,2.722,9.212,9.212,0,0,1-6.6-2.75,9.2,9.2,0,0,1-2.744-6.6A9.356,9.356,0,0,1-4173.5-2791.406Z" transform="translate(4182.85 2791.406)" fill="#9094a5"/>
    <path id="Tracciato_141" data-name="Tracciato 141" d="M-1881.549-2729.1c-.014.36-.018.721-.044,1.081-.036.5-.091.993-.172,1.486a13.373,13.373,0,0,1-.561,2.229,9.074,9.074,0,0,1-1.063,2.156,5.115,5.115,0,0,1-1.255,1.315,3.085,3.085,0,0,1-1.247.541,2.652,2.652,0,0,1-1.531-.183,3.662,3.662,0,0,1-1.047-.69,6.2,6.2,0,0,1-1.2-1.562,10.987,10.987,0,0,1-1.092-2.931,14.636,14.636,0,0,1-.262-1.482c-.043-.338-.07-.678-.093-1.018-.03-.448-.037-.9-.027-1.344q.01-.418.041-.836c.026-.34.059-.68.106-1.017a14.638,14.638,0,0,1,.312-1.6,11.824,11.824,0,0,1,.516-1.574,8.365,8.365,0,0,1,1.027-1.852,5,5,0,0,1,1.019-1.031,3.107,3.107,0,0,1,1.392-.6,2.575,2.575,0,0,1,1.081.068,3.321,3.321,0,0,1,1.164.6,5.5,5.5,0,0,1,1.247,1.426,9.432,9.432,0,0,1,.906,1.906,13.454,13.454,0,0,1,.58,2.319q.1.589.143,1.183c.029.357.05.714.052,1.073C-1881.559-2729.328-1881.545-2729.216-1881.549-2729.1Z" transform="translate(1910.544 2738.5)" fill="#9094a5"/>
    <path id="Tracciato_142" data-name="Tracciato 142" d="M-693.294-2623.246c0,.293.006.587,0,.88q-.017.613-.051,1.225c-.021.354-.049.709-.082,1.062a19.84,19.84,0,0,1-.423,2.731,6.557,6.557,0,0,1-.489,1.448,1.74,1.74,0,0,1-.325.471.466.466,0,0,1-.734,0,1.746,1.746,0,0,1-.316-.458,5.712,5.712,0,0,1-.39-1.054,14.387,14.387,0,0,1-.339-1.614c-.068-.42-.12-.843-.164-1.266q-.045-.434-.075-.868c-.031-.436-.055-.872-.07-1.309-.006-.188-.007-.378-.014-.566-.011-.291-.013-.581-.01-.871,0-.313.007-.626.018-.939.012-.352.027-.7.05-1.056.031-.49.072-.978.127-1.465a19.735,19.735,0,0,1,.309-1.962,8.452,8.452,0,0,1,.437-1.483,2.838,2.838,0,0,1,.3-.557,1.174,1.174,0,0,1,.193-.212.439.439,0,0,1,.608-.015,1.113,1.113,0,0,1,.226.25,3.231,3.231,0,0,1,.359.726,10.262,10.262,0,0,1,.436,1.658c.063.327.115.655.16.985s.084.649.112.974c.027.3.055.606.078.91.016.2.028.4.035.6.008.233.016.468.026.7C-693.288-2623.962-693.295-2623.6-693.294-2623.246Z" transform="translate(726.282 2632.595)" fill="#9094a5"/>
  </g>
</svg>
