<svg xmlns="http://www.w3.org/2000/svg" width="266.408" height="239" viewBox="0 0 266.408 239">
  <g id="Raggruppa_3573" data-name="Raggruppa 3573" transform="translate(-290.15 -233)">
    <path id="Unione_1" data-name="Unione 1" d="M41.047,210.135a7.678,7.678,0,0,1-10.9-6.971,7.581,7.581,0,0,1,.586-2.923A115.66,115.66,0,0,1,0,121.667C0,62.2,45.005,13.044,102.842,6.184A7.685,7.685,0,0,1,117.7,5.363,116.179,116.179,0,0,1,167.495,17a4.562,4.562,0,0,1,1.256-.195,4.638,4.638,0,1,1-4.652,4.64l0-.034a110.789,110.789,0,0,0-46.693-10.579,7.676,7.676,0,0,1-13.613.752c-55.262,6.4-98.3,53.316-98.3,110.086a110.234,110.234,0,0,0,29.025,74.6,7.662,7.662,0,0,1,10.391,9.962,111.205,111.205,0,0,0,142.97.546,7.674,7.674,0,0,1,10.28-9.728A110.3,110.3,0,0,0,214,68.033l.156-.157a4.634,4.634,0,1,1,4.467-2.759,115.651,115.651,0,0,1-16.563,135.776,7.649,7.649,0,0,1-10.53,9.968,116.685,116.685,0,0,1-150.485-.727Zm149.977-6.058a4.044,4.044,0,1,0,4.046-4.03A4.043,4.043,0,0,0,191.024,204.076Zm-157.215-.913a4.043,4.043,0,1,0,4.046-4.031A4.043,4.043,0,0,0,33.808,203.164ZM106.351,7.679A4.044,4.044,0,1,0,110.4,3.648,4.042,4.042,0,0,0,106.351,7.679Zm-38,202.838.293-.534a4.551,4.551,0,1,1,2.5-4.19,95.989,95.989,0,0,0,141.068-75.617,7.659,7.659,0,0,1,.214-14.222C209.448,65.9,167.665,26.077,116.71,26.077A95.69,95.69,0,0,0,50.619,52.5a7.613,7.613,0,0,1,.736,3.23,7.63,7.63,0,0,1-10.239,7.219A95.249,95.249,0,0,0,24.221,147a4.6,4.6,0,1,1-5.331,1.31,100.647,100.647,0,0,1,18.036-88.9,7.6,7.6,0,0,1-.981-3.679,7.7,7.7,0,0,1,10.743-7.055A101.188,101.188,0,0,1,116.71,20.6c53.98,0,98.228,42.267,101.218,95.337a7.632,7.632,0,0,1-.223,14.392A101.486,101.486,0,0,1,68.352,210.518ZM211.162,123.1a4.043,4.043,0,1,0,4.046-4.031A4.043,4.043,0,0,0,211.162,123.1ZM39.607,55.732A4.043,4.043,0,1,0,43.651,51.7,4.042,4.042,0,0,0,39.607,55.732Zm7.861,117.337a7.785,7.785,0,0,1-1.375.136,7.691,7.691,0,0,1-7.706-7.678,7.587,7.587,0,0,1,1.525-4.546,85.313,85.313,0,0,1-9.569-39.315c0-47.469,38.742-86.09,86.367-86.09a86.034,86.034,0,0,1,46.869,13.836,7.7,7.7,0,0,1,11.961,6.394,7.6,7.6,0,0,1-.447,2.486,85.839,85.839,0,0,1,20.583,98.289,4.5,4.5,0,0,1,.43,1.9,4.577,4.577,0,1,1-5.3-4.489,80.35,80.35,0,0,0-19.248-91.506,7.652,7.652,0,0,1-11.428-6.685,7.534,7.534,0,0,1,.274-1.923,80.555,80.555,0,0,0-43.7-12.832c-44.6,0-80.876,36.165-80.876,80.615A79.882,79.882,0,0,0,44.55,158a7.705,7.705,0,0,1,9.245,7.525,7.591,7.591,0,0,1-1.621,4.663,81,81,0,0,0,100.078,23.894,4.6,4.6,0,1,1,2.461,4.892A86.514,86.514,0,0,1,47.468,173.069Zm-5.421-7.542a4.043,4.043,0,1,0,4.047-4.031A4.042,4.042,0,0,0,42.046,165.527ZM163.791,55.809a4.043,4.043,0,1,0,4.047-4.03A4.044,4.044,0,0,0,163.791,55.809Z" transform="translate(322.639 233.5)" fill="#2fdcb6" stroke="rgba(0,0,0,0)" stroke-width="1"/>
    <g id="Raggruppa_3546" data-name="Raggruppa 3546" transform="translate(391.6 307.466)">
      <g id="Ellisse_1" data-name="Ellisse 1" transform="translate(24.056 24.056)" fill="none" stroke="#fff" stroke-width="7">
        <circle cx="23.693" cy="23.693" r="23.693" stroke="none"/>
        <circle cx="23.693" cy="23.693" r="20.193" fill="none"/>
      </g>
      <line id="Linea_24" data-name="Linea 24" y1="24.057" transform="translate(47.749)" fill="none" stroke="#fff" stroke-linecap="round" stroke-width="7"/>
      <line id="Linea_25" data-name="Linea 25" y1="24.057" transform="translate(47.749 71.441)" fill="none" stroke="#fff" stroke-linecap="round" stroke-width="7"/>
      <line id="Linea_30" data-name="Linea 30" y1="24.057" transform="translate(0 47.749) rotate(-90)" fill="none" stroke="#fff" stroke-linecap="round" stroke-width="7"/>
      <line id="Linea_31" data-name="Linea 31" y1="24.057" transform="translate(71.441 47.749) rotate(-90)" fill="none" stroke="#fff" stroke-linecap="round" stroke-width="7"/>
      <line id="Linea_34" data-name="Linea 34" y1="24.057" transform="translate(81.512 13.985) rotate(45)" fill="none" stroke="#fff" stroke-linecap="round" stroke-width="7"/>
      <line id="Linea_35" data-name="Linea 35" y1="24.057" transform="translate(30.996 64.501) rotate(45)" fill="none" stroke="#fff" stroke-linecap="round" stroke-width="7"/>
      <line id="Linea_36" data-name="Linea 36" y2="24.057" transform="translate(30.996 30.996) rotate(135)" fill="none" stroke="#fff" stroke-linecap="round" stroke-width="7"/>
      <line id="Linea_37" data-name="Linea 37" y2="24.057" transform="translate(81.512 81.512) rotate(135)" fill="none" stroke="#fff" stroke-linecap="round" stroke-width="7"/>
    </g>
    <path id="Tracciato_22746" data-name="Tracciato 22746" d="M0,18.609V0" transform="translate(307.193 336.686) rotate(-90)" fill="none" stroke="#2fdcb6" stroke-linecap="round" stroke-width="7"/>
    <line id="Linea_33" data-name="Linea 33" x1="32.151" transform="translate(293.65 372.839)" fill="none" stroke="#2fdcb6" stroke-linecap="round" stroke-width="7"/>
  </g>
</svg>
