<svg id="twitter" xmlns="http://www.w3.org/2000/svg" width="25.797" height="21" viewBox="0 0 25.797 21">
  <path id="Tracciato_22592" data-name="Tracciato 22592" d="M-4945.283,2144.6a4.008,4.008,0,0,1,.4.029c.045,0,.092,0,.138.009a8.91,8.91,0,0,0,1.11.017,10.779,10.779,0,0,0,2.545-.413,10.861,10.861,0,0,0,1.6-.609,10.86,10.86,0,0,0,1.88-1.143c.03-.023.068-.04.085-.078-.019-.027-.043-.016-.065-.016a4.457,4.457,0,0,1-.932-.114,5.151,5.151,0,0,1-1.293-.467,5.41,5.41,0,0,1-1.07-.732,5.278,5.278,0,0,1-1.051-1.26,5.444,5.444,0,0,1-.479-1.033.213.213,0,0,1-.009-.029c-.006-.032,0-.051.04-.044.081.015.163.025.244.038a4.573,4.573,0,0,0,.929.048,5.031,5.031,0,0,0,1.055-.155c.016,0,.034,0,.043-.026a5.291,5.291,0,0,1-3.486-2.564,5.17,5.17,0,0,1-.694-2.706,5.22,5.22,0,0,0,2.345.659,5.312,5.312,0,0,1-2.264-3.771,5.264,5.264,0,0,1,.68-3.3,15.154,15.154,0,0,0,4.875,3.934,14.982,14.982,0,0,0,6.042,1.612,4.843,4.843,0,0,1-.123-1.014,3.389,3.389,0,0,0,0-.366,5.039,5.039,0,0,1,.451-1.987,5.184,5.184,0,0,1,.912-1.4,5.251,5.251,0,0,1,1.717-1.259,5.3,5.3,0,0,1,1.606-.448,5.281,5.281,0,0,1,.891-.029,5.21,5.21,0,0,1,1.768.4,5.212,5.212,0,0,1,1.464.92,2.689,2.689,0,0,1,.321.309c.028.034.057.031.1.024.214-.042.426-.095.637-.151a10.447,10.447,0,0,0,1.668-.6,9.931,9.931,0,0,0,.924-.481c.019-.011.034-.032.061-.026a5.18,5.18,0,0,1-2.24,2.888,6.658,6.658,0,0,0,1.5-.285,9.719,9.719,0,0,0,1.449-.516c.014.031-.008.047-.019.063a11,11,0,0,1-.792,1.03c-.154.177-.313.35-.479.517a10.016,10.016,0,0,1-1.239,1.067.2.2,0,0,0-.093.2c.016.4.019.809,0,1.212a14.849,14.849,0,0,1-.167,1.6,15.566,15.566,0,0,1-.486,2.113,15.732,15.732,0,0,1-.714,1.9,16,16,0,0,1-1.01,1.89,15.6,15.6,0,0,1-1.245,1.719,14.612,14.612,0,0,1-1.126,1.2,13.945,13.945,0,0,1-1.532,1.273,14.358,14.358,0,0,1-1.486.937,14.246,14.246,0,0,1-1.951.88,14.685,14.685,0,0,1-1.634.487,14.715,14.715,0,0,1-1.489.275c-.34.045-.68.079-1.023.1-.3.021-.606.04-.911.038-.334,0-.669,0-1-.008q-.434-.017-.867-.067c-.22-.025-.438-.052-.658-.083-.349-.049-.7-.115-1.042-.191a14.769,14.769,0,0,1-1.593-.448q-.713-.245-1.4-.559a15.1,15.1,0,0,1-1.754-.948c-.028-.018-.054-.038-.081-.058Z" transform="translate(4945.295 -2125.967)" fill="#9094a5"/>
</svg>
