<svg xmlns="http://www.w3.org/2000/svg" width="24.347" height="19.819" viewBox="0 0 24.347 19.819">
  <path id="Path_22592" data-name="Path 22592" d="M-4945.284,2143.548a3.768,3.768,0,0,1,.381.028c.042,0,.087,0,.13.008a8.433,8.433,0,0,0,1.048.016,10.179,10.179,0,0,0,2.4-.39,10.242,10.242,0,0,0,1.512-.575,10.244,10.244,0,0,0,1.774-1.079c.029-.022.065-.037.081-.074-.018-.025-.041-.015-.062-.015a4.206,4.206,0,0,1-.879-.108,4.856,4.856,0,0,1-1.221-.441,5.11,5.11,0,0,1-1.01-.691,4.978,4.978,0,0,1-.992-1.189,5.1,5.1,0,0,1-.452-.975.191.191,0,0,1-.008-.027c-.006-.03,0-.048.038-.041.076.014.153.024.23.036a4.324,4.324,0,0,0,.877.045,4.751,4.751,0,0,0,1-.146c.015,0,.032,0,.041-.025a4.993,4.993,0,0,1-3.29-2.42,4.881,4.881,0,0,1-.655-2.554,4.926,4.926,0,0,0,2.213.622,5.012,5.012,0,0,1-2.137-3.559,4.968,4.968,0,0,1,.642-3.119,14.3,14.3,0,0,0,4.6,3.713,14.14,14.14,0,0,0,5.7,1.521,4.589,4.589,0,0,1-.116-.957,3.131,3.131,0,0,0,0-.345,4.764,4.764,0,0,1,.425-1.875,4.9,4.9,0,0,1,.861-1.32,4.95,4.95,0,0,1,1.621-1.188,5,5,0,0,1,1.516-.423,4.991,4.991,0,0,1,.841-.027,4.92,4.92,0,0,1,1.668.379,4.924,4.924,0,0,1,1.382.868,2.575,2.575,0,0,1,.3.292c.026.032.054.03.091.023.2-.039.4-.09.6-.142a9.844,9.844,0,0,0,1.574-.567,9.294,9.294,0,0,0,.873-.454c.017-.01.032-.03.058-.024a4.891,4.891,0,0,1-2.114,2.726,6.3,6.3,0,0,0,1.418-.269,9.2,9.2,0,0,0,1.367-.487c.013.029-.007.044-.018.06a10.4,10.4,0,0,1-.747.972c-.145.168-.3.331-.452.488a9.437,9.437,0,0,1-1.169,1.007.192.192,0,0,0-.087.188c.015.381.017.763,0,1.144a14.058,14.058,0,0,1-.157,1.512,14.747,14.747,0,0,1-.458,1.994,14.826,14.826,0,0,1-.674,1.795,15.076,15.076,0,0,1-.954,1.783,14.678,14.678,0,0,1-1.175,1.622,13.9,13.9,0,0,1-1.062,1.135,13.167,13.167,0,0,1-1.446,1.2,13.491,13.491,0,0,1-1.4.884,13.482,13.482,0,0,1-1.841.831,13.855,13.855,0,0,1-1.542.46,13.881,13.881,0,0,1-1.405.259q-.48.063-.965.1c-.287.019-.572.037-.859.035-.315,0-.632,0-.948-.008q-.41-.016-.818-.063c-.208-.024-.414-.049-.621-.078-.329-.046-.657-.108-.983-.18a13.952,13.952,0,0,1-1.5-.423q-.673-.231-1.321-.527a14.266,14.266,0,0,1-1.655-.895c-.026-.017-.051-.036-.076-.054A.054.054,0,0,0-4945.284,2143.548Z" transform="translate(4945.295 -2125.967)" fill="#fff"/>
</svg>
