<svg xmlns="http://www.w3.org/2000/svg" width="19.382" height="15.777" viewBox="0 0 19.382 15.777">
  <path id="Tracciato_22592" data-name="Tracciato 22592" d="M-4945.285,2139.962a2.907,2.907,0,0,1,.3.022c.033,0,.069,0,.1.006a6.647,6.647,0,0,0,.834.012,8.119,8.119,0,0,0,1.912-.31,8.244,8.244,0,0,0,1.2-.457,8.115,8.115,0,0,0,1.413-.859c.022-.017.051-.03.064-.058-.014-.021-.033-.012-.049-.012a3.317,3.317,0,0,1-.7-.085,3.866,3.866,0,0,1-.973-.351,4.069,4.069,0,0,1-.8-.55,3.925,3.925,0,0,1-.79-.947,4.066,4.066,0,0,1-.36-.776.172.172,0,0,0-.007-.022c0-.024,0-.038.03-.033.062.012.122.019.184.029a3.464,3.464,0,0,0,.7.036,3.781,3.781,0,0,0,.793-.116c.012,0,.024,0,.032-.02a3.973,3.973,0,0,1-2.619-1.926,3.893,3.893,0,0,1-.521-2.033,3.922,3.922,0,0,0,1.761.5,3.987,3.987,0,0,1-1.7-2.833,3.945,3.945,0,0,1,.51-2.482,11.387,11.387,0,0,0,3.663,2.956,11.257,11.257,0,0,0,4.539,1.211,3.663,3.663,0,0,1-.093-.761,2.152,2.152,0,0,0,0-.275,3.789,3.789,0,0,1,.339-1.493,3.9,3.9,0,0,1,.686-1.051,3.945,3.945,0,0,1,1.29-.946,4,4,0,0,1,1.207-.336,4.033,4.033,0,0,1,.669-.022,3.93,3.93,0,0,1,1.329.3,3.915,3.915,0,0,1,1.1.691,2.041,2.041,0,0,1,.241.232c.021.026.042.024.073.018.16-.031.319-.071.478-.113a7.876,7.876,0,0,0,1.253-.452,7.387,7.387,0,0,0,.7-.361c.014-.008.025-.024.046-.02a3.893,3.893,0,0,1-1.684,2.17,5.006,5.006,0,0,0,1.129-.214,7.318,7.318,0,0,0,1.088-.388c.012.023,0,.035-.014.048a8.3,8.3,0,0,1-.595.774c-.115.134-.235.264-.36.388a7.466,7.466,0,0,1-.93.8.151.151,0,0,0-.069.149c.011.3.013.608,0,.911a11.082,11.082,0,0,1-.125,1.2,11.891,11.891,0,0,1-.364,1.587,11.867,11.867,0,0,1-.538,1.429,12.019,12.019,0,0,1-.758,1.419,11.862,11.862,0,0,1-.937,1.291,10.919,10.919,0,0,1-.846.9,10.492,10.492,0,0,1-1.15.957,10.8,10.8,0,0,1-1.116.7,10.715,10.715,0,0,1-1.467.661,10.984,10.984,0,0,1-1.227.366,10.942,10.942,0,0,1-1.118.207c-.256.034-.512.059-.77.077-.228.015-.455.03-.684.029-.251,0-.5,0-.754-.006q-.327-.013-.652-.051c-.166-.019-.329-.039-.494-.062-.262-.037-.523-.086-.783-.144a11.244,11.244,0,0,1-1.2-.336c-.358-.123-.708-.263-1.053-.42a11.44,11.44,0,0,1-1.316-.712c-.021-.014-.041-.029-.062-.044A.028.028,0,0,0-4945.285,2139.962Z" transform="translate(4945.295 -2125.967)" fill="#fff"/>
</svg>
