<svg xmlns="http://www.w3.org/2000/svg" xmlns:xlink="http://www.w3.org/1999/xlink" width="53.375" height="61" viewBox="0 0 53.375 61">
  <defs>
    <linearGradient id="linear-gradient" x1="-0.234" y1="-0.386" x2="0.659" y2="1.067" gradientUnits="objectBoundingBox">
      <stop offset="0" stop-color="#30e6fc"/>
      <stop offset="1" stop-color="#290266"/>
    </linearGradient>
  </defs>
  <path id="user" d="M37.363,36.219c-3.419,0-5.064,1.906-10.675,1.906s-7.244-1.906-10.675-1.906A16.017,16.017,0,0,0,0,52.232v3.05A5.72,5.72,0,0,0,5.719,61H47.657a5.72,5.72,0,0,0,5.719-5.719v-3.05A16.017,16.017,0,0,0,37.363,36.219ZM47.657,55.282H5.719v-3.05A10.312,10.312,0,0,1,16.013,41.938c1.739,0,4.563,1.906,10.675,1.906,6.16,0,8.924-1.906,10.675-1.906A10.312,10.312,0,0,1,47.657,52.232ZM26.688,34.313A17.156,17.156,0,1,0,9.531,17.156,17.161,17.161,0,0,0,26.688,34.313Zm0-28.594A11.438,11.438,0,1,1,15.25,17.156,11.456,11.456,0,0,1,26.688,5.719Z" fill="url(#linear-gradient)"/>
</svg>
