<svg xmlns="http://www.w3.org/2000/svg" width="73" height="73"><defs><linearGradient id="prefix__a" x2="1" y2="1" gradientUnits="objectBoundingBox"><stop offset="0" stop-color="#32e4b6"/><stop offset="1" stop-color="#086eb1"/></linearGradient></defs><path data-name="Unione 5" d="M36.5 73A36.5 36.5 0 1173 36.5 36.5 36.5 0 0136.5 73zM20.483 50.267a44.352 44.352 0 003.992 11.1 22.68 22.68 0 005.676 7.2 10.614 10.614 0 005.35 2.378V37.5H19.007a62.191 62.191 0 001.476 12.767zM37.5 70.942a10.614 10.614 0 005.349-2.378 22.68 22.68 0 005.676-7.2 44.314 44.314 0 003.992-11.1A62.124 62.124 0 0053.992 37.5H37.5zm6.531-.764A34.476 34.476 0 0070.986 37.5H55.992c-.211 14.732-5.086 27.286-11.961 32.678zM4.71 49.928a34.519 34.519 0 0024.259 20.25c-6.876-5.392-11.75-17.946-11.962-32.678H2.014A34.216 34.216 0 004.71 49.928zM70.986 35.5A34.5 34.5 0 0044.031 2.822c6.875 5.392 11.75 17.946 11.961 32.678zm-16.993 0a62.135 62.135 0 00-1.476-12.766 44.307 44.307 0 00-3.992-11.1 22.674 22.674 0 00-5.676-7.2A10.614 10.614 0 0037.5 2.058V35.5zm-18.493 0V2.058a10.614 10.614 0 00-5.35 2.378 22.674 22.674 0 00-5.676 7.2 44.345 44.345 0 00-3.992 11.1A62.2 62.2 0 0019.007 35.5zm-18.493 0c.212-14.732 5.086-27.285 11.962-32.678A34.476 34.476 0 002.014 35.5z" fill="url(#prefix__a)"/></svg>