<svg xmlns="http://www.w3.org/2000/svg" xmlns:xlink="http://www.w3.org/1999/xlink" width="445.333" height="171.521" viewBox="0 0 445.333 171.521">
  <defs>
    <clipPath id="clip-path">
      <rect id="Rettangolo_298" data-name="Rettangolo 298" width="445.333" height="171.521"/>
    </clipPath>
  </defs>
  <g id="Raggruppa_3569" data-name="Raggruppa 3569" opacity="0.8">
    <g id="Raggruppa_3568" data-name="Raggruppa 3568" clip-path="url(#clip-path)">
      <path id="Tracciato_22793" data-name="Tracciato 22793" d="M400.342,13.93,299.015,36.72,283.076,3.733l-4.83,1.042L276.476.831,273.685,0l-2.36,6.267-9.512,2.052-.065-5.466c-.117-.6-2.732-.4-5.84.444s-5.532,2.022-5.414,2.624l2.036,4.4L239.8,13.071l-1.912-7.924c-.342-.77-3.784.3-7.688,2.386s-6.791,4.406-6.449,5.176l5.046,6.524-7.757,5.858-2.125-4.54c-.356-.5-2.655.762-5.135,2.818S209.574,27.5,209.93,28l3.391,2.922-13.006,9.823L194.546,37.8l-1.859,2.575,3.045,3.824-2.5,1.89L203.3,67.417,176.9,63.8l-.345-.048-4.963,1.374-.006,2.176a1.24,1.24,0,0,0-.478.659l-2.546-1.9L.268,103.911,0,107.671l48.284,43.046,168.408-45.382.4-1.263a1.238,1.238,0,0,0,.471.094,1.256,1.256,0,0,0,.2-.02l1.629,1.727,1.731-.682,20.092,42.572,4.516-.685,2.078,4.718,2.87.954,1.955-6.718.525-.08,2.747,6.5,2.415-.449,5.862,8.765-7.892,3.429a5.463,5.463,0,0,0,.321,2.613,4.04,4.04,0,0,0,1.788,2.183l8.743-3.8.8,1.2,2.883-1.129,4.581-2.821-7.068-14.693,1.31-.5,7.306,15.674a.319.319,0,0,0,.1.118l7.236,8.25c.288.619,3.129-.031,7.373-1.556l2.064,1.283c.3.638,5.369-1.1,11.328-3.874s10.548-5.547,10.251-6.185l.258-2.278c4.365-2.487,7.022-4.438,6.714-5.1l-1.665-10.847a.319.319,0,0,0-.024-.155l-7.219-15.487,2.4-1.352,5.838,11.879c.149.319,2.3-.185,4.756-1.332s4.3-2.5,4.154-2.821l-5.972-12.15c-.054-.116-.367-.121-.858-.03l1.472-.828-3.111-6.689.913-.575.116.268,6.087,1.806.855-3.176-1.347-2.5,4.251-2.681L315.256,70.331l20.59,2.827,5.055-.783V71.022a1.277,1.277,0,0,0,1.092-.62l1.237.834,102.1-27.514V41.551ZM310.577,60.649,302.4,43.732l36.55,24.623-3.107.746L319.1,66.89Zm-93.919,41.262L174.164,70.235l.015.011,2.99-1.074,18.147,2.367,15.176,11.126L218.3,99.21l-1.373.43Z" transform="translate(0 0)"/>
    </g>
  </g>
</svg>
