<svg id="Group_16106" data-name="Group 16106" xmlns="http://www.w3.org/2000/svg" xmlns:xlink="http://www.w3.org/1999/xlink" width="154.618" height="154.694" viewBox="0 0 154.618 154.694">
  <defs>
    <clipPath id="clip-path">
      <rect id="Rectangle_5675" data-name="Rectangle 5675" width="154.618" height="154.694" fill="none"/>
    </clipPath>
    <linearGradient id="linear-gradient" x1="0.296" y1="0.128" x2="0.948" y2="0.776" gradientUnits="objectBoundingBox">
      <stop offset="0" stop-color="#30e6fc"/>
      <stop offset="1" stop-color="#290266"/>
    </linearGradient>
  </defs>
  <g id="Group_16105" data-name="Group 16105" clip-path="url(#clip-path)">
    <path id="Union_1" data-name="Union 1" d="M75.853,154.111q-10.927-7.294-21.861-14.579a2.45,2.45,0,0,1-1.2-2.247q.026-10.9,0-21.806A2.45,2.45,0,0,1,54,113.236q10.884-7.218,21.739-14.48c.129-.086.261-.166.387-.256a1.891,1.891,0,0,1,2.365-.018c.51.35,1.029.686,1.543,1.029q10.286,6.861,20.58,13.711a2.5,2.5,0,0,1,1.243,2.3c-.032,3.634-.012,7.269-.012,10.9,0,3.609-.019,7.218.013,10.826a2.5,2.5,0,0,1-1.245,2.3Q89.7,146.8,78.818,154.092a2.771,2.771,0,0,1-1.5.6A2.693,2.693,0,0,1,75.853,154.111Zm-19.277-35.3v.787c0,5.412.01,10.824-.013,16.236a1.37,1.37,0,0,0,.7,1.31q8.732,5.78,17.435,11.6c.189.126.388.237.7.425.022-.273.045-.422.045-.571q.006-8.428.016-16.855a.919.919,0,0,0-.471-.878c-1.7-1.112-3.39-2.251-5.083-3.38q-6.235-4.158-12.474-8.312c-.217-.144-.41-.372-.74-.372A.768.768,0,0,0,56.576,118.815Zm40.742.288q-8.775,5.851-17.555,11.694a1.188,1.188,0,0,0-.584,1.137c.018,5.464.016,10.927.021,16.39,0,.246.025.492.043.83.28-.158.461-.246.628-.357q8.811-5.869,17.625-11.734a1.057,1.057,0,0,0,.55-.994c-.015-5.566-.009-11.133-.012-16.7,0-.192-.032-.383-.056-.659C97.7,118.873,97.5,118.978,97.318,119.1Zm-39.207-4.038,19.209,12.812,19.2-12.81-19.2-12.8Zm-34.93-9.926q-11.018-7.365-22.053-14.7A2.323,2.323,0,0,1,0,88.31Q.032,77.332,0,66.353a2.324,2.324,0,0,1,1.144-2.117Q12.179,56.9,23.192,49.531a2.192,2.192,0,0,1,2.709.019Q36.88,56.9,47.886,64.212A2.388,2.388,0,0,1,49.047,66.4c-.02,5.67-.009,11.34-.011,17.009a4.566,4.566,0,0,1-.022.54,1.874,1.874,0,0,1-3.731-.031c-.024-.256-.017-.515-.017-.772q0-6.263,0-12.525V69.6c-.377.228-.6.35-.8.488q-8.744,5.83-17.491,11.655a1.112,1.112,0,0,0-.588,1.052c.021,5.541.013,11.082.014,16.623,0,.2.02.4.037.71.255-.142.453-.236.635-.355q4.386-2.893,8.768-5.791c.172-.114.338-.24.518-.337a1.878,1.878,0,0,1,2.468.569,1.92,1.92,0,0,1-.386,2.569c-.1.08-.21.149-.317.221-4.1,2.718-8.207,5.426-12.3,8.16a2.307,2.307,0,0,1-1.292.441A2.423,2.423,0,0,1,23.181,105.139ZM3.808,70.449c0,5.49.007,10.981-.015,16.471a1.242,1.242,0,0,0,.661,1.17q8.694,5.768,17.365,11.569c.211.141.431.268.773.481.027-.338.057-.536.058-.734q0-8.313.011-16.626a1.069,1.069,0,0,0-.545-1Q13.262,75.9,4.424,70c-.16-.107-.341-.183-.579-.309C3.829,70,3.808,70.224,3.808,70.449ZM23.994,53.566q-9.053,6.057-18.119,12.1a5.8,5.8,0,0,0-.481.41L24.52,78.827,43.692,66.042c-.2-.164-.275-.236-.359-.291q-9.157-6.11-18.309-12.226a.856.856,0,0,0-.478-.173A1.006,1.006,0,0,0,23.994,53.566Zm104.751,51.557c-4.044-2.71-8.108-5.39-12.17-8.074a2.01,2.01,0,0,1-1.088-1.744,1.866,1.866,0,0,1,2.793-1.654c.626.354,1.213.78,1.814,1.178q3.673,2.43,7.345,4.862c.21.139.429.264.809.5v-.956c0-5.412-.008-10.825.014-16.237a1.375,1.375,0,0,0-.688-1.319q-8.7-5.759-17.368-11.564c-.21-.14-.429-.266-.763-.473-.017.364-.041.628-.041.894q0,6.3-.006,12.6a4.712,4.712,0,0,1-.1,1.071,1.821,1.821,0,0,1-1.939,1.425,1.886,1.886,0,0,1-1.748-1.671,5.121,5.121,0,0,1-.015-.618c0-5.619.014-11.238-.014-16.856a2.509,2.509,0,0,1,1.226-2.313q10.946-7.263,21.866-14.566a2.067,2.067,0,0,1,2.889.013q10.93,7.286,21.865,14.567a2.418,2.418,0,0,1,1.19,2.241q-.047,10.941,0,21.882a2.359,2.359,0,0,1-1.17,2.173q-10.976,7.29-21.924,14.622a2.526,2.526,0,0,1-1.409.492A2.441,2.441,0,0,1,128.746,105.123Zm21.286-35.009q-8.714,5.808-17.432,11.611a1.179,1.179,0,0,0-.617,1.115c.02,5.516.012,11.032.014,16.548,0,.217.031.434.054.733.277-.162.477-.266.664-.39q8.745-5.83,17.5-11.652a1.3,1.3,0,0,0,.665-1.249c-.023-5.439-.013-10.878-.015-16.316,0-.248-.024-.5-.044-.88C150.492,69.832,150.256,69.965,150.031,70.115Zm-39-4.015L130.12,78.827l19.067-12.718c-.381-.463-18.267-12.446-19.108-12.82C128.691,54.034,111.449,65.615,111.035,66.1ZM94.642,104.353a1.887,1.887,0,0,1-1.336-3.2,3.882,3.882,0,0,1,.6-.482q11.579-8.439,23.159-16.875c.229-.167.453-.343.693-.491a1.923,1.923,0,0,1,2.56.443,1.868,1.868,0,0,1-.363,2.621c-1.2.924-2.447,1.8-3.675,2.694q-10.051,7.323-20.1,14.646a2.477,2.477,0,0,1-1.45.641Zm-35.651-.277c-.177-.1-.343-.228-.509-.349Q46.748,95.181,35.011,86.639a2.055,2.055,0,0,1-1.035-1.777,1.822,1.822,0,0,1,1.916-1.846,2.122,2.122,0,0,1,1.352.542q5.427,3.96,10.859,7.911,6.179,4.5,12.356,9c.249.182.509.354.74.557a1.927,1.927,0,0,1,.283,2.581,1.86,1.86,0,0,1-1.493.739A1.974,1.974,0,0,1,58.991,104.076ZM76.007,56.114c-4-2.676-8.027-5.326-12.041-7.988a5.171,5.171,0,0,1-.682-.5,1.928,1.928,0,0,1-.3-2.405,1.9,1.9,0,0,1,2.387-.67,6.631,6.631,0,0,1,.789.484q4.285,2.836,8.569,5.673c.187.124.387.228.661.388.022-.3.051-.52.051-.738,0-5.516-.005-11.031.013-16.547a1.178,1.178,0,0,0-.608-1.12Q66.125,26.9,57.421,21.08c-.226-.151-.461-.289-.8-.5-.02.412-.044.684-.044.956q0,6.3,0,12.6a6.764,6.764,0,0,1-.027.849,1.87,1.87,0,0,1-3.684.119,5.145,5.145,0,0,1-.059-.923c0-5.541.013-11.083-.018-16.624a2.68,2.68,0,0,1,1.324-2.494Q64.97,7.882,75.784.63c.107-.072.217-.139.323-.213a1.986,1.986,0,0,1,2.441,0c1.58,1.066,3.17,2.118,4.756,3.175,5.764,3.845,11.52,7.7,17.3,11.523a2.56,2.56,0,0,1,1.255,2.374c-.028,5.593-.014,11.186-.014,16.778a5.663,5.663,0,0,1-.013.618A1.908,1.908,0,0,1,100.11,36.6,1.835,1.835,0,0,1,98.14,35.2a3.951,3.951,0,0,1-.1-.993q-.01-6.34-.006-12.68c0-.271-.022-.542-.039-.915-.31.182-.53.3-.736.435q-8.712,5.807-17.43,11.607a1.312,1.312,0,0,0-.653,1.26c.019,5.412.009,10.825.011,16.237,0,.274.024.549.043.969.341-.214.573-.353.8-.5q4.318-2.857,8.634-5.716a2.382,2.382,0,0,1,1.416-.535,1.867,1.867,0,0,1,1.739,1.185,1.836,1.836,0,0,1-.45,2.055,5.187,5.187,0,0,1-.681.5c-4.014,2.662-8.035,5.313-12.04,7.989a2.382,2.382,0,0,1-1.329.459A2.347,2.347,0,0,1,76.007,56.114ZM58.247,17.065l19.074,12.72,19.2-12.805L77.365,4.2C75.878,5,58.657,16.581,58.247,17.065ZM40.009,53.386a1.808,1.808,0,0,1,.87-1.591q1.748-1.272,3.494-2.547,10.081-7.343,20.16-14.687A2.343,2.343,0,0,1,66,33.976a1.812,1.812,0,0,1,1.75,1.153,1.88,1.88,0,0,1-.432,2.07,4.317,4.317,0,0,1-.547.427q-11.733,8.55-23.468,17.1a3.89,3.89,0,0,1-.652.409,1.937,1.937,0,0,1-.808.181A1.861,1.861,0,0,1,40.009,53.386Zm71.834,1.675a3.856,3.856,0,0,1-.453-.293q-11.8-8.6-23.591-17.2a2.808,2.808,0,0,1-.837-.879,1.838,1.838,0,0,1,1.734-2.7,1.985,1.985,0,0,1,1.351.533q3.867,2.824,7.74,5.642l15.545,11.324a8.28,8.28,0,0,1,.676.514,1.888,1.888,0,0,1,.308,2.519,1.837,1.837,0,0,1-1.522.788A2.02,2.02,0,0,1,111.843,55.061Z" transform="translate(0 0)" stroke="rgba(0,0,0,0)" stroke-width="1" fill="url(#linear-gradient)"/>
  </g>
</svg>
