<svg id="Group_16108" data-name="Group 16108" xmlns="http://www.w3.org/2000/svg" xmlns:xlink="http://www.w3.org/1999/xlink" width="137.479" height="154.694" viewBox="0 0 137.479 154.694">
  <defs>
    <linearGradient id="linear-gradient" x1="-0.086" y1="0.344" x2="1" y2="0.895" gradientUnits="objectBoundingBox">
      <stop offset="0" stop-color="#30e6fc"/>
      <stop offset="1" stop-color="#290266"/>
    </linearGradient>
    <clipPath id="clip-path">
      <rect id="Rectangle_5676" data-name="Rectangle 5676" width="137.479" height="154.694" fill="url(#linear-gradient)"/>
    </clipPath>
  </defs>
  <g id="Group_16107" data-name="Group 16107" clip-path="url(#clip-path)">
    <path id="Path_4483" data-name="Path 4483" d="M70.552,0C75.6,1.2,78.923,4.181,80.1,9.319a10.416,10.416,0,0,1-.074,5.071,1.458,1.458,0,0,0,.866,1.908q17.24,9.911,34.427,19.914a1.562,1.562,0,0,0,2.286-.287,11.668,11.668,0,0,1,13-2.171,11.762,11.762,0,0,1-.988,21.79c-2.28.8-2.28.8-2.28,3.182,0,12.46.025,24.92-.031,37.38-.007,1.563.305,2.325,1.99,2.823,5.636,1.669,8.864,7.215,7.956,13.207a11.86,11.86,0,0,1-11.438,9.741,11.493,11.493,0,0,1-8.319-3.326,1.461,1.461,0,0,0-2.086-.222q-17.262,10.024-34.558,19.989a1.449,1.449,0,0,0-.858,1.791c1.465,7.657-2.971,13.894-10.7,14.545a11.538,11.538,0,0,1-12.38-10.608,8.661,8.661,0,0,1,.2-3.59c.406-1.147.092-1.767-.992-2.383-7.289-4.148-14.532-8.375-21.79-12.576-4.129-2.39-8.266-4.766-12.381-7.179a1.319,1.319,0,0,0-1.837.117c-7.682,6.661-17.866,3.209-19.945-6.728A2.91,2.91,0,0,0,0,111.283v-2.412c.966-5.269,3.864-8.833,9.119-10.291,1.065-.3.827-1.133.828-1.838.012-12.961,0-25.922.027-38.883,0-1.166-.258-1.9-1.527-2.155A8.317,8.317,0,0,1,6.228,54.8C2.53,52.812.673,49.57,0,45.539V43.428a4.716,4.716,0,0,0,.171-.575c.774-4.658,3.305-7.967,7.785-9.475a11.228,11.228,0,0,1,11.982,2.6,1.55,1.55,0,0,0,2.217.166q17.05-9.9,34.143-19.722a1.554,1.554,0,0,0,.855-2.062,10.52,10.52,0,0,1-.044-5.214C58.347,4.113,61.653,1.172,66.633,0Zm43.81,41.076c.188-.474-.367-.7-.849-.983q-17.464-10.1-34.92-20.217a1.2,1.2,0,0,0-1.706.172,10.921,10.921,0,0,1-5.01,2.934c-.99.252-1.218.817-1.215,1.744q.037,10.62,0,21.239A1.852,1.852,0,0,0,71.7,47.78q10.566,6.09,21.1,12.23a1.353,1.353,0,0,0,1.53.055q9.634-5.6,19.286-11.161c.511-.3.855-.6.669-1.314a11.776,11.776,0,0,1,.077-6.512M70.676,119.5c0,3.465.024,6.93-.016,10.395-.011.929.206,1.49,1.2,1.735a10.252,10.252,0,0,1,5,2.925,1.158,1.158,0,0,0,1.689.2Q96,124.609,113.478,114.528a1.271,1.271,0,0,0,.741-1.683,10.275,10.275,0,0,1,.059-5.795c.268-.891-.077-1.275-.768-1.672q-9.075-5.211-18.123-10.471a1.954,1.954,0,0,0-2.224.033q-10.591,6.2-21.224,12.328a2.262,2.262,0,0,0-1.285,2.284c.06,3.313.022,6.628.022,9.943m52.836-42.217c0-6.528-.02-13.055.02-19.583.007-1.1-.2-1.757-1.409-2.043a9.143,9.143,0,0,1-4.5-2.617,1.435,1.435,0,0,0-2.087-.207q-9.23,5.394-18.5,10.71A1.951,1.951,0,0,0,95.9,65.452q.039,11.674,0,23.348a2.09,2.09,0,0,0,1.167,2.059q9.346,5.342,18.642,10.771a1.39,1.39,0,0,0,1.963-.227,10.045,10.045,0,0,1,4.39-2.539,1.708,1.708,0,0,0,1.469-2c-.051-6.527-.025-13.055-.025-19.582m-57.222,42.3c0-3.465-.018-6.93.012-10.4a1.981,1.981,0,0,0-1.047-1.974Q54.429,100.97,43.636,94.666a1.581,1.581,0,0,0-1.8,0q-9.045,5.265-18.122,10.475a1.149,1.149,0,0,0-.622,1.588,10.255,10.255,0,0,1,.172,6.08,1.362,1.362,0,0,0,.77,1.814q17.287,9.963,34.542,19.983a1.386,1.386,0,0,0,1.968-.274,9.519,9.519,0,0,1,4.359-2.579,1.656,1.656,0,0,0,1.409-1.922c-.057-3.414-.021-6.83-.021-10.245M13.958,77.221c0,6.583.019,13.166-.02,19.749-.006,1.008.251,1.574,1.288,1.837a9.64,9.64,0,0,1,4.2,2.285,1.63,1.63,0,0,0,2.259.188q8.846-5.171,17.747-10.247a2.2,2.2,0,0,0,1.29-2.146q-.05-12.06-.008-24.121a2.041,2.041,0,0,0-1.062-1.977q-8.716-5.243-17.388-10.56a1.276,1.276,0,0,0-1.915.328,9.878,9.878,0,0,1-4.918,3.072c-1.239.312-1.5.972-1.493,2.143.049,6.482.024,12.965.024,19.447M66.29,35.366c0-3.566-.016-7.132.011-10.7a1.509,1.509,0,0,0-1.227-1.752,10.208,10.208,0,0,1-4.623-2.723,1.327,1.327,0,0,0-1.957-.153C57,20.97,55.46,21.814,53.94,22.694q-14.795,8.562-29.6,17.1c-.994.57-1.361,1.134-1.025,2.252a8.1,8.1,0,0,1,.105,4.319,1.673,1.673,0,0,0,.957,2.083q9.036,5.431,18.031,10.93a1.89,1.89,0,0,0,2.2.028q10.225-5.781,20.5-11.47a2.025,2.025,0,0,0,1.2-2.024c-.041-3.515-.016-7.031-.016-10.547M66.551,91c0-3.616-.015-7.231.011-10.847a1.966,1.966,0,0,0-1.016-1.978Q55.88,72.486,46.267,66.7c-.975-.586-1.3-.429-1.3.719.021,7.231.011,14.462.018,21.693a2.366,2.366,0,0,0,1.206,2.251q9.621,5.621,19.2,11.306c.938.557,1.177.385,1.168-.67-.034-3.665-.013-7.331-.013-11m25.08-12.16c0-3.664-.022-7.328.012-10.992.011-1.172-.259-1.441-1.344-.784q-9.271,5.612-18.588,11.146a1.884,1.884,0,0,0-1.07,1.8Q70.684,91,70.64,102c-.006,1.234.369,1.224,1.277.683q9.248-5.5,18.532-10.944a2.216,2.216,0,0,0,1.2-2.2c-.04-3.563-.016-7.127-.016-10.691M48.251,62.715a2.5,2.5,0,0,0,.386.434c6.4,3.865,12.806,7.712,19.191,11.6a1.6,1.6,0,0,0,1.915-.164C75.61,71,81.475,67.422,87.376,63.9c1.183-.706.975-1.029-.044-1.656q-8.717-5.362-17.366-10.833a2.357,2.357,0,0,0-2.869,0c-3.761,2.311-7.569,4.545-11.357,6.812-2.483,1.486-4.963,2.976-7.488,4.491m84.7,47.411a7.349,7.349,0,0,0-7.244-7.482,7.429,7.429,0,1,0,7.244,7.482m-71.677,32.73a7.319,7.319,0,1,0,7.37-7.347,7.356,7.356,0,0,0-7.37,7.347M4.519,110.114a7.407,7.407,0,0,0,7.358,7.39,7.43,7.43,0,0,0-.1-14.859,7.356,7.356,0,0,0-7.258,7.469m71.392-98.4a7.319,7.319,0,1,0-14.638-.05,7.319,7.319,0,0,0,14.638.05M11.8,37.147a7.323,7.323,0,0,0,.053,14.645A7.323,7.323,0,1,0,11.8,37.147m113.866,0a7.323,7.323,0,1,0-.047,14.646,7.323,7.323,0,0,0,.047-14.646" transform="translate(0 -0.001)" fill="url(#linear-gradient)"/>
  </g>
</svg>
