<svg xmlns="http://www.w3.org/2000/svg" width="150.404" height="53.249"><defs><linearGradient id="prefix__a" x2="1" y2="1" gradientUnits="objectBoundingBox"><stop offset="0" stop-color="#32e4b6"/><stop offset="1" stop-color="#086eb1"/></linearGradient><clipPath id="prefix__b"><path data-name="Rettangolo 6" fill="none" d="M0 0h76.359v31.723H0z"/></clipPath></defs><g data-name="Raggruppa 6"><path data-name="Tracciato 1" d="M45.451 7.8A26.625 26.625 0 007.8 45.451a26.453 26.453 0 0018.826 7.8A26.625 26.625 0 0045.451 7.8M31.969 21.281a7.558 7.558 0 11-10.688 0 7.566 7.566 0 0110.688 0m-13.033-2.345A10.873 10.873 0 1036.45 31.281 15.424 15.424 0 1121.968 16.8a10.819 10.819 0 00-3.032 2.136m15.377 26.5A18.739 18.739 0 103.321 26.163a23.308 23.308 0 0139.786-16.021 23.308 23.308 0 01-15.985 39.785 18.661 18.661 0 007.191-4.49" fill="url(#prefix__a)"/><g data-name="Raggruppa 5"><path data-name="Tracciato 2" d="M81.745 11.097v13.7h-3.879v-13.7h-3.821v31.056h3.821V28.036h3.879v14.117h3.821V11.097z" fill="#fff"/><path data-name="Tracciato 3" d="M91.545 11.096l-3.927 30.921-.017.135h3.409l.875-7.954h3.323l.875 7.954h3.658l-3.945-31.056zm3.3 19.822h-2.603l.944-8.822.339-3.556.339 3.558z" fill="#fff"/><g data-name="Raggruppa 4"><g data-name="Raggruppa 3" clip-path="url(#prefix__b)" fill="#fff" transform="translate(74.045 10.763)"><path data-name="Tracciato 4" d="M32.84 13.361c-1.3-1.3-1.922-2.012-1.922-4.038V5.908c0-1.938.562-2.92 1.671-2.92 1.136 0 1.712.982 1.712 2.92v6.658h3.572V6.033C37.873 2.142 35.996 0 32.589 0c-3.387 0-5.409 2.256-5.409 6.033V9.7a7.527 7.527 0 002.659 6.04l2.542 2.5c1.562 1.478 1.836 2.056 1.836 3.869v3.706c0 1.938-.576 2.92-1.712 2.92-1.45 0-1.754-1.588-1.754-2.92v-6.867h-3.53v6.783c0 3.864 1.876 5.992 5.284 5.992s5.45-2.24 5.45-5.992v-3.623a7.255 7.255 0 00-2.575-6.164z"/><path data-name="Tracciato 5" d="M47.852 14.034h-3.883V.333h-3.821v31.056h3.821V17.272h3.883v14.117h3.821V.333h-3.821z"/><path data-name="Tracciato 6" d="M54.152 31.39h8.9v-3.239h-5.083V17.273h4.581v-3.239h-4.581V3.572h5.081V.333h-8.9z"/><path data-name="Tracciato 7" d="M70.784.333h-5.575v31.056h5.575c3.491 0 5.575-2.24 5.575-5.992V6.362c0-3.834-2.032-6.033-5.575-6.033M69.03 3.276h1.754c1.563 0 1.8 1.856 1.8 2.962v19.243c0 1.106-.233 2.962-1.8 2.962H69.03z"/></g></g></g></g></svg>