<svg xmlns="http://www.w3.org/2000/svg" width="105.86" height="105.86" viewBox="0 0 105.86 105.86">
  <path id="Tracciato_22739" data-name="Tracciato 22739" d="M90.358,15.5A52.931,52.931,0,0,0,15.5,90.358h0a52.589,52.589,0,0,0,37.426,15.5h0A52.931,52.931,0,0,0,90.358,15.5m-26.8,26.8a15.025,15.025,0,1,1-21.249,0,15.042,15.042,0,0,1,21.249,0M37.646,37.646A21.616,21.616,0,1,0,72.463,62.187,30.663,30.663,0,1,1,43.674,33.4a21.508,21.508,0,0,0-6.028,4.247M68.215,90.33A37.254,37.254,0,1,0,6.6,52.013a46.338,46.338,0,0,1,79.1-31.85A46.337,46.337,0,0,1,53.92,99.257a37.1,37.1,0,0,0,14.3-8.926" fill="#fff"/>
</svg>
