<svg id="Group_40672" data-name="Group 40672" xmlns="http://www.w3.org/2000/svg" xmlns:xlink="http://www.w3.org/1999/xlink" width="78.298" height="78.297" viewBox="0 0 78.298 78.297">
  <defs>
    <clipPath id="clip-path">
      <rect id="Rectangle_2" data-name="Rectangle 2" width="78.298" height="78.297" fill="#fff"/>
    </clipPath>
  </defs>
  <g id="Group_2" data-name="Group 2">
    <g id="Group_1" data-name="Group 1" clip-path="url(#clip-path)">
      <path id="Union_2" data-name="Union 2" d="M5.238,58.7A39.14,39.14,0,0,1,19.6,5.238h0A39.148,39.148,0,1,1,5.238,58.7ZM39.185,74.063A34.962,34.962,0,0,0,73.928,42.239a5.824,5.824,0,0,1-2.345,2.487L27.543,70.114a5.847,5.847,0,0,1-2.889.8A35.135,35.135,0,0,0,39.185,74.063ZM21.715,8.9a34.924,34.924,0,0,0-2.175,59.135,5.835,5.835,0,0,1-.828-3.033l.035-50.833a5.878,5.878,0,0,1,8.838-5.1L71.589,34.526a5.821,5.821,0,0,1,2.424,2.666q-.065-1.168-.21-2.336A35,35,0,0,0,56.363,8.772,35.112,35.112,0,0,0,39.114,4.233h0A34.9,34.9,0,0,0,21.715,8.9Zm1.23,56.106a1.571,1.571,0,0,0,.491,1.184,1.722,1.722,0,0,0,1.174.484,1.612,1.612,0,0,0,.819-.231L45.523,54.863c-.088,0-.176.007-.264.007a5.1,5.1,0,0,1-2.568-.7L25.147,44.026a5.078,5.078,0,0,1-2.186-2.489Zm27.48-35.553L50.412,49.72a5.093,5.093,0,0,1-.821,2.8L69.468,41.059a1.657,1.657,0,0,0,0-2.869L49.656,26.732A5.1,5.1,0,0,1,50.425,29.456Zm-5.6-.795L27.267,38.782a.913.913,0,0,0,0,1.581L44.809,50.507a.882.882,0,0,0,.449.131.918.918,0,0,0,.92-.92l.015-20.264a.849.849,0,0,0-.265-.648.969.969,0,0,0-.655-.273h0A.892.892,0,0,0,44.824,28.661ZM22.98,14.176,22.964,37.6a5.079,5.079,0,0,1,2.189-2.486L42.709,24.994a5.113,5.113,0,0,1,2.562-.7q.091,0,.181,0L25.465,12.743a1.613,1.613,0,0,0-.82-.231A1.674,1.674,0,0,0,22.98,14.176Z" transform="translate(0 0)" fill="#fff" stroke="rgba(0,0,0,0)" stroke-width="1"/>
    </g>
  </g>
</svg>
