<svg xmlns="http://www.w3.org/2000/svg" width="33.909" height="33.909" viewBox="0 0 33.909 33.909">
  <g id="Raggruppa_6" data-name="Raggruppa 6" transform="translate(-179.253 -54.271)">
    <path id="Tracciato_1" data-name="Tracciato 1" d="M28.943,4.966A16.955,16.955,0,0,0,4.966,28.943h0a16.845,16.845,0,0,0,11.988,4.966h0A16.955,16.955,0,0,0,28.943,4.966m-8.585,8.586a4.813,4.813,0,1,1-6.806,0,4.818,4.818,0,0,1,6.806,0m-8.3-1.493A6.924,6.924,0,1,0,23.211,19.92,9.822,9.822,0,1,1,13.989,10.7a6.89,6.89,0,0,0-1.931,1.361m9.792,16.876A11.933,11.933,0,1,0,2.115,16.661,14.843,14.843,0,0,1,27.45,6.459,14.843,14.843,0,0,1,17.271,31.794a11.884,11.884,0,0,0,4.579-2.859" transform="translate(179.253 54.271)" fill="#2fdcb6"/>
  </g>
</svg>
