<svg id="Group_3" data-name="Group 3" xmlns="http://www.w3.org/2000/svg" xmlns:xlink="http://www.w3.org/1999/xlink" width="128.978" height="52.861" viewBox="0 0 128.978 52.861">
  <defs>
    <clipPath id="clip-path">
      <rect id="Rectangle_2" data-name="Rectangle 2" width="128.978" height="52.861" fill="none"/>
    </clipPath>
    <linearGradient id="linear-gradient" x1="0.084" y1="0.056" x2="1.274" y2="1.307" gradientUnits="objectBoundingBox">
      <stop offset="0" stop-color="#30e6fc"/>
      <stop offset="1" stop-color="#290266"/>
    </linearGradient>
  </defs>
  <g id="Group_2" data-name="Group 2">
    <g id="Group_1" data-name="Group 1" clip-path="url(#clip-path)">
      <path id="Path_2" data-name="Path 2" d="M354.735,68.763a5.665,5.665,0,0,1-.644,3.018,2.032,2.032,0,0,1-3.327,0,5.668,5.668,0,0,1-.643-3.018V40.94h-3.763V68.718a7.879,7.879,0,0,0,1.564,5.2,6.269,6.269,0,0,0,9.012,0,7.878,7.878,0,0,0,1.564-5.2V40.94h-3.763Z" transform="translate(-260.369 -31.958)" fill="#fff"/>
      <path id="Path_3" data-name="Path 3" d="M424.867,56.208h-4.749V40.94h-3.763V75.508h3.763V59.61h4.749v15.9h3.763V40.94h-3.763Z" transform="translate(-315.009 -31.958)" fill="#fff"/>
      <path id="Path_4" data-name="Path 4" d="M496.188,40.94V61.147L491.722,40.94h-4.136V75.508h3.4v-22.9l5.189,22.9h3.413V40.94Z" transform="translate(-370.613 -31.958)" fill="#fff"/>
      <path id="Union_2" data-name="Union 2" d="M-156.464,9.627a26.424,26.424,0,0,1,9.7-36.091h0A26.315,26.315,0,0,1-133.594-30a26.413,26.413,0,0,1,22.919,13.233,26.427,26.427,0,0,1-9.7,36.092,26.307,26.307,0,0,1-13.173,3.536A26.415,26.415,0,0,1-156.464,9.627ZM-133.546,20A23.553,23.553,0,0,0-121.8,16.849a23.414,23.414,0,0,0,7.023-6.185,23.482,23.482,0,0,0,3.968-8.118,23.711,23.711,0,0,0,.719-4.029A3.932,3.932,0,0,1-111.673.2l-29.732,17.14a3.947,3.947,0,0,1-1.95.537A23.721,23.721,0,0,0-133.546,20ZM-145.34-23.989a23.438,23.438,0,0,0-7.023,6.185,23.494,23.494,0,0,0-3.968,8.119,23.517,23.517,0,0,0-.635,9.014A23.44,23.44,0,0,0-153.988,8.2a23.586,23.586,0,0,0,7.18,7.734,3.939,3.939,0,0,1-.559-2.047l.023-34.319a3.982,3.982,0,0,1,3.982-3.98,3.947,3.947,0,0,1,1.984.54l29.709,17.18a3.93,3.93,0,0,1,1.636,1.8q-.044-.789-.141-1.577a23.4,23.4,0,0,0-2.978-8.871,23.534,23.534,0,0,0-8.8-8.738,23.7,23.7,0,0,0-11.645-3.065h0A23.562,23.562,0,0,0-145.34-23.989Zm.831,37.878a1.061,1.061,0,0,0,.331.8,1.163,1.163,0,0,0,.793.327,1.089,1.089,0,0,0,.553-.156l13.566-7.82c-.059,0-.119,0-.179,0a3.442,3.442,0,0,1-1.733-.472L-143.023-.276a3.428,3.428,0,0,1-1.476-1.68Zm18.553-24-.009,13.681a3.438,3.438,0,0,1-.555,1.889L-113.1-2.28a1.082,1.082,0,0,0,.56-.968,1.08,1.08,0,0,0-.558-.968l-13.377-7.736A3.443,3.443,0,0,1-125.957-10.113Zm-3.782-.536-11.853,6.833a.588.588,0,0,0-.309.534.589.589,0,0,0,.308.534L-129.749,4.1a.6.6,0,0,0,.3.088.62.62,0,0,0,.621-.621l.01-13.681a.573.573,0,0,0-.179-.437.654.654,0,0,0-.442-.184h0A.6.6,0,0,0-129.739-10.65Zm-14.747-9.779L-144.5-4.615a3.429,3.429,0,0,1,1.478-1.678l11.853-6.833a3.452,3.452,0,0,1,1.73-.47l.122,0-13.495-7.8a1.089,1.089,0,0,0-.553-.156A1.13,1.13,0,0,0-144.486-20.429Z" transform="translate(160 30)" stroke="rgba(0,0,0,0)" stroke-width="1" fill="url(#linear-gradient)"/>
      <path id="Path_8" data-name="Path 8" d="M301.673,41.145h-3.763V75.668h9.347v-3.4h-5.585Z" transform="translate(-222.551 -32.118)" fill="#fff"/>
    </g>
  </g>
</svg>
