<svg xmlns="http://www.w3.org/2000/svg" width="89.171" height="89.171" viewBox="0 0 89.171 89.171">
  <g id="Raggruppa_3577" data-name="Raggruppa 3577" transform="translate(-179.253 -54.271)">
    <path id="Tracciato_1" data-name="Tracciato 1" d="M76.112,13.059A44.586,44.586,0,0,0,13.059,76.112h0A44.3,44.3,0,0,0,44.585,89.171h0A44.586,44.586,0,0,0,76.112,13.059M53.535,35.637a12.656,12.656,0,1,1-17.9,0,12.671,12.671,0,0,1,17.9,0M31.711,31.711A18.208,18.208,0,1,0,61.039,52.383a25.829,25.829,0,1,1-24.25-24.25,18.118,18.118,0,0,0-5.077,3.578m25.75,44.379a31.38,31.38,0,1,0-51.9-32.276A39.032,39.032,0,0,1,72.187,16.985,39.032,39.032,0,0,1,45.419,83.608a31.251,31.251,0,0,0,12.042-7.519" transform="translate(179.253 54.271)" fill="#2fdcb6"/>
  </g>
</svg>
