<svg xmlns="http://www.w3.org/2000/svg" xmlns:xlink="http://www.w3.org/1999/xlink" width="20.691" height="38.247" viewBox="0 0 20.691 38.247">
  <defs>
    <linearGradient id="linear-gradient" x2="1" y2="1" gradientUnits="objectBoundingBox">
      <stop offset="0" stop-color="#32e4b6"/>
      <stop offset="1" stop-color="#086eb1"/>
    </linearGradient>
  </defs>
  <g id="Raggruppa_722" data-name="Raggruppa 722" transform="translate(-261.26 -1221.067)">
    <path id="Unione_1" data-name="Unione 1" d="M-2925.2,522.388l-8.359-8.2a1.445,1.445,0,0,1,0-2.07,1.479,1.479,0,0,1,2.088,0l7.314,6.729,7.33-6.729a1.479,1.479,0,0,1,2.088,0,1.451,1.451,0,0,1,0,2.07l-8.366,8.2a1.479,1.479,0,0,1-1.043.426A1.507,1.507,0,0,1-2925.2,522.388Zm0-13-8.359-8.2a1.445,1.445,0,0,1,0-2.07,1.479,1.479,0,0,1,2.088,0l7.314,6.728,7.33-6.728a1.479,1.479,0,0,1,2.088,0,1.451,1.451,0,0,1,0,2.07l-8.366,8.2a1.478,1.478,0,0,1-1.043.427A1.506,1.506,0,0,1-2925.2,509.387Zm0-13-8.359-8.2a1.445,1.445,0,0,1,0-2.07,1.479,1.479,0,0,1,2.088,0l7.314,6.729,7.33-6.729a1.479,1.479,0,0,1,2.088,0,1.451,1.451,0,0,1,0,2.07l-8.366,8.2a1.479,1.479,0,0,1-1.043.426A1.507,1.507,0,0,1-2925.2,496.388Z" transform="translate(3195.76 736)" stroke="rgba(0,0,0,0)" stroke-width="1" fill="url(#linear-gradient)"/>
  </g>
</svg>
