<svg xmlns="http://www.w3.org/2000/svg" width="44.073" height="35.259" viewBox="0 0 44.073 35.259">
  <path id="balance-scale" d="M17.629,23.138h0c0-1.114.092-.6-5.857-12.5a3.308,3.308,0,0,0-5.913,0c-6,12-5.856,11.42-5.856,12.5H0c0,3.042,3.947,5.509,8.815,5.509S17.629,26.181,17.629,23.138Zm-11.9-4.88c.785-1.56,1.792-3.56,3.062-6.136a.075.075,0,0,1,.02,0v0c1.365,2.73,2.412,4.807,3.216,6.4.777,1.541,1.357,2.694,1.759,3.518H3.845c.427-.873,1.049-2.113,1.888-3.779Zm30.628,13.7H23.689V10.738a5.5,5.5,0,0,0,3.746-4.127H36.36a1.1,1.1,0,0,0,1.1-1.1v-1.1a1.1,1.1,0,0,0-1.1-1.1H27.081a5.5,5.5,0,0,0-10.089,0H7.713a1.1,1.1,0,0,0-1.1,1.1v1.1a1.1,1.1,0,0,0,1.1,1.1h8.926a5.5,5.5,0,0,0,3.746,4.127V31.953H7.713a1.1,1.1,0,0,0-1.1,1.1v1.1a1.1,1.1,0,0,0,1.1,1.1H36.36a1.1,1.1,0,0,0,1.1-1.1v-1.1A1.1,1.1,0,0,0,36.36,31.953ZM22.037,7.713a2.2,2.2,0,1,1,2.2-2.2A2.207,2.207,0,0,1,22.037,7.713ZM44.072,23.138c0-1.114.092-.6-5.857-12.5a3.308,3.308,0,0,0-5.913,0c-6,12-5.856,11.42-5.856,12.5h0c0,3.042,3.947,5.509,8.815,5.509s8.815-2.467,8.815-5.509Zm-13.783-1.1c.426-.873,1.049-2.113,1.887-3.779.785-1.56,1.792-3.56,3.062-6.136a.075.075,0,0,1,.02,0v0c1.365,2.73,2.412,4.807,3.216,6.4.777,1.541,1.357,2.694,1.759,3.518Z" fill="#30e6fc"/>
</svg>
