<svg xmlns="http://www.w3.org/2000/svg" xmlns:xlink="http://www.w3.org/1999/xlink" width="35" height="45" viewBox="0 0 35 45">
  <defs>
    <clipPath id="clip-path">
      <rect id="Rectangle_9888" data-name="Rectangle 9888" width="35" height="45" transform="translate(-0.242 0.069)" fill="#30e6fc"/>
    </clipPath>
    <clipPath id="clip-path-2">
      <rect id="Rectangle_9887" data-name="Rectangle 9887" width="31.451" height="43.492" fill="#30e6fc"/>
    </clipPath>
  </defs>
  <g id="Group_28389" data-name="Group 28389" transform="translate(0.202 0.16)">
    <g id="Group_28388" data-name="Group 28388" transform="translate(0.039 -0.229)" clip-path="url(#clip-path)">
      <g id="Group_28387" data-name="Group 28387" transform="translate(1.469 0.944)">
        <g id="Group_28386" data-name="Group 28386" clip-path="url(#clip-path-2)">
          <g id="Group_28385" data-name="Group 28385">
            <g id="Group_28384" data-name="Group 28384" clip-path="url(#clip-path-2)">
              <path id="Path_22648" data-name="Path 22648" d="M93.459,53.9c.306.078.6.157.886.252a7.961,7.961,0,0,1,2.705,1.435,5.775,5.775,0,0,1,1.82,2.789,7.949,7.949,0,0,1,.333,1.95,11.559,11.559,0,0,1-.573,4.4,7.129,7.129,0,0,1-1.88,2.923,8.688,8.688,0,0,1-2.769,1.7,16.46,16.46,0,0,1-3.416.9c-.84.139-1.686.227-2.534.3q-.393.034-.787.047c-.107,0-.135.043-.135.145q0,2.21,0,4.421,0,.976,0,1.953c0,.143,0,.147-.149.147h-3.73c-.159,0-.164,0-.164-.168q0-3.088,0-6.176c0-.037,0-.073,0-.11,0-.074-.029-.107-.1-.1-.1,0-.2,0-.3,0l-2.38-.023c-.1,0-.2-.008-.307-.015-.066,0-.1.023-.091.089,0,.033,0,.066,0,.1q0,3.116,0,6.231c0,.177,0,.178-.172.178H76.034c-.17,0-.17,0-.17-.168q0-3.165,0-6.33c0-.165,0-.163-.169-.166-2.585-.037-5.17-.016-7.755-.022-.172,0-.171,0-.142-.173q.349-2.1.7-4.193c.019-.115.044-.23.058-.346.01-.079.047-.106.123-.1.208.008.416.016.625.016.684,0,1.368.006,2.051,0a2.8,2.8,0,0,0,.534-.05,1.314,1.314,0,0,0,1.035-.95,1.526,1.526,0,0,0,.074-.485q0-8.809,0-17.618a1.97,1.97,0,0,0-1.462-1.9,4.315,4.315,0,0,0-.8-.1c-.475-.027-.949-.029-1.425-.015s-.958.008-1.437.014c-.1,0-.1-.057-.1-.128q0-.609,0-1.218,0-1.4,0-2.8c0-.152,0-.152.152-.152,1.755,0,3.511-.014,5.266.008.676.009,1.351-.025,2.027-.01.186,0,.372-.012.559-.016.065,0,.095-.026.09-.092,0-.033,0-.066,0-.1q0-3.11,0-6.22c0-.172,0-.173.177-.173h3.675c.177,0,.177,0,.177.183q0,3.05,0,6.1c0,.168,0,.169.167.167.658-.008,1.316-.011,1.974-.028.292-.007.585-.008.877-.013.157,0,.157,0,.157-.16q0-3.006,0-6.012c0-.274,0-.237.237-.237h3.631c.174,0,.174,0,.174.176q0,3.121,0,6.242c0,.175,0,.169.175.185.79.072,1.575.176,2.354.324a14.293,14.293,0,0,1,2.962.863,7.655,7.655,0,0,1,2.473,1.616,6.088,6.088,0,0,1,1.668,3.235,9.015,9.015,0,0,1,.148,2.117A6.185,6.185,0,0,1,95.812,51.9a6.271,6.271,0,0,1-2.069,1.832c-.086.049-.173.1-.258.144-.006,0-.009.011-.025.031M80,61.4h0v3.181c0,.369,0,.739,0,1.108,0,.074.016.115.1.114,1.279-.007,2.559.035,3.838-.038a20.416,20.416,0,0,0,2.6-.293,9.061,9.061,0,0,0,2.606-.849,3.991,3.991,0,0,0,1.552-1.356,3.571,3.571,0,0,0,.45-2.627A3.372,3.372,0,0,0,89.661,58.4a6.591,6.591,0,0,0-2.075-.919A15.489,15.489,0,0,0,84.263,57c-.671-.034-1.343-.052-2.016-.035-.7.018-1.4.022-2.094.032C80,57,80,57,80,57.154q0,2.123,0,4.245m0-12.44q0,1.919,0,3.838c0,.092.006.149.126.148,1.195-.008,2.39.038,3.583-.062a14.511,14.511,0,0,0,1.907-.269,6.661,6.661,0,0,0,2.16-.825A3.248,3.248,0,0,0,89.087,50.3a3.632,3.632,0,0,0,.228-1.839,3.119,3.119,0,0,0-1.206-2.2,5.424,5.424,0,0,0-2.022-.944,13.607,13.607,0,0,0-3.113-.391c-.943-.027-1.886,0-2.828.032-.15.005-.151.007-.151.157q0,1.919,0,3.838" transform="translate(-67.769 -33.77)" fill="#30e6fc"/>
            </g>
          </g>
        </g>
      </g>
    </g>
  </g>
</svg>
