<svg xmlns="http://www.w3.org/2000/svg" width="73.495" height="73.499"><defs><linearGradient id="prefix__a" x1="-.03" y1=".041" x2="1" y2="1" gradientUnits="objectBoundingBox"><stop offset="0" stop-color="#32e4b6"/><stop offset="1" stop-color="#086eb1"/></linearGradient></defs><path data-name="Sottrazione 1" d="M35.772 72.5a36.907 36.907 0 01-8.918-1.1A36.747 36.747 0 0123.79 1a36.472 36.472 0 0111.929-2A36.873 36.873 0 0144.632.1a36.746 36.746 0 013.07 70.4 36.494 36.494 0 01-11.93 2zM35.719 1a34.476 34.476 0 00-11.276 1.9A34.566 34.566 0 1035.719 1zm-.345 57.94l-5.863-1.461 1.6-6.42c-.407-.1-.8-.206-1.19-.308l-1.6 6.431-5.858-1.462 1.625-6.526-.088-.023-.065-.017c-.487-.127-1.093-.285-1.675-.431l-6.248-1.558 2.759-6.365.847.23q.959.254 1.578.412v-.017l1.241.308a.955.955 0 00.223.031c.079 0 .24 0 .381-.31L27.4 23.976c.01-.476-.14-.935-1.076-1.17l-.624-.156v-.023c-.366-.092-.994-.243-2.071-.493h-1.19l1.594-6.4 7.345 1.834v.013l.563.131 1.612-6.459 5.861 1.461L37.841 19l1.2.28L40.6 13l5.863 1.461L44.835 21a14.558 14.558 0 015.965 3.726 7.23 7.23 0 011.7 6.074 7.451 7.451 0 01-3.751 5.839 7.43 7.43 0 012.57 3.3 9.037 9.037 0 01-.269 6.312c-1.537 4.391-4.693 6.526-9.65 6.526a26.733 26.733 0 01-4.385-.414zm-3.438-2.918l1.981.494 1.609-6.451.928.176a26.943 26.943 0 004.943.546c4.113 0 6.507-1.6 7.762-5.187 1.385-3.954.451-6.435-3.122-8.3l-2.4-1.253 2.643-.608c2.448-.564 3.836-2.176 4.243-4.93a5.245 5.245 0 00-1.225-4.471c-1.174-1.346-3.128-2.477-5.974-3.457l-.866-.3 1.587-6.363-1.981-.494-1.569 6.276-.97-.242c-1.039-.259-2.12-.506-3.074-.724l-1.044-.234 1.579-6.334-1.98-.494-1.6 6.421-.955-.217c-.865-.2-1.709-.39-2.524-.593l-.967-.24.005-.021-3.473-.867-.556 2.232c.491.116.889.212 1.189.286.239.06.417.106.543.142a2.131 2.131 0 01.219.072 3.33 3.33 0 012.059 1.4 3.135 3.135 0 01.449 1.89l-.005.093-1.855 7.43-.486-.121-.009.028.488.122-2.582 10.35-.026.064a2.414 2.414 0 01-2.261 1.62 2.882 2.882 0 01-.6-.065c-.183-.024-.617-.122-2.142-.521L18.784 45.8l3.96.987c.592.149 1.2.308 1.694.436l.065.017 1.044.271.961.247-1.621 6.511 1.977.493 1.36-5.453.2-1.008 1.037.261c.98.266 2 .53 3.1.806l.971.242zm5.786-8.922a27.908 27.908 0 01-6.736-1.137l-.031-.008c-.264-.069-.512-.135-.721-.187l-.972-.241L31.9 34.954l.97.242c.251.063.569.134.906.21l.035.008a34.182 34.182 0 014.777 1.348 8.537 8.537 0 014.421 3.148 4.532 4.532 0 01.506 3.556c-.415 1.66-1.751 3.634-5.793 3.634zm-6.038-3.021a25.512 25.512 0 006.038 1.021 5.4 5.4 0 002.743-.582 2.361 2.361 0 001.111-1.54 2.511 2.511 0 00-.268-2.022c-1.3-2.107-5.781-3.112-7.935-3.6h-.014zm7.8-9.807A21.946 21.946 0 0134 33.349c-.248-.066-.451-.12-.626-.164l-.972-.241 2.437-9.775.971.243c.2.05.448.1.735.169l.053.012c2.148.475 6.137 1.359 7.662 3.823a4.344 4.344 0 01.471 3.412 4.163 4.163 0 01-1.847 2.619 6.335 6.335 0 01-3.404.829zM34.823 31.5a19.163 19.163 0 004.657.777c2.535 0 3.1-1.1 3.31-1.931a2.33 2.33 0 00-.231-1.876c-1.054-1.7-4.486-2.5-6.259-2.893z" transform="translate(1 1)" fill="url(#prefix__a)"/></svg>