<svg xmlns="http://www.w3.org/2000/svg" width="35.264" height="35.264" viewBox="0 0 35.264 35.264">
  <path id="Tracciato_222" data-name="Tracciato 222" d="M23.954,10.949l-9.324-.321L14.31,1.305A1.126,1.126,0,0,0,13.238.234L11.166.162a.954.954,0,0,0-1,1l.321,9.324-9.324-.321a.954.954,0,0,0-1,1l.071,2.072A1.126,1.126,0,0,0,1.305,14.31l9.324.321.321,9.324a1.126,1.126,0,0,0,1.072,1.072l2.072.071a.954.954,0,0,0,1-1l-.321-9.324,9.324.321a.954.954,0,0,0,1-1l-.071-2.072A1.126,1.126,0,0,0,23.954,10.949Z" transform="translate(17.632 -0.229) rotate(45)" fill="#fff"/>
</svg>
