<svg xmlns="http://www.w3.org/2000/svg" xmlns:xlink="http://www.w3.org/1999/xlink" width="46.5" height="62" viewBox="0 0 46.5 62">
  <defs>
    <linearGradient id="linear-gradient" x1="-0.229" y1="-0.172" x2="0.527" y2="1.029" gradientUnits="objectBoundingBox">
      <stop offset="0" stop-color="#30e6fc"/>
      <stop offset="1" stop-color="#290266"/>
    </linearGradient>
  </defs>
  <path id="file-alt" d="M34.875,30.031v3.391a1.457,1.457,0,0,1-1.453,1.453H13.078a1.457,1.457,0,0,1-1.453-1.453V30.031a1.457,1.457,0,0,1,1.453-1.453H33.422A1.457,1.457,0,0,1,34.875,30.031ZM33.422,38.75H13.078A1.457,1.457,0,0,0,11.625,40.2v3.391a1.457,1.457,0,0,0,1.453,1.453H33.422a1.457,1.457,0,0,0,1.453-1.453V40.2A1.457,1.457,0,0,0,33.422,38.75ZM46.5,15.972V56.188A5.814,5.814,0,0,1,40.688,62H5.813A5.814,5.814,0,0,1,0,56.188V5.813A5.814,5.814,0,0,1,5.813,0H30.528a5.813,5.813,0,0,1,4.105,1.707l10.16,10.16A5.792,5.792,0,0,1,46.5,15.972ZM31,6.285V15.5h9.215L31,6.285Zm9.688,49.9V21.313H28.094a2.9,2.9,0,0,1-2.906-2.906V5.813H5.813V56.188Z" fill="url(#linear-gradient)"/>
</svg>
