<svg xmlns="http://www.w3.org/2000/svg" xmlns:xlink="http://www.w3.org/1999/xlink" width="28.196" height="27.501" viewBox="0 0 28.196 27.501">
  <defs>
    <linearGradient id="linear-gradient" x2="0.939" y2="1" gradientUnits="objectBoundingBox">
      <stop offset="0" stop-color="#32e4b6"/>
      <stop offset="1" stop-color="#086eb1"/>
    </linearGradient>
  </defs>
  <path id="Tracciato_22740" data-name="Tracciato 22740" d="M14.1,0A14.1,14.1,0,0,0,9.64,27.474c.7.123.969-.3.969-.67,0-.335-.018-1.445-.018-2.626-3.542.652-4.459-.864-4.74-1.657A5.126,5.126,0,0,0,4.406,20.53c-.493-.264-1.2-.916-.018-.934a2.821,2.821,0,0,1,2.168,1.445A3.013,3.013,0,0,0,10.662,22.2a2.966,2.966,0,0,1,.9-1.886c-3.137-.352-6.415-1.568-6.415-6.961A5.487,5.487,0,0,1,6.591,9.569a5.066,5.066,0,0,1,.141-3.736s1.181-.37,3.877,1.445a13.292,13.292,0,0,1,7.049,0c2.7-1.833,3.877-1.445,3.877-1.445a5.066,5.066,0,0,1,.141,3.736,5.455,5.455,0,0,1,1.445,3.789c0,5.41-3.3,6.608-6.432,6.961a3.339,3.339,0,0,1,.952,2.608c0,1.886-.018,3.4-.018,3.877,0,.37.264.811.969.67A14.106,14.106,0,0,0,14.1,0Z" fill-rule="evenodd" fill="url(#linear-gradient)"/>
</svg>
