<svg xmlns="http://www.w3.org/2000/svg" width="31.135" height="17.652" viewBox="0 0 31.135 17.652">
  <g id="Group_716" data-name="Group 716" transform="translate(0 0)">
    <path id="Path_140" data-name="Path 140" d="M-4174.021-2791.406a8.831,8.831,0,0,1,8.824,8.835,8.688,8.688,0,0,1-2.617,6.248,8.7,8.7,0,0,1-6.212,2.569,8.7,8.7,0,0,1-6.233-2.6,8.679,8.679,0,0,1-2.59-6.227A8.83,8.83,0,0,1-4174.021-2791.406Z" transform="translate(4182.85 2791.406)" fill="#fff"/>
    <path id="Path_141" data-name="Path 141" d="M-1882.089-2729.605c-.014.34-.017.68-.042,1.021-.034.47-.085.938-.163,1.4a12.608,12.608,0,0,1-.529,2.1,8.564,8.564,0,0,1-1,2.035,4.827,4.827,0,0,1-1.184,1.241,2.91,2.91,0,0,1-1.177.51,2.5,2.5,0,0,1-1.445-.173,3.458,3.458,0,0,1-.989-.651,5.855,5.855,0,0,1-1.134-1.475,10.375,10.375,0,0,1-1.031-2.766,13.821,13.821,0,0,1-.247-1.4c-.04-.319-.066-.64-.088-.961-.028-.423-.035-.846-.026-1.269q.009-.395.039-.789c.024-.321.056-.641.1-.96a13.817,13.817,0,0,1,.294-1.511,11.164,11.164,0,0,1,.487-1.486,7.887,7.887,0,0,1,.97-1.748,4.711,4.711,0,0,1,.962-.974,2.933,2.933,0,0,1,1.314-.568,2.425,2.425,0,0,1,1.02.064,3.132,3.132,0,0,1,1.1.569,5.19,5.19,0,0,1,1.177,1.346,8.9,8.9,0,0,1,.855,1.8,12.7,12.7,0,0,1,.548,2.189q.09.556.135,1.117c.027.337.047.674.049,1.012C-1882.1-2729.818-1882.085-2729.712-1882.089-2729.605Z" transform="translate(1909.453 2738.475)" fill="#fff"/>
    <path id="Path_142" data-name="Path 142" d="M-693.49-2623.7c0,.277.006.554,0,.831q-.016.578-.049,1.156c-.019.334-.046.669-.077,1a18.728,18.728,0,0,1-.4,2.577,6.192,6.192,0,0,1-.462,1.366,1.643,1.643,0,0,1-.307.445.439.439,0,0,1-.692,0,1.649,1.649,0,0,1-.3-.432,5.39,5.39,0,0,1-.368-.995,13.565,13.565,0,0,1-.32-1.523c-.064-.4-.113-.8-.154-1.194q-.043-.41-.071-.82c-.029-.411-.052-.823-.066-1.235-.006-.178-.006-.356-.013-.534-.011-.274-.013-.548-.01-.822,0-.3.006-.591.017-.886.011-.332.026-.664.047-1,.03-.462.068-.923.12-1.383a18.655,18.655,0,0,1,.292-1.852,7.983,7.983,0,0,1,.413-1.4,2.677,2.677,0,0,1,.283-.526,1.108,1.108,0,0,1,.183-.2.415.415,0,0,1,.574-.014,1.049,1.049,0,0,1,.214.236,3.047,3.047,0,0,1,.339.686,9.685,9.685,0,0,1,.412,1.565c.059.308.108.618.151.93s.079.612.106.919c.025.286.051.573.074.859.015.188.027.377.033.566.007.22.015.441.024.662C-693.484-2624.372-693.491-2624.034-693.49-2623.7Z" transform="translate(724.623 2632.519)" fill="#fff"/>
  </g>
</svg>
