<svg data-name="Componente 7 – 2" xmlns="http://www.w3.org/2000/svg" width="194.799" height="151.092"><path data-name="Tracciato 22663" d="M122.852 39.782a4.416 4.416 0 015.526-4.554 1.457 1.457 0 001.531-.474c.329-.354.249-.489-.025-.823-1.7-2.07-1.836-4.233-.423-6.023s3.591-2.2 5.958-1.132a2.9 2.9 0 00.307.088c.251-.838.516-1.517-.468-2.226a3.836 3.836 0 01-1.423-3.289c.006-.621-.216-.754-.807-.778a4.542 4.542 0 01-4.754-3.891 2.1 2.1 0 00-1.535-1.673 7.915 7.915 0 01-2.324-1.271 2.929 2.929 0 00-.3-.241c-.189.182-.028.321.085.463.569 2.913 0 4.613-1.941 5.769-1.742 1.04-1.818 1.311-.858 3.068a4.5 4.5 0 01-3.011 6.618 2.2 2.2 0 00-1.428.825 4.472 4.472 0 01-4.821 1.392 4.385 4.385 0 01-3.169-4.133 1.675 1.675 0 00-.93-1.725 4.334 4.334 0 01-1.746-5.363c.289-.732.271-1.006-.562-1.279a4.455 4.455 0 01-3.085-4.978 4.576 4.576 0 014-3.784 4.5 4.5 0 014.886 3.239 4.3 4.3 0 01-.191 3.053c-.108.264-.543.673.011.851.427.137.929.618 1.386.116a5.51 5.51 0 012.378-1.593c.119-.039.284-.213.278-.316-.067-1.186.806-2.181.307-3.546a4.213 4.213 0 012.665-5.343c.283-.117.561-.249.841-.374a5.1 5.1 0 014.179 1.549c.388.439.589.088.8-.177a4.418 4.418 0 017.194-.05c.211.3.533.264.819.359a4.531 4.531 0 013.277 3.432 3.186 3.186 0 00.768 1.515 3.866 3.866 0 011.069 2.972c-.041.528.033.82.723.842 3.332.108 4.808 1.687 4.886 5.349 1.029-2.09 2.515-3.19 4.73-3.057a4.553 4.553 0 013.853 2.6 4.268 4.268 0 01-.432 4.391 1.368 1.368 0 00-.067 1.93c.136.549-.1 1.379.6 1.536a13.768 13.768 0 012.206.5.443.443 0 00.661-.4 4.9 4.9 0 014.458-3.1c3.059.592 4.567 2.287 4.4 5a4.215 4.215 0 01-2.016 3.355c-.57.375-.647.7-.245 1.2a.5.5 0 01.125.194c.3 1.788 1.4 2.726 3.018 3.531 1.673.835 2.165 2.965 1.635 4.9-.095.346-.453.733.13.963.368.145.719.56 1.158.2.347-.286.723-.533.546-1.142a4.53 4.53 0 015.791-5.639c.6.2.95-.173 1.38-.387 2.42-1.208 5.257-.148 6.654 2.492a4.527 4.527 0 01-1.822 6.121 4.444 4.444 0 01-4.331.112c-.206-.1-.411-.195-.62-.286-.026-.011-.069.017-.141.038.069.67.153 1.347.2 2.027.03.391.265.468.592.575a3.573 3.573 0 003.515-.363 4.383 4.383 0 016.537 2.746c.073.255.142.512.269.97a5.266 5.266 0 012.457-2.957 4.425 4.425 0 013.593-.232 4.5 4.5 0 01-1.363 8.756c-2.492.071-4.1-1.354-4.831-4.348a10.757 10.757 0 00-1.15 3.239 4.069 4.069 0 01-3.3 3.493 4.244 4.244 0 01-4.663-1.573 1.512 1.512 0 00-1.59-.73 4.447 4.447 0 01-4.581-3.9c-.043-.394.188-.948-.3-1.155a8.03 8.03 0 00-1.987-.567c-.381-.053-.27.4-.245.633a4.853 4.853 0 01-1.638 4.252 8.111 8.111 0 002.371 1.169 4.143 4.143 0 012.8 1.914c.247.395.388.633.952.262 2.1-1.384 4.276-1.3 5.872.129 1.678 1.5 1.944 3.383.823 5.811-.032.07-.05.145-.1.3.5.147 1 .273 1.486.443a4.517 4.517 0 013.029 4.484c-.067 1.438-.067 1.438 1.365 1.4a5.188 5.188 0 013.685 2.609 5.374 5.374 0 010 3.509 4.439 4.439 0 01-3.874 2.869 4.073 4.073 0 01-4.073-1.9c-.5-.8-.892-.589-1.431-.29-.786.434 0 .769.13 1.1.248.642.63 1.232.935 1.854a4.925 4.925 0 01-.48 4.942 5.248 5.248 0 01-5.893 1.183c-1.969-1.279-2.45-3.485-3.3-5.4a8.856 8.856 0 01-1.154 1.016 1.379 1.379 0 00-.649 1.811 4.124 4.124 0 01-.975 3.562c-.507.662-1.588.884-1.808 1.518s.561 1.428.61 2.263c.124 2.119-.87 3.586-2.815 4.713a7.57 7.57 0 012.459.125c.913.378 1.022 0 1.019-.813-.011-2.762 1.616-4.482 4.435-4.776a2.759 2.759 0 00-.167.429 7.038 7.038 0 01-2.695 4.581 1.436 1.436 0 00-.09 2.308 2.981 2.981 0 01.807 2.463c-.217 1.394.591 1.87 1.693 2.144.559.139 1.136.209 1.7.31a3.207 3.207 0 01-2.983.142c-.932-.378-1.284.154-1.544.814a18.656 18.656 0 00-.553 1.986c-.326.324-.633.671-.984.965-.384.322-.356.593-.06.969a4.535 4.535 0 01-3.352 7.285 4.432 4.432 0 01-4.175-2.247 4.343 4.343 0 01.694-5.44c.466-.5.407-.743.114-1.335a10.449 10.449 0 00-2.2-2.876 4.414 4.414 0 01-.62-5.177c.144-.277.592-.537.278-.9a1.029 1.029 0 00-1.173-.211 4.942 4.942 0 01-2.611.283 4.476 4.476 0 01-2.74-7.27c.113-.15.228-.3.332-.434-.145-.361-.471-.308-.7-.394a4.361 4.361 0 01-3.017-4.577 4.281 4.281 0 013.361-4.08c.971-.212.964-.464.7-1.323a4.243 4.243 0 011.563-4.859 1.231 1.231 0 00.549-1.42 4.54 4.54 0 013.1-4.987 4.637 4.637 0 015.4 2.111 4.55 4.55 0 01-1.163 5.755c-.35.282-.735.457-.687 1.078.178 2.3.084 2.526-1.242 4.387a1.888 1.888 0 002.974-.445c.162-.239.055-.432-.016-.65a4.391 4.391 0 01.279-3.27 4.912 4.912 0 00.306-1.114 4.408 4.408 0 015.834-3.642c1.319.455 2.492-.193 3.728-.015a.546.546 0 00.817.09 1.017 1.017 0 00-.781-.135 7.05 7.05 0 01-2.507-1.579c-.257-.326-.628-.215-.971-.215-2.615 0-4.193-1.412-4.771-3.967a4.87 4.87 0 00-2.046-3.324 3.82 3.82 0 01-1.4-1.665 4.392 4.392 0 011.23-5.416c.635-.561.528-.991.046-1.547-1.271-1.465-2.934-1.7-4.725-1.567a1.243 1.243 0 00-.323-1.588c-1.1-1-1.147-2.384-1.07-3.9a6.721 6.721 0 01-2.569 1.108c.221.284.358.463.5.64a4.377 4.377 0 01.5 5.182 4.551 4.551 0 01-8.384-1.2c-.053-.185-.075-.379-.111-.568.018-.451-.344-.665-.592-.951a4.512 4.512 0 011.334-7.163c.221-.118.549-.114.632-.44-.892-.557-.911-.56-2.725-.473a4.327 4.327 0 014.392-3.671 3.046 3.046 0 002.423-.7 2.509 2.509 0 011.348-.617c1.176-.143.9-.7.556-1.419a2.553 2.553 0 00-2.188-1.654 4.1 4.1 0 01-3.547-3.5c-.158-.68-.394-1.018-1.127-.94a2.979 2.979 0 01-1.331-.356c-.367-.138-.851-.544-1.079.051a1.022 1.022 0 00.276 1.352 4.155 4.155 0 011.478 1.751 4.545 4.545 0 01-8.042 4.221c-.137-.227-.269-.456-.434-.737l-.763.944a4.984 4.984 0 01-4.689.947 4.5 4.5 0 00-2.461-4.369c-2.263-1.162-4.343-.519-6.2 1.863" fill="#bdbdbd" opacity=".5"/><path data-name="Tracciato 22664" d="M98.452 72.231a5.16 5.16 0 01-1.874 2.293c-.769.523-1.829.452-2.5 1.269 2.037-.783 3.94-.752 5.59.743a3.87 3.87 0 011.357 3.414 7.584 7.584 0 00-4.671-1.391c-2.755.024-5.511.014-8.266.017a4.866 4.866 0 01-2.8-5.558c.81-.021 1.626.006 2.431-.074a6 6 0 005.159-3.2A8.873 8.873 0 0090.44 58.56c1.737-.349 2.971.633 4.245 1.788a4.963 4.963 0 011.99-4.055c-.371-.24-.583 0-.812.106-2.821 1.314-5.288.385-6.556-2.485a1.646 1.646 0 00-.7-.877 3.371 3.371 0 01-1.415-1.651c-.335-.77-.685-.935-1.487-.515a4.211 4.211 0 01-4.8-.479 4.354 4.354 0 01-1.645-4.547c.075-.392.21-.734-.212-1.028-.5-.35-.693.168-.965.344a4.387 4.387 0 01-5.12.106 1.155 1.155 0 00-1.6.042 4.494 4.494 0 01-6.445-1.055c-.345-.5-.374-1.437-.918-1.472s-1.141.548-1.715.858a2.04 2.04 0 00-.213.091 1.018 1.018 0 00-.006 1.743 4.437 4.437 0 011.746 5.406c-.135.379-.267.663.065 1.042 1.643 1.872 1.515 3.855.288 5.88a4.389 4.389 0 01-3.5 1.676c.258-.537.83-.887.991-1.649h-4.772c-.852-1.506-1.336-3.054-.48-4.728.214-.417-.056-.638-.273-.908a4.194 4.194 0 01-.938-4c.21-.7-.047-1.046-.711-1.3-2.989-1.158-3.654-2.187-3.531-5.392a1.607 1.607 0 00-.39-.933 4.532 4.532 0 01.9-5.97 4.59 4.59 0 016.223.359 2.129 2.129 0 002.227-.087c.216-.263-.015-.434-.119-.6a4.948 4.948 0 01-.137-4.877 5.809 5.809 0 012.255-1.835 4.993 4.993 0 014.157.3 6.337 6.337 0 011.883 2.582c.64 2.194-.288 3.816-1.839 5.229-1.877.706-1.877.706-.766 2.833 1.973-1.576 4.04-1.863 6.176-.351.377.267.613.153.912-.082a4.411 4.411 0 015.579-.3c.376.245.574.171.9-.078a4.337 4.337 0 015.3-.325 4.29 4.29 0 011.991 4.913.808.808 0 00.241.929c.36.293.636.1.953-.051a4.548 4.548 0 016.333 1.988c.6 1.069 1.676 1.821 1.966 3.1.1.458.418.078.635-.009l.259-.183-.019.011a4.718 4.718 0 013.245-.321c1.727.657 3.632 1.038 4.852 2.642 1.221 3.028.869 4.489-1.652 6.446-.379.294-.271.46-.107.733-2.906.169-5.537.937-6.913 3.788-1.4 2.907-1.523 8.357 2.446 10.876" fill="#bdbdbd" opacity=".5"/><path data-name="Tracciato 22665" d="M71.448 111.19a4.131 4.131 0 012.427-4.148 4.286 4.286 0 014.8.445.831.831 0 001.2-.012 4.026 4.026 0 012.967-.759c.66.09.946-.187 1.274-.7a4.31 4.31 0 015.767-1.685c1.462.894 3.092 1.339 4.55 2.193a16.256 16.256 0 013.963 3.651 3.979 3.979 0 01.32 4.591 1.878 1.878 0 00-.2 1.528 4.4 4.4 0 01-2.233 5.407c-.519.286-.854.471-.628 1.195a4.056 4.056 0 01-1.372 4.492 4.66 4.66 0 01-5.177.947 1.859 1.859 0 00-1.658.15c-1.451.541-1.941 1.147-1.95 2.951-.017 3.56-4.118 5.485-7.312 3.285a6.071 6.071 0 00-1.65-3c.047-2.9.771-3.941 3.523-5.01.321-.125.594-.2.48-.612-.651-2.37.349-4.077 2.321-5.456-1.952-.9-4.25-.913-5.49-2.886a4.894 4.894 0 01-.24-3.917 1.467 1.467 0 00-.583-1.983 4.839 4.839 0 00-5.1-.666m18.159 6.476a5.421 5.421 0 01.708-2.307c.125-.231.372-.489.037-.7-.951-.6-1.923-1.163-2.887-1.742a5.643 5.643 0 01.782 4.905c-.311.154-.628.3-.932.464a4.54 4.54 0 00-2.082 5.583 4.548 4.548 0 008.809-1.587c.012-2.49-1.456-4.018-4.435-4.616" fill="#bdbdbd" opacity=".5"/><path data-name="Tracciato 22666" d="M56.894 57.827h4.772c-.161.762-.733 1.112-.991 1.649a47.277 47.277 0 00-3.155 4.118c-.3.207-.208.434-.063.7 1.513 2.723 3.018 5.45 4.639 8.38l2.524-8.1a19.8 19.8 0 001.119-3.389 9.824 9.824 0 00.559-1.621 1.8 1.8 0 012.339-1.724 13.6 13.6 0 003.112 0c1.048-.1 1.769.14 2.056 1.221.615 2.671 1.645 5.211 2.453 7.821.615 1.985 1.28 3.955 1.979 6.106-1.739 0-3.378-.009-5.018 0-.591.005-.512-.432-.606-.792-.543-2.088-.548-2.086-2.743-2.086a4.129 4.129 0 01-.58 0c-.943-.135-1.421.135-1.6 1.2-.282 1.693-.384 1.676-2.142 1.676-2.788 0-5.577-.019-8.365.014a1.2 1.2 0 01-1.317-.8c-.732-1.614-1.56-3.185-2.353-4.781a3.882 3.882 0 00-1.351 3.266c.116 2.3.032 2.3-2.327 2.3-.736 0-1.474-.032-2.207.01-.574.033-.807-.1-.8-.746q.043-6.8 0-13.591c0-.691.239-.835.865-.813 1.2.043 2.4.053 3.6 0 .694-.032.954.134.922.882-.062 1.468-.018 2.941-.018 4.776l3.36-4.79c.33-.469.619-1 1.337-.89m12.229 7.885c-.157.359-.5.864.075 1.006a3.027 3.027 0 001.912-.064c.353-.172-.137-.894-.138-1.386 0-.136-.124-.273-.191-.409a10.168 10.168 0 00-.81-3.05l-.847 3.9" fill="#fcfcfc" opacity=".5"/><path data-name="Tracciato 22667" d="M134.63 137.425a4.424 4.424 0 01-4.39-5.3 2.453 2.453 0 00-.213-1.557 4.351 4.351 0 01.294-4.419 2.217 2.217 0 00.3-1.261c.083-2.108.15-4.246 1.465-6.068a1.767 1.767 0 00.351-.587 4.827 4.827 0 013.524-3.921c.4-.119.419-.535.576-.825a4.57 4.57 0 018.643 1.551 4.552 4.552 0 01-2.85 4.613c-1.337.545-1.545 1.911-2.227 2.91a3.665 3.665 0 00-.518 2.223 1.32 1.32 0 01-.213.888c-1.153 1.251-.5 2.863-.9 4.255-.124.424.2.722.357 1.068a4.517 4.517 0 01-4.193 6.427" fill="#bdbdbd" opacity=".5"/><path data-name="Tracciato 22668" d="M99.145 93.759c.106 1.068-.422 2.052-.495 3.037-.07.955 1.279 1.479 1.63 2.5a4.675 4.675 0 01-1.486 5.221 4.609 4.609 0 01-5.513.067 4.353 4.353 0 01-1.48-5.277c.522-1.1-.32-1.294-.742-1.811a.246.246 0 00-.451.087c-.262.759-.9 1.311-.987 2.193a4.239 4.239 0 01-4.1 3.841c-.911.032-1.666.537-2.585.555a4.5 4.5 0 01-4.434-6.386c.072-.178.126-.363.187-.545.615-.565 1.11-1.357 1.926-1.576a2.1 2.1 0 001.676-1.853 6.406 6.406 0 011.951-.1c2.28-.016 2.28-.006 2.392-2.205l1.366.235c.02.461.048.923.057 1.384.006.3.074.567.424.562a36.321 36.321 0 004.722-.085 16.646 16.646 0 00.145-3.431 1.672 1.672 0 01.006-.346c.115-.378-.33-1 .447-1.09.585-.066 1.1-.068 1.414.642.415.95 1.037 1.811 1.431 2.768a2.134 2.134 0 002.5 1.611" fill="#bdbdbd" opacity=".5"/><path data-name="Tracciato 22669" d="M146.155 94.791a4.024 4.024 0 013.172 2.7 4.362 4.362 0 01-.853 4.857c-.869.987-.888.971.3 1.349a4.626 4.626 0 013.4 4.7 4.715 4.715 0 01-3.925 4.3 4.612 4.612 0 01-4.968-2.988c-.248-.608-.419-.752-1.06-.416a4.5 4.5 0 01-6.6-5.294 4.49 4.49 0 014.422-3.117c.648-.038.731-.2.626-.833-.478-2.886 1.637-5.288 5.485-5.265" fill="#bdbdbd" opacity=".5"/><path data-name="Tracciato 22670" d="M15.195 93.71c-1.894 0-3.555-.026-5.214.015-.541.013-.74-.266-.948-.663-.642-1.232-1.376-2.421-1.931-3.69-.355-.812-.948-.692-1.525-.627-.692.077-.325.675-.342 1.021a40.99 40.99 0 00-.01 3.136c.014.536-.034.859-.726.826-1.275-.06-2.556-.037-3.833-.007-.509.012-.662-.156-.661-.661q.024-6.913 0-13.826c0-.606.277-.679.779-.675 2.711.021 5.422 0 8.133.027a6.98 6.98 0 013.112.805c3.291 1.665 2.856 6.911.112 8.2a6.936 6.936 0 00-.606.363l3.661 5.76m-8.432-11.3c-1.547 0-1.547 0-1.547 1.249 0 1.5 0 1.5 1.534 1.493.385 0 .771-.016 1.154-.05a1.088 1.088 0 001.064-1.14c.1-1.191-.4-1.549-2.2-1.553" fill="#fcfcfc" opacity=".5"/><path data-name="Tracciato 22671" d="M99.147 93.759a2.134 2.134 0 01-2.5-1.611c-.394-.957-1.017-1.818-1.432-2.768-.31-.709-.829-.708-1.414-.642-.777.088-.332.712-.447 1.09a1.666 1.666 0 00-.006.346 16.651 16.651 0 01-.145 3.431 36.319 36.319 0 01-4.722.085c-.35.005-.418-.261-.424-.562-.009-.461-.037-.923-.057-1.384q0-.21.005-.42v-11.9l.091-.851c2.755 0 5.511.007 8.266-.017a7.585 7.585 0 014.671 1.391l.877.988c.127.364.263.724.378 1.092a5.022 5.022 0 01-1.354 5.1c-1.213 1.006-1.215 1.008-.335 2.306.128.189.287.358.432.536l2.265 3.784zm-4.267-8.6c.826-.1 1.836.233 2.158-.89a1.332 1.332 0 00-.582-1.7 6.118 6.118 0 00-3.029.04.194.194 0 00-.047.1 7.031 7.031 0 00.06 2.169c.2.576.971.14 1.441.286" fill="#fcfcfc" opacity=".5"/><path data-name="Tracciato 22672" d="M90.444 58.556a8.873 8.873 0 012.438 11.185 6 6 0 01-5.159 3.2c-.805.08-1.621.052-2.431.074-1.7-.009-3.4-.062-5.1-.008-.808.026-1.036-.2-1.029-1.019.028-3.363-.021-6.727-.042-10.091.02-1 .11-2 .041-2.988-.063-.9.279-1.1 1.113-1.069 1.339.055 2.684-.012 4.026-.028 2.069.074 4.163-.052 6.146.739m-5.908 6.834c0 1.045-.006 2.089 0 3.133 0 .289-.076.59.377.712a2.556 2.556 0 003.311-2.137 10.734 10.734 0 00.047-2.889c-.269-2.056-1.046-2.7-3.081-2.532-.488.04-.68.195-.666.7.028 1 .008 2.011.008 3.017" fill="#fcfcfc" opacity=".5"/><path data-name="Tracciato 22673" d="M31.12 65.476c-.03 5.033-2.824 7.768-7.9 7.73-4.761-.036-7.537-2.971-7.5-7.93.034-4.783 3.015-7.707 7.817-7.669s7.612 2.961 7.583 7.869m-9.916-.085a8.325 8.325 0 00.254 2.293 1.989 1.989 0 002.162 1.539 1.956 1.956 0 001.85-1.768 9.72 9.72 0 00.008-4.033 1.915 1.915 0 00-1.865-1.737 1.972 1.972 0 00-2.161 1.524 8.579 8.579 0 00-.244 2.179" fill="#fcfcfc" opacity=".5"/><path data-name="Tracciato 22674" d="M98.452 72.231c-3.969-2.519-3.85-7.969-2.446-10.876 1.376-2.851 4.008-3.619 6.913-3.788a12.629 12.629 0 014.329 1.038 7.427 7.427 0 013.271 5.575 10.806 10.806 0 01-.937 5.731 9.172 9.172 0 01-2.746 2.574c-.131.015-.271.018-.277.2l.013-.018a13.235 13.235 0 01-6.489.264l-1.631-.7m2.236-7.827a3.653 3.653 0 00-.07 1.607 15.043 15.043 0 00.279 1.694 2.009 2.009 0 003.878.074 5.734 5.734 0 00.272-2.261 5.488 5.488 0 00-.265-2.392c-.225-.683-.544-1.29-1.4-1.318-1.749-.316-2.42.331-2.7 2.6" fill="#fcfcfc" opacity=".5"/><path data-name="Tracciato 22675" d="M16.181 86.098c0-2.206.025-4.413-.015-6.618-.012-.691.153-.939.9-.932 3.638.038 7.277.032 10.915 0 .608 0 .776.17.8.772.134 3.15.151 3.15-2.934 3.15-1.2 0-2.4.044-3.6-.015-.817-.04-.722.452-.721.962s-.109.994.714.96a36.847 36.847 0 014.294.006c1.709.13.53 1.477.76 2.224.144.47.509 1.471-.795 1.4-1.389-.074-2.787.02-4.179-.032-.718-.027-.819.287-.807.894.011.573.037.939.786.921 1.934-.047 3.871.012 5.805-.03.721-.016 1.01.13 1.013.942.012 3 .046 3-2.98 3s-6.038-.02-9.057.015c-.693.008-.932-.153-.915-.893.052-2.243.019-4.489.019-6.734" fill="#fcfcfc" opacity=".5"/><path data-name="Tracciato 22676" d="M113.772 84.363c.264.348.7.2 1.046.37 1.45.707 2.631 1.593 2.757 3.374a4.676 4.676 0 01-2.133 4.661c-.386.245-.8.439-1.207.657a12.7 12.7 0 01-3.288.485 15.843 15.843 0 01-6.4-1.252c-1.349-.963-1.349-.963-.375-2.857a2.326 2.326 0 00.331-.472c.4-1.052.914-1.081 1.878-.5a7.926 7.926 0 004.658 1.151c.429-.029.941-.018 1.044-.533.129-.643-.492-.74-.892-.848-1.117-.3-2.271-.472-3.384-.786-1.749-.493-3.4-1.146-3.905-3.191a6.286 6.286 0 01.191-2.971 6.62 6.62 0 014.1-3.1 14.423 14.423 0 018.829 1.2c.8.5.929 1.053.268 1.812a6.605 6.605 0 00-1.041 1.649c-.3.672-.67.682-1.2.342a6.647 6.647 0 00-4.923-1.2c-.317.042-.743.115-.717.6.02.389.356.455.661.528l3.706.892" fill="#fcfcfc" opacity=".5"/><path data-name="Tracciato 22677" d="M86.632 91.509c-.112 2.2-.112 2.19-2.392 2.206a6.414 6.414 0 00-1.951.1c-2.453-.171-4.907-.1-7.362-.04-.887.049-1.2-.252-1.187-1.247.076-4.334.051-8.67.015-13.006-.006-.757.19-.978.961-.969q5.283.063 10.568 0c.784-.009 1.139.163 1.051 1.013a15.245 15.245 0 00.022 1.853l-.07 1.063c-2.039 0-4.082.055-6.118-.03-1-.041-1.224.311-1 1.178-.194.682.189.748.734.744 1.684-.012 3.368.01 5.052.019l-.015-.016c0 .929-.038 1.86.012 2.787.036.675-.219.869-.866.852-1.432-.038-2.867.019-4.3-.024-.748-.023-.664.432-.67.9s-.045.914.684.893c1.972-.057 3.945-.059 5.917-.083.239.305.644.011.9.25z" fill="#fcfcfc" opacity=".5"/><path data-name="Tracciato 22678" d="M.014 65.472c0-2.243-.007-4.487.006-6.73 0-.378-.187-.9.544-.881 2.938.066 5.887-.189 8.812.12 3.379.356 5.1 2.27 5.021 5.348-.075 3.095-1.966 4.938-5.365 5.179a24.678 24.678 0 01-2.9.024c-.633-.03-.788.2-.763.792.042.965-.023 1.935.023 2.9.03.625-.206.8-.8.78a58.896 58.896 0 00-3.829 0c-.647.026-.77-.227-.763-.8.027-2.243.011-4.487.011-6.73m5.368-2.3c0 1.626 0 1.626 1.157 1.625 1.808 0 2.548-.483 2.516-1.633-.03-1.116-.733-1.423-2.619-1.542-1.449-.092-.988.847-1.054 1.551" fill="#fcfcfc" opacity=".5"/><path data-name="Tracciato 22679" d="M70.039 138.174a4.676 4.676 0 01-5.442-2.261c-.533-.879-1.419-.179-2.1-.407a7.191 7.191 0 00-.842-2.28 10.4 10.4 0 001.109-.073c1.032-.182 1.889-.418 1.824-1.85a3.426 3.426 0 011.41-2.812 1.157 1.157 0 00.337-1.6c-.915-2.221-3.3-3.206-6.017-2.454.477-3.626 4.441-4.839 7.841-2.324a5.1 5.1 0 012.233-3.465 4.923 4.923 0 005.636.55c1.564 1.928 1.759 4.13.476 5.852a4.385 4.385 0 01-3.421 1.892 5.756 5.756 0 01-3.833-1.34c.324.591-1.117 1.5.289 1.681a4.922 4.922 0 014.067 3.34 4.639 4.639 0 00-3.566 7.543" fill="#bdbdbd" opacity=".5"/><path data-name="Tracciato 22680" d="M43.12 93.71c1.6-4.964 3.143-9.762 4.682-14.562a.734.734 0 01.828-.594c1.741.032 3.483.042 5.224 0 .574-.015.724.3.859.712q2.2 6.754 4.407 13.508c.229.7.174 1.051-.7.954-.65-.072-1.314-.008-1.972-.016a5.685 5.685 0 01-2.393-.122c-.61-.327-.448-1.387-.652-2.114-.152-.544-.386-.675-.875-.64-.347.025-.7 0-1.044 0-2.21 0-2.218 0-2.83 2.1-.154.528-.353.826-1.009.8-1.461-.066-2.928-.021-4.527-.021m8-11.025c-.345 1.454-.53 2.562-.882 3.614-.3.906-.2 1.312.845 1.168a7.4 7.4 0 01.926-.009c.2 0 .448-.028.374-.286a26.438 26.438 0 00-1.264-4.487" fill="#fcfcfc" opacity=".5"/><path data-name="Tracciato 22681" d="M172.774 106.188c-.569-.1-1.146-.171-1.7-.31-1.1-.274-1.91-.75-1.693-2.143a2.981 2.981 0 00-.808-2.463 1.436 1.436 0 01.09-2.308 7.038 7.038 0 002.695-4.581 2.785 2.785 0 01.167-.428c.44-.509 1.207-.773 1.283-1.549a6.206 6.206 0 01.892-2.472 5.248 5.248 0 005.893-1.183c2.857 2.1 3.111 4.882.647 7.45a1.7 1.7 0 00-.425 1.019 4.59 4.59 0 01-2.24 3.345c-.354.212-.673.362-.718.914-.22 2.693-1.231 3.852-3.795 4.523a1.08 1.08 0 00-.284.187" fill="#e2e2e2" opacity=".5"/><path data-name="Tracciato 22682" d="M60.317 124.444c2.716-.753 5.1.232 6.017 2.454a1.157 1.157 0 01-.337 1.6 3.425 3.425 0 00-1.414 2.807c.065 1.431-.792 1.668-1.824 1.85a10.343 10.343 0 01-1.109.073 7.177 7.177 0 01.842 2.281c-.107 3.025-1.6 4.853-4.136 5.075a4.532 4.532 0 01-.949-9.014c.3-.041.615-.035 1.021-.056a5.324 5.324 0 01-.724-3.977 5.057 5.057 0 012.612-3.087" fill="#d2d2d2" opacity=".5"/><path data-name="Tracciato 22683" d="M64.378 84.673c.856-1.918 1.665-3.663 2.407-5.436a.921.921 0 011.02-.683q1.855.055 3.713 0c.725-.02.78.19.449.788-1.157 2.09-2.186 4.257-3.433 6.29a9.808 9.808 0 00-1.5 6.022c.139 2.046.03 2.053-1.987 2.053-.89 0-1.78-.021-2.669.008-.486.016-.736-.12-.658-.644.017-.114-.011-.234 0-.347a11.852 11.852 0 00-2.073-8.184c-1.078-1.682-1.9-3.529-2.876-5.276-.348-.62-.147-.714.438-.706 1.276.018 2.554.035 3.829-.008.567-.019.78.222 1.012.7.834 1.736 1.6 3.5 2.328 5.417" fill="#fcfcfc" opacity=".5"/><path data-name="Tracciato 22684" d="M116.18 57.815c2.859.017 5.718.079 8.575.024.952-.018 1.14.288 1.127 1.167-.044 2.785-.009 2.786-2.843 2.786-1.99 0-2 0-1.988 1.994 0 1.119.028 2.239.044 3.358-.015 1.622-.063 3.245-.031 4.866.015.719-.141 1.045-.944 1a32.053 32.053 0 00-3.477 0c-.761.039-.985-.206-.973-.969.043-2.821.017-5.643.017-8.464 0-1.782 0-1.782-1.747-1.782-3.01 0-2.987 0-2.948-3.028.009-.694.169-.942.9-.918 1.427.046 2.857-.014 4.287-.03" fill="#fcfcfc" opacity=".5"/><path data-name="Tracciato 22685" d="M29.915 29.218a4.413 4.413 0 012.261-4.5 4.325 4.325 0 015.015.28c.54.4.872.172 1.344-.041a4.4 4.4 0 014.983.679 4.266 4.266 0 011.356 4.638 4.417 4.417 0 01-3.832 3.28 4.255 4.255 0 01-3.172-.841c-.349-.245-.627-.494-1.125-.207a4.451 4.451 0 01-4.834-.13 5.588 5.588 0 00-2-3.162" fill="#bdbdbd" opacity=".5"/><path data-name="Tracciato 22686" d="M116.18 57.815c-1.429.016-2.859.076-4.286.03-.734-.024-.894.224-.9.918-.039 3.029-.062 3.028 2.948 3.028 1.747 0 1.747 0 1.747 1.782 0 2.821.026 5.643-.017 8.464-.012.763.213 1.008.973.969a32.052 32.052 0 013.477 0c.8.046.959-.279.944-1-.033-1.621.016-3.244.031-4.866a4.37 4.37 0 011.842 4.935 4.65 4.65 0 01-4.364 3.361 4.552 4.552 0 01-4.424-3.428c-.2-.812-.464-.883-1.222-.825a4.021 4.021 0 01-3.342-1.275 10.807 10.807 0 00.937-5.731 7.426 7.426 0 00-3.271-5.575 4.531 4.531 0 014.3-4.463 4.369 4.369 0 014.627 3.673" fill="#bdbdbd" opacity=".5"/><path data-name="Tracciato 22687" d="M30.557 86.052c0-2.2.032-4.41-.018-6.614-.017-.738.216-.924.918-.888a24.287 24.287 0 003.363-.007c.989-.087 1.119.334 1.106 1.181-.045 3.017.012 6.035-.037 9.051-.013.81.2 1.054 1.021 1.023 1.7-.064 3.4.007 5.106-.032.667-.015.832.214.845.863.058 3.081.079 3.08-3 3.08-2.824 0-5.648-.018-8.472.014-.641.007-.858-.149-.845-.825.043-2.282.017-4.564.017-6.847" fill="#fcfcfc" opacity=".5"/><path data-name="Tracciato 22688" d="M32.946 65.393c0-2.207.027-4.416-.015-6.622-.013-.7.166-.959.9-.922a31.409 31.409 0 003.6 0c.783-.05.869.28.864.93-.026 3.1.018 6.2-.032 9.294-.013.83.242 1.046 1.039 1.018 1.663-.058 3.331.017 5-.034.729-.022.9.228.9.925.028 3.013.051 3.013-2.963 3.013-2.711 0-5.424-.047-8.133.024-1 .026-1.216-.292-1.184-1.234.074-2.128.023-4.26.023-6.39" fill="#fcfcfc" opacity=".5"/><path data-name="Tracciato 22689" d="M84.298 57.814c-1.342.015-2.687.082-4.026.027-.834-.034-1.176.168-1.113 1.069.069.99-.021 1.991-.041 2.988-2.064-.319-2.756-.992-3.988-3.885-.478.305-.728.9-1.323 1.045-.287-1.08-1.008-1.325-2.056-1.22a13.6 13.6 0 01-3.112 0 1.8 1.8 0 00-2.339 1.724 9.83 9.83 0 01-.559 1.621 5.062 5.062 0 00-1.014-3.033 3.146 3.146 0 011.554-.976c.647-.21.751-.469.626-1.164a4.462 4.462 0 014.314-5.187c2.449-.063 3.784 1.01 4.792 3.853 2.621-1.849 4-2.165 5.806-1.224a4.32 4.32 0 012.478 4.365" fill="#bdbdbd" opacity=".5"/><path data-name="Tracciato 22690" d="M37.562 42.49a4.873 4.873 0 014.5 1.9 2.817 2.817 0 001.075.651 4.34 4.34 0 012.51 4.238 4.289 4.289 0 01-2.857 4 4.207 4.207 0 01-4.811-.934 9.59 9.59 0 00-1.928-1.429 4.275 4.275 0 01-2.242-3.691c.019-2.556 1.478-3.969 3.756-4.732" fill="#929292" opacity=".5"/><path data-name="Tracciato 22691" d="M104.544 92.658a15.842 15.842 0 006.4 1.253 12.7 12.7 0 003.289-.485 9.414 9.414 0 00-1.756 3.545 2.044 2.044 0 01-.91 1.315 3.06 3.06 0 00-1.3 2.2c-1.994 3.5-5.715 3.686-8.262.412a4.646 4.646 0 011.483-5.978c.684-.549.48-1.606 1.051-2.262" fill="#bdbdbd" opacity=".5"/><path data-name="Tracciato 22692" d="M53.364 24.297a4.6 4.6 0 01-4.714 1.806 4.364 4.364 0 01-3.421-3.122 4.55 4.55 0 016.287-5.4 4.5 4.5 0 012.651 4.392c-.011.192-.038.384-.056.574l-.747 1.752" fill="#e2e2e2" opacity=".5"/><path data-name="Tracciato 22693" d="M112.304 9.13a4.6 4.6 0 01-4.459-4.587 4.56 4.56 0 119.119.055 4.681 4.681 0 01-4.66 4.532" fill="#bdbdbd" opacity=".5"/><path data-name="Tracciato 22694" d="M70.039 138.173a4.64 4.64 0 013.566-7.543 6.751 6.751 0 012.93 1.089 6.071 6.071 0 011.65 3c-.157 2.641-1.145 4.131-3.213 4.815a4.558 4.558 0 01-4.933-1.363" fill="#d2d2d2" opacity=".5"/><path data-name="Tracciato 22695" d="M145.155 134.367a4.632 4.632 0 01-4.552-4.485 4.727 4.727 0 014.6-4.592 4.539 4.539 0 11-.046 9.077" fill="#bdbdbd" opacity=".5"/><path data-name="Tracciato 22696" d="M73.323 146.545a4.549 4.549 0 114.456 4.546 4.541 4.541 0 01-4.456-4.546" fill="#bdbdbd" opacity=".5"/><path data-name="Tracciato 22697" d="M28.475 43.424c-3.321-.624-4.69-3.284-3.473-6.753 1.681-2.383 3.971-2.983 6.376-1.669a4.949 4.949 0 012.208 3.27 4.654 4.654 0 01-5.111 5.152" fill="#929292" opacity=".5"/><path data-name="Tracciato 22698" d="M122.855 39.781c1.855-2.381 3.935-3.025 6.2-1.863a4.5 4.5 0 012.461 4.369 4.908 4.908 0 01-2.88 3.919c-3.181.67-5.523-.624-6.143-3.381a5.743 5.743 0 01.364-3.044" fill="#929292" opacity=".5"/><path data-name="Tracciato 22699" d="M53.364 24.297l.747-1.752c1.5-1.647 3.266-2.451 5.476-1.636a4.475 4.475 0 012.674 5.664c-.108.328-.224.654-.336.981a5.8 5.8 0 00-2.256 1.835c-2.989 1.158-6.594-.972-6.3-5.092" fill="#929292" opacity=".5"/><path data-name="Tracciato 22700" d="M188.379 76.675a5.189 5.189 0 00-3.685-2.609 5.232 5.232 0 01.008-3.873 6.7 6.7 0 011.332-1.6c2.368-1.779 5.034-1.175 7.053 1.615.657 2.96.061 4.68-2.036 5.9a4.981 4.981 0 01-2.672.559" fill="#e2e2e2" opacity=".5"/><path data-name="Tracciato 22701" d="M76.027 119.206a4.922 4.922 0 01-5.636-.55c-2.179-3.053-1.9-5.033 1.058-7.466a4.841 4.841 0 015.1.667 1.468 1.468 0 01.583 1.983 4.9 4.9 0 00.239 3.917l-1.341 1.449" fill="#d2d2d2" opacity=".5"/><path data-name="Tracciato 22702" d="M157.05 55.977c1.791-.131 3.454.1 4.725 1.567.482.556.589.986-.046 1.547a4.392 4.392 0 00-1.23 5.417 4.62 4.62 0 01-4.843-.336 4.292 4.292 0 01-1.843-4.356 4.355 4.355 0 013.023-3.636l.226-.211z" fill="#929292" opacity=".5"/><path data-name="Tracciato 22703" d="M158.936 26.65a4.9 4.9 0 00-4.458 3.1 5.06 5.06 0 01-3.471-1.64 1.368 1.368 0 01.067-1.93 4.267 4.267 0 00.432-4.391c1.757-1.243 3.591-1.616 5.518-.413 1.767 1.1 2.378 2.841 1.912 5.279" fill="#e2e2e2" opacity=".5"/><path data-name="Tracciato 22704" d="M31.379 35.005c-2.4-1.314-4.7-.714-6.376 1.669a4.267 4.267 0 01-1.826-5.278 4.4 4.4 0 015.343-2.712 13.07 13.07 0 011.4.536 5.592 5.592 0 012 3.162 7.674 7.674 0 01-.534 2.622" fill="#e2e2e2" opacity=".5"/><path data-name="Tracciato 22705" d="M66.125 35.663c1.551-1.412 2.479-3.034 1.839-5.229a6.335 6.335 0 00-1.882-2.582 4.343 4.343 0 015.351.438 4.555 4.555 0 01-3.446 7.964 5.842 5.842 0 01-1.861-.591" fill="#d2d2d2" opacity=".5"/><path data-name="Tracciato 22706" d="M28.475 43.419a4.654 4.654 0 005.111-5.152 4.406 4.406 0 013.976 4.218c-2.278.763-3.737 2.176-3.756 4.732-3.07.1-4.582-.979-5.331-3.8" fill="#d2d2d2" opacity=".5"/><path data-name="Tracciato 22707" d="M109.537 105.732a4.89 4.89 0 01-.213 2.143 4.634 4.634 0 01-4.835 3 4.5 4.5 0 01-2.8-7.617 5 5 0 001.986 3.011c1.787 1.178 3.612 1.021 5.866-.535" fill="#929292" opacity=".5"/><path data-name="Tracciato 22708" d="M104.09 81.649a6.285 6.285 0 00-.191 2.971c.5 2.046 2.156 2.7 3.905 3.192 1.113.314 2.267.483 3.384.786.4.109 1.021.205.892.848-.1.516-.615.5-1.044.533a7.924 7.924 0 01-4.657-1.151c-.965-.579-1.477-.551-1.878.5a2.321 2.321 0 01-.331.472.5.5 0 00-.769-.216 4.591 4.591 0 01-2.376.388c-.145-.178-.3-.346-.432-.535-.88-1.3-.878-1.3.335-2.306a5.022 5.022 0 001.354-5.1c-.115-.367-.252-.728-.378-1.092a5.932 5.932 0 012.187.711" fill="#bdbdbd" opacity=".5"/><path data-name="Tracciato 22709" d="M109.537 105.732c-2.254 1.556-4.079 1.713-5.866.535a5 5 0 01-1.986-3.011 5.116 5.116 0 01.325-2.358c2.547 3.274 6.268 3.088 8.262-.413 1.016 1.926.467 3.632-.735 5.246" fill="#e2e2e2" opacity=".5"/><path data-name="Tracciato 22710" d="M128.635 46.207a4.908 4.908 0 002.88-3.918 4.985 4.985 0 004.689-.947 4.443 4.443 0 01-1.574 5.852 4.516 4.516 0 01-5.995-.987" fill="#e2e2e2" opacity=".5"/><path data-name="Tracciato 22711" d="M193.087 70.212c-2.019-2.79-4.684-3.394-7.053-1.615a6.7 6.7 0 00-1.332 1.6 4.371 4.371 0 011.495-5.235 4.6 4.6 0 015.414-.01 4.4 4.4 0 011.476 5.264" fill="#bdbdbd" opacity=".5"/><path data-name="Tracciato 22712" d="M128.12 5.96a5.062 5.062 0 00-3.932 1.866c-.21.265-.41.617-.8.177a5.1 5.1 0 00-4.179-1.549 4.593 4.593 0 014.381-3.909 4.494 4.494 0 014.529 3.415" fill="#d2d2d2" opacity=".5"/><path data-name="Tracciato 22713" d="M144.242 46.616c1.814-.088 1.834-.084 2.726.473-.084.326-.411.322-.632.44a4.512 4.512 0 00-1.334 7.163c.247.287.609.5.592.952a4.635 4.635 0 01-4.933-3.931c-.394-2.176 1.01-4.175 3.582-5.1" fill="#e2e2e2" opacity=".5"/><path data-name="Tracciato 22714" d="M163.293 118.351a4.535 4.535 0 003.352-7.285c-.3-.376-.323-.647.06-.969.351-.295.658-.641.984-.965 2.366 1.31 3.445 3.5 2.523 5.669-1.042 2.446-3.076 4.447-5.981 3.952a1.636 1.636 0 01-.938-.4" fill="#d2d2d2" opacity=".5"/><path data-name="Tracciato 22715" d="M117.018 79.747a14.422 14.422 0 00-8.829-1.2 4.569 4.569 0 014.679-3.193 4.65 4.65 0 014.15 4.393" fill="#bdbdbd" opacity=".5"/><path data-name="Tracciato 22716" d="M86.288 82.479l.071-1.063c.56-.65.815-1.554 1.639-1.987q0 5.947.005 11.9a4.788 4.788 0 01-1.379-1.371c-.257-.239-.662.055-.9-.25.685-1.09.226-2.324.435-3.474.232-.488.776-.9.474-1.527a5.746 5.746 0 01-.343-2.223" fill="#bdbdbd" opacity=".5"/><path data-name="Tracciato 22717" d="M74.928 93.77c2.454-.057 4.908-.13 7.362.04a2.1 2.1 0 01-1.675 1.853c-.817.219-1.312 1.011-1.927 1.576a4.438 4.438 0 01-3.76-3.469" fill="#d2d2d2" opacity=".5"/><path data-name="Tracciato 22718" d="M104.678 50.388c-1.22-1.6-3.125-1.986-4.852-2.643a4.719 4.719 0 00-3.245.321c.926-2.042 4.08-2.646 6.143-1.162a4.4 4.4 0 011.955 3.483" fill="#d2d2d2" opacity=".5"/><path data-name="Tracciato 22719" d="M100.461 107.031a4.516 4.516 0 004.029 3.842 4.634 4.634 0 004.834-3 4.454 4.454 0 01-8.863-.845" fill="#e2e2e2" opacity=".5"/><path data-name="Tracciato 22720" d="M113.771 84.363l-3.706-.892c-.305-.073-.641-.139-.661-.528-.025-.481.4-.555.717-.6a6.647 6.647 0 014.923 1.2c-.288.485-.918.434-1.273.813" fill="#bdbdbd" opacity=".5"/><path data-name="Tracciato 22721" d="M100.083 72.935a13.234 13.234 0 006.489-.264 4.188 4.188 0 01-6.489.264" fill="#bdbdbd" opacity=".5"/><path data-name="Tracciato 22722" d="M157.061 55.969l-.226.21.226-.21" fill="#bdbdbd" opacity=".5"/><path data-name="Tracciato 22723" d="M106.559 72.688c.006-.186.146-.189.277-.2-.04.138-.119.225-.277.2" fill="#bdbdbd" opacity=".5"/><path data-name="Tracciato 22724" d="M96.6 48.056l-.259.183c.052-.11.073-.263.259-.183" fill="#d2d2d2" opacity=".5"/><path data-name="Tracciato 22725" d="M124.202 13.958c-.113-.142-.273-.28-.085-.463a2.891 2.891 0 01.3.241l-.216.222" fill="#272727" opacity=".5"/><path data-name="Tracciato 22726" d="M64.181 57.8l.546.35a5.062 5.062 0 011.014 3.033 19.8 19.8 0 01-1.119 3.388c-.3-.336-.538-.067-.8.085-2.42 1.432-4.488 1.082-6.306-1.062a47.337 47.337 0 013.155-4.118 4.386 4.386 0 003.5-1.676" fill="#e2e2e2" opacity=".5"/><path data-name="Tracciato 22727" d="M89.607 117.667c2.979.6 4.447 2.126 4.434 4.616a4.548 4.548 0 11-6.727-4c.3-.166.621-.31.932-.464l1.36-.156" fill="#d2d2d2" opacity=".5"/><path data-name="Tracciato 22728" d="M69.122 65.713l.847-3.9a10.171 10.171 0 01.81 3.05 3.97 3.97 0 01-1.657.852" fill="#bdbdbd" opacity=".5"/><path data-name="Tracciato 22729" d="M94.878 85.159c-.47-.146-1.244.29-1.441-.286a7.033 7.033 0 01-.06-2.169.193.193 0 01.047-.1 6.118 6.118 0 013.029-.04 1.332 1.332 0 01.582 1.7c-.323 1.124-1.332.786-2.158.89" fill="#bdbdbd" opacity=".5"/><path data-name="Tracciato 22730" d="M84.536 65.391c0-1.006.02-2.012-.008-3.017-.014-.5.179-.655.666-.7 2.035-.168 2.812.476 3.081 2.532a10.745 10.745 0 01-.047 2.889 2.555 2.555 0 01-3.311 2.137c-.454-.123-.375-.424-.378-.712-.01-1.044 0-2.089 0-3.133" fill="#bdbdbd" opacity=".5"/><path data-name="Tracciato 22731" d="M105.046 65.518a5.737 5.737 0 01-.272 2.261 2.009 2.009 0 01-3.878-.074 15.086 15.086 0 01-.279-1.694 5.539 5.539 0 014.429-.493" fill="#bdbdbd" opacity=".5"/><path data-name="Tracciato 22732" d="M103.383 61.809a4.094 4.094 0 01-2.7 2.6c.275-2.265.947-2.912 2.7-2.6" fill="#bdbdbd" opacity=".5"/><path data-name="Tracciato 22733" d="M86.157 86.23c-.208 1.15.25 2.384-.435 3.474-1.972.023-3.945.025-5.916.083-.729.021-.69-.407-.684-.893s-.078-.926.67-.9c1.432.043 2.866-.014 4.3.024.647.017.9-.177.866-.852-.05-.927-.013-1.858-.012-2.787.682.437.847 1.212 1.214 1.856" fill="#929292" opacity=".5"/><path data-name="Tracciato 22734" d="M79.173 83.628c2.427-1.145 4.364-.89 5.786.762-1.684-.009-3.368-.031-5.052-.018-.544 0-.927-.062-.734-.744" fill="#929292" opacity=".5"/></svg>