<svg xmlns="http://www.w3.org/2000/svg" width="134.48" height="104.307" viewBox="0 0 134.48 104.307">
  <g id="Raggruppa_3643" data-name="Raggruppa 3643" transform="translate(-942.58 -839.347)">
    <path id="Tracciato_22663" data-name="Tracciato 22663" d="M455.132,48.973a3.049,3.049,0,0,1,3.815-3.144A1.006,1.006,0,0,0,460,45.5c.227-.244.172-.337-.017-.568-1.176-1.429-1.267-2.922-.292-4.158A3.214,3.214,0,0,1,463.809,40a2,2,0,0,0,.212.061c.173-.579.356-1.047-.323-1.537a2.648,2.648,0,0,1-.982-2.271c0-.429-.149-.52-.557-.537a3.135,3.135,0,0,1-3.282-2.686,1.452,1.452,0,0,0-1.06-1.155,5.464,5.464,0,0,1-1.6-.877,2.024,2.024,0,0,0-.208-.166c-.13.126-.019.222.058.32.393,2.011,0,3.185-1.34,3.983-1.2.718-1.255.9-.592,2.118a3.107,3.107,0,0,1-2.079,4.569,1.522,1.522,0,0,0-.986.569,3.087,3.087,0,0,1-3.328.961,3.027,3.027,0,0,1-2.188-2.853,1.156,1.156,0,0,0-.642-1.191,2.992,2.992,0,0,1-1.206-3.7c.2-.506.187-.695-.388-.883a3.075,3.075,0,0,1-2.13-3.437,3.159,3.159,0,0,1,2.759-2.612,3.106,3.106,0,0,1,3.373,2.236,2.968,2.968,0,0,1-.132,2.108c-.074.182-.375.465.008.588.295.095.641.427.957.08a3.8,3.8,0,0,1,1.641-1.1c.082-.027.2-.147.192-.218-.046-.819.556-1.506.212-2.448a2.909,2.909,0,0,1,1.84-3.688c.2-.081.387-.172.58-.258a3.52,3.52,0,0,1,2.885,1.069c.268.3.407.061.551-.123a3.05,3.05,0,0,1,4.966-.034c.146.2.368.182.566.248a3.128,3.128,0,0,1,2.262,2.369,2.2,2.2,0,0,0,.53,1.046,2.669,2.669,0,0,1,.738,2.052c-.029.365.023.566.5.582,2.3.074,3.319,1.165,3.373,3.693a3.231,3.231,0,0,1,3.265-2.11,3.143,3.143,0,0,1,2.66,1.792,2.946,2.946,0,0,1-.3,3.031.944.944,0,0,0-.046,1.333c.094.379-.067.952.417,1.06a9.505,9.505,0,0,1,1.523.345.306.306,0,0,0,.456-.273,3.382,3.382,0,0,1,3.078-2.137c2.112.409,3.153,1.579,3.035,3.451a2.91,2.91,0,0,1-1.392,2.316c-.393.259-.447.484-.169.83a.343.343,0,0,1,.086.134,3.244,3.244,0,0,0,2.083,2.438,2.832,2.832,0,0,1,1.129,3.385c-.065.239-.313.506.09.665.254.1.5.387.8.137.239-.2.5-.368.377-.789a3.127,3.127,0,0,1,4-3.893c.412.135.656-.119.953-.268a3.441,3.441,0,0,1,4.593,1.721,3.125,3.125,0,0,1-1.258,4.226,3.068,3.068,0,0,1-2.99.077c-.142-.067-.284-.135-.428-.2-.018-.008-.048.012-.1.026.048.463.106.93.141,1.4.021.27.183.323.409.4a2.467,2.467,0,0,0,2.426-.25,3.026,3.026,0,0,1,4.513,1.9c.051.176.1.353.186.67a3.635,3.635,0,0,1,1.7-2.042,3.055,3.055,0,0,1,2.48-.16,3.106,3.106,0,0,1-.941,6.044c-1.72.049-2.831-.934-3.335-3a7.426,7.426,0,0,0-.794,2.236,2.809,2.809,0,0,1-2.282,2.412,2.93,2.93,0,0,1-3.219-1.091,1.044,1.044,0,0,0-1.1-.5,3.07,3.07,0,0,1-3.163-2.693c-.03-.272.13-.654-.209-.8a5.544,5.544,0,0,0-1.372-.392c-.263-.037-.186.274-.169.437a3.35,3.35,0,0,1-1.131,2.935,5.6,5.6,0,0,0,1.637.807,2.86,2.86,0,0,1,1.93,1.322c.17.272.268.437.657.181a3.173,3.173,0,0,1,4.053.089c1.158,1.034,1.342,2.336.568,4.012-.022.048-.035.1-.071.205.342.1.689.188,1.026.306a3.118,3.118,0,0,1,2.091,3.1c-.046.993-.046.993.942.963a3.582,3.582,0,0,1,2.544,1.8,3.71,3.71,0,0,1,0,2.423,3.065,3.065,0,0,1-2.674,1.981,2.812,2.812,0,0,1-2.812-1.314c-.344-.553-.616-.406-.988-.2-.542.3,0,.531.09.756.171.443.435.85.645,1.28a3.4,3.4,0,0,1-.331,3.412,3.623,3.623,0,0,1-4.068.817c-1.359-.883-1.691-2.406-2.277-3.727a6.112,6.112,0,0,1-.8.7.952.952,0,0,0-.448,1.25,2.847,2.847,0,0,1-.673,2.459c-.35.457-1.1.61-1.248,1.048s.387.986.421,1.562a3.329,3.329,0,0,1-1.944,3.254,5.226,5.226,0,0,1,1.7.087c.63.261.706,0,.7-.561a3.09,3.09,0,0,1,3.062-3.3,1.9,1.9,0,0,0-.116.3,4.859,4.859,0,0,1-1.86,3.163.991.991,0,0,0-.062,1.593,2.058,2.058,0,0,1,.557,1.7c-.15.962.408,1.291,1.169,1.48.386.1.784.144,1.177.214a2.214,2.214,0,0,1-2.06.1c-.644-.261-.886.106-1.066.562a12.885,12.885,0,0,0-.382,1.371c-.225.224-.437.463-.679.667-.265.223-.246.409-.042.669a3.131,3.131,0,0,1-2.314,5.029,3.06,3.06,0,0,1-2.882-1.551,3,3,0,0,1,.479-3.755c.322-.347.281-.513.079-.922A7.213,7.213,0,0,0,479.2,95a3.047,3.047,0,0,1-.428-3.574c.1-.191.409-.371.192-.618a.71.71,0,0,0-.81-.146,3.412,3.412,0,0,1-1.8.2,3.09,3.09,0,0,1-1.892-5.019c.078-.1.157-.206.229-.3-.1-.25-.325-.212-.482-.272a3.011,3.011,0,0,1-2.083-3.16,2.955,2.955,0,0,1,2.32-2.817c.67-.146.666-.32.484-.913a2.929,2.929,0,0,1,1.079-3.354.85.85,0,0,0,.379-.98,3.134,3.134,0,0,1,2.138-3.443,3.2,3.2,0,0,1,3.727,1.457,3.141,3.141,0,0,1-.8,3.973c-.241.195-.508.316-.474.744a3.254,3.254,0,0,1-.858,3.029,1.3,1.3,0,0,0,2.053-.307c.112-.165.038-.3-.011-.449a3.031,3.031,0,0,1,.192-2.257,3.39,3.39,0,0,0,.211-.769,3.043,3.043,0,0,1,4.027-2.515c.91.314,1.72-.133,2.574-.011a.377.377,0,0,0,.564.062.7.7,0,0,0-.539-.093,4.867,4.867,0,0,1-1.731-1.09c-.178-.225-.434-.149-.67-.149a3.133,3.133,0,0,1-3.294-2.739,3.362,3.362,0,0,0-1.413-2.295,2.637,2.637,0,0,1-.966-1.15,3.032,3.032,0,0,1,.849-3.739c.438-.387.365-.684.032-1.068a3.615,3.615,0,0,0-3.262-1.082.858.858,0,0,0-.223-1.1,3.124,3.124,0,0,1-.738-2.695,4.64,4.64,0,0,1-1.774.765c.153.2.247.32.344.442a3.022,3.022,0,0,1,.347,3.577,3.142,3.142,0,0,1-5.788-.831c-.036-.128-.052-.261-.077-.392.012-.311-.238-.459-.408-.657a3.115,3.115,0,0,1,.921-4.945c.153-.082.379-.079.436-.3-.616-.384-.629-.387-1.882-.326a2.987,2.987,0,0,1,3.032-2.534,2.1,2.1,0,0,0,1.673-.483,1.732,1.732,0,0,1,.93-.426c.812-.1.62-.48.384-.979a1.763,1.763,0,0,0-1.51-1.142,2.832,2.832,0,0,1-2.449-2.418c-.109-.469-.272-.7-.778-.649a2.057,2.057,0,0,1-.919-.246c-.254-.1-.587-.376-.745.035a.705.705,0,0,0,.19.933,2.868,2.868,0,0,1,1.02,1.209,3.138,3.138,0,0,1-5.552,2.914c-.094-.157-.186-.315-.3-.509l-.526.651a3.44,3.44,0,0,1-3.237.654,3.11,3.11,0,0,0-1.7-3.016c-1.562-.8-3-.358-4.279,1.286" transform="translate(572.262 817.837)" fill="#dedfe0" opacity="0.5"/>
    <path id="Tracciato_22664" data-name="Tracciato 22664" d="M247.874,148.105a3.562,3.562,0,0,1-1.294,1.583c-.531.361-1.262.312-1.725.876a3.468,3.468,0,0,1,3.859.513,2.672,2.672,0,0,1,.937,2.357,5.235,5.235,0,0,0-3.224-.96c-1.9.017-3.8.009-5.707.012a3.36,3.36,0,0,1-1.931-3.837c.559-.015,1.122,0,1.678-.051a4.142,4.142,0,0,0,3.561-2.212,6.126,6.126,0,0,0-1.683-7.721c1.2-.241,2.051.437,2.931,1.235a3.426,3.426,0,0,1,1.374-2.8c-.256-.166-.4,0-.56.073a3.112,3.112,0,0,1-4.526-1.715,1.136,1.136,0,0,0-.482-.605,2.327,2.327,0,0,1-.977-1.14c-.232-.532-.473-.645-1.027-.355a2.907,2.907,0,0,1-3.311-.331,3.006,3.006,0,0,1-1.136-3.139c.052-.271.145-.507-.146-.71-.347-.242-.478.116-.666.237a3.029,3.029,0,0,1-3.534.073.8.8,0,0,0-1.1.029,3.1,3.1,0,0,1-4.449-.728c-.238-.344-.258-.992-.634-1.016s-.788.378-1.184.592a1.407,1.407,0,0,0-.147.063.7.7,0,0,0,0,1.2,3.063,3.063,0,0,1,1.205,3.732c-.093.261-.185.457.045.719a3.147,3.147,0,0,1,.2,4.06,3.03,3.03,0,0,1-2.42,1.157c.178-.371.573-.612.684-1.138h-3.295a3.249,3.249,0,0,1-.331-3.264c.147-.288-.039-.44-.188-.627a2.9,2.9,0,0,1-.648-2.759c.145-.486-.032-.722-.491-.9-2.063-.8-2.522-1.51-2.437-3.722a1.109,1.109,0,0,0-.269-.644,3.129,3.129,0,0,1,.624-4.122,3.169,3.169,0,0,1,4.3.248,1.47,1.47,0,0,0,1.537-.06c.149-.181-.011-.3-.082-.417a3.416,3.416,0,0,1-.095-3.367,4.011,4.011,0,0,1,1.557-1.267,3.447,3.447,0,0,1,2.87.206,4.375,4.375,0,0,1,1.3,1.782,3.339,3.339,0,0,1-1.269,3.61c-1.3.487-1.3.487-.529,1.956a3.248,3.248,0,0,1,4.264-.242c.26.184.423.106.63-.057a3.045,3.045,0,0,1,3.851-.2c.259.169.4.118.619-.054a2.994,2.994,0,0,1,3.658-.224,2.962,2.962,0,0,1,1.374,3.392.557.557,0,0,0,.167.642c.248.2.439.066.658-.035a3.14,3.14,0,0,1,4.372,1.372c.412.738,1.157,1.257,1.357,2.143.071.316.289.054.438-.006l.179-.126-.013.008a3.257,3.257,0,0,1,2.24-.222c1.192.453,2.507.716,3.35,1.824.843,2.09.6,3.1-1.14,4.45-.262.2-.187.318-.074.506-2.006.116-3.822.647-4.773,2.615-.969,2.007-1.051,5.769,1.689,7.508" transform="translate(762.673 741.107)" fill="#dedfe0" opacity="0.5"/>
    <path id="Tracciato_22665" data-name="Tracciato 22665" d="M307.162,451.368a2.852,2.852,0,0,1,1.676-2.864,2.959,2.959,0,0,1,3.315.307.573.573,0,0,0,.828-.008,2.779,2.779,0,0,1,2.048-.524c.456.062.653-.129.88-.482a2.976,2.976,0,0,1,3.978-1.165c1.01.617,2.135.924,3.141,1.514a11.223,11.223,0,0,1,2.736,2.52,2.747,2.747,0,0,1,.221,3.169,1.3,1.3,0,0,0-.136,1.055,3.039,3.039,0,0,1-1.538,3.734c-.358.2-.589.325-.434.825a2.8,2.8,0,0,1-.952,3.1,3.217,3.217,0,0,1-3.574.654,1.283,1.283,0,0,0-1.145.1c-1,.374-1.34.792-1.346,2.037-.012,2.458-2.843,3.786-5.048,2.268a4.191,4.191,0,0,0-1.139-2.072c.032-2,.532-2.72,2.432-3.458.222-.086.41-.135.331-.422a3.25,3.25,0,0,1,1.6-3.767c-1.348-.619-2.934-.63-3.79-1.992a3.378,3.378,0,0,1-.166-2.7,1.013,1.013,0,0,0-.4-1.369,3.341,3.341,0,0,0-3.519-.46m12.536,4.471a3.742,3.742,0,0,1,.489-1.593c.087-.16.257-.338.025-.483-.657-.413-1.328-.8-1.993-1.2a3.9,3.9,0,0,1,.54,3.386c-.215.106-.434.206-.644.32a3.134,3.134,0,0,0-1.437,3.854,3.14,3.14,0,0,0,6.081-1.1c.008-1.719-1-2.774-3.061-3.187" transform="translate(684.743 464.739)" fill="#dedfe0" opacity="0.5"/>
    <path id="Tracciato_22666" data-name="Tracciato 22666" d="M208.289,248.536h3.295c-.111.526-.506.768-.684,1.138a32.636,32.636,0,0,0-2.178,2.843c-.21.143-.144.3-.043.48,1.044,1.88,2.084,3.762,3.2,5.785l1.743-5.591a13.672,13.672,0,0,0,.772-2.339,6.784,6.784,0,0,0,.386-1.119,1.244,1.244,0,0,1,1.615-1.19,9.387,9.387,0,0,0,2.148,0c.723-.072,1.221.1,1.419.843.425,1.844,1.135,3.6,1.693,5.4.424,1.37.884,2.73,1.366,4.215-1.2,0-2.332-.006-3.464,0-.408,0-.354-.3-.418-.547-.375-1.441-.378-1.44-1.894-1.44a2.851,2.851,0,0,1-.4,0c-.651-.093-.981.093-1.1.831-.195,1.169-.265,1.157-1.479,1.157-1.925,0-3.85-.013-5.775.01a.832.832,0,0,1-.909-.553c-.506-1.114-1.077-2.2-1.624-3.3a2.68,2.68,0,0,0-.932,2.255c.08,1.586.022,1.589-1.607,1.589-.508,0-1.017-.022-1.523.007-.4.023-.557-.068-.554-.515q.03-4.691,0-9.383c0-.477.165-.577.6-.561.828.03,1.659.036,2.485,0,.479-.022.659.092.637.609-.043,1.014-.013,2.03-.013,3.3.854-1.218,1.587-2.263,2.32-3.307.228-.324.427-.693.923-.615m8.443,5.444c-.109.248-.342.6.052.695a2.09,2.09,0,0,0,1.32-.044c.244-.119-.095-.617-.1-.957,0-.094-.086-.188-.132-.283a7.019,7.019,0,0,0-.559-2.106l-.585,2.694" transform="translate(773.569 630.732)" fill="#fff" opacity="0.8"/>
    <path id="Tracciato_22667" data-name="Tracciato 22667" d="M560.555,495.191a3.054,3.054,0,0,1-3.031-3.659,1.693,1.693,0,0,0-.147-1.075,3,3,0,0,1,.2-3.051,1.531,1.531,0,0,0,.206-.871,7.254,7.254,0,0,1,1.011-4.189,1.22,1.22,0,0,0,.242-.4,3.333,3.333,0,0,1,2.432-2.707c.279-.082.289-.369.4-.57a3.155,3.155,0,0,1,5.967,1.071,3.143,3.143,0,0,1-1.967,3.184c-.923.376-1.066,1.319-1.537,2.009a2.53,2.53,0,0,0-.358,1.535.911.911,0,0,1-.147.613c-.8.864-.343,1.976-.624,2.938-.086.293.14.5.246.738a3.118,3.118,0,0,1-2.895,4.437" transform="translate(474.968 439.027)" fill="#dedfe0" opacity="0.5"/>
    <path id="Tracciato_22668" data-name="Tracciato 22668" d="M350.331,384.9a11.537,11.537,0,0,1-.341,2.1c-.048.659.883,1.021,1.125,1.724a3.227,3.227,0,0,1-1.026,3.6,3.182,3.182,0,0,1-3.806.046,3.005,3.005,0,0,1-1.022-3.643c.36-.761-.221-.893-.512-1.25a.17.17,0,0,0-.311.06c-.181.524-.621.9-.682,1.514a2.927,2.927,0,0,1-2.832,2.652c-.629.022-1.15.371-1.785.383a3.1,3.1,0,0,1-3.061-4.409c.05-.123.087-.251.129-.376.424-.39.766-.937,1.33-1.088a1.452,1.452,0,0,0,1.157-1.279,4.423,4.423,0,0,1,1.347-.066c1.574-.011,1.574,0,1.651-1.522l.943.162c.014.319.033.637.039.956,0,.208.051.391.293.388a25.076,25.076,0,0,0,3.26-.059,11.491,11.491,0,0,0,.1-2.369,1.157,1.157,0,0,1,0-.239c.079-.261-.228-.692.309-.753.4-.046.762-.047.976.443.286.656.716,1.25.988,1.911a1.473,1.473,0,0,0,1.727,1.112" transform="translate(660.694 519.175)" fill="#dedfe0" opacity="0.5"/>
    <path id="Tracciato_22669" data-name="Tracciato 22669" d="M589.494,407.562a2.778,2.778,0,0,1,2.19,1.867,3.011,3.011,0,0,1-.589,3.353c-.6.682-.613.67.206.931a3.194,3.194,0,0,1,2.35,3.247,3.255,3.255,0,0,1-2.71,2.967,3.184,3.184,0,0,1-3.43-2.062c-.171-.42-.289-.519-.731-.287a3.1,3.1,0,0,1-4.558-3.655,3.1,3.1,0,0,1,3.053-2.152c.448-.026.5-.139.432-.575-.33-1.992,1.13-3.651,3.787-3.635" transform="translate(453.985 497.224)" fill="#dedfe0" opacity="0.5"/>
    <path id="Tracciato_22670" data-name="Tracciato 22670" d="M10.506,348.224c-1.308,0-2.454-.018-3.6.01-.373.009-.511-.184-.654-.458-.443-.85-.95-1.672-1.333-2.547-.245-.56-.654-.478-1.053-.433-.478.053-.224.466-.236.705-.036.72-.026,1.444-.007,2.165.009.37-.023.593-.5.57-.881-.041-1.765-.026-2.646,0-.351.008-.457-.108-.456-.456q.017-4.772,0-9.545c0-.419.191-.469.538-.466,1.872.015,3.743,0,5.615.019a4.818,4.818,0,0,1,2.149.556c2.272,1.15,1.972,4.771.078,5.659a4.782,4.782,0,0,0-.418.25l2.527,3.976m-5.821-7.8c-1.068,0-1.068,0-1.068.863,0,1.035,0,1.037,1.059,1.031.266,0,.532-.011.8-.034a.751.751,0,0,0,.734-.787c.069-.823-.278-1.07-1.522-1.072" transform="translate(942.565 555.816)" fill="#fff" opacity="0.8"/>
    <path id="Tracciato_22671" data-name="Tracciato 22671" d="M386.047,348.262a1.473,1.473,0,0,1-1.727-1.112c-.272-.66-.7-1.255-.988-1.911-.214-.49-.572-.489-.976-.443-.537.061-.229.492-.309.753a1.149,1.149,0,0,0,0,.239,11.5,11.5,0,0,1-.1,2.369,25.073,25.073,0,0,1-3.26.059c-.241,0-.289-.18-.292-.388-.006-.319-.026-.637-.039-.955q0-.145,0-.29,0-4.106,0-8.212l.063-.588c1.9,0,3.8,0,5.706-.012a5.236,5.236,0,0,1,3.225.96l.606.682c.087.251.181.5.261.754a3.467,3.467,0,0,1-.935,3.523c-.837.695-.839.7-.231,1.592.088.131.2.247.3.37l1.564,2.613Zm-2.946-5.937c.57-.072,1.267.161,1.49-.615a.92.92,0,0,0-.4-1.176,4.223,4.223,0,0,0-2.091.027.134.134,0,0,0-.033.069,4.853,4.853,0,0,0,.041,1.5c.136.4.67.1.995.2" transform="translate(624.979 555.811)" fill="#fff" opacity="0.8"/>
    <path id="Tracciato_22672" data-name="Tracciato 22672" d="M347.985,249.1a6.126,6.126,0,0,1,1.683,7.721,4.141,4.141,0,0,1-3.561,2.212c-.556.055-1.119.036-1.678.051-1.174-.006-2.35-.043-3.523-.005-.558.018-.715-.138-.711-.7.02-2.322-.015-4.644-.029-6.966.014-.688.076-1.379.029-2.062-.043-.622.193-.762.768-.738.925.038,1.853-.008,2.78-.019a12.291,12.291,0,0,1,4.243.51m-4.078,4.718c0,.721,0,1.442,0,2.163,0,.2-.053.407.261.492A1.764,1.764,0,0,0,346.456,255a7.41,7.41,0,0,0,.032-1.994c-.186-1.419-.722-1.864-2.127-1.748-.337.028-.47.135-.46.48.019.694.006,1.389.006,2.083" transform="translate(657.033 630.673)" fill="#fff" opacity="0.8"/>
    <path id="Tracciato_22673" data-name="Tracciato 22673" d="M78.235,253.116c-.02,3.475-1.95,5.363-5.453,5.336-3.287-.025-5.2-2.051-5.179-5.475a4.947,4.947,0,0,1,5.4-5.294c3.311.026,5.255,2.044,5.235,5.432m-6.845-.059a5.747,5.747,0,0,0,.176,1.583,1.373,1.373,0,0,0,1.489,1.065,1.35,1.35,0,0,0,1.277-1.221,6.71,6.71,0,0,0,.005-2.784,1.322,1.322,0,0,0-1.287-1.2,1.361,1.361,0,0,0-1.492,1.052,5.923,5.923,0,0,0-.168,1.5" transform="translate(885.832 631.432)" fill="#fff" opacity="0.8"/>
    <path id="Tracciato_22674" data-name="Tracciato 22674" d="M411.258,257.637c-2.74-1.739-2.658-5.5-1.689-7.508.95-1.968,2.767-2.5,4.773-2.615a8.719,8.719,0,0,1,2.989.717,5.127,5.127,0,0,1,2.258,3.849,7.46,7.46,0,0,1-.647,3.956,6.333,6.333,0,0,1-1.9,1.777c-.091.01-.187.012-.191.141l.009-.012a9.137,9.137,0,0,1-4.48.182l-1.126-.486m1.543-5.4a2.522,2.522,0,0,0-.048,1.109,10.384,10.384,0,0,0,.192,1.169,1.387,1.387,0,0,0,2.677.051A3.958,3.958,0,0,0,415.81,253a3.788,3.788,0,0,0-.183-1.652c-.155-.471-.376-.89-.965-.91-1.207-.218-1.671.228-1.861,1.792" transform="translate(599.289 631.575)" fill="#fff" opacity="0.8"/>
    <path id="Tracciato_22675" data-name="Tracciato 22675" d="M69.5,342.935c0-1.523.017-3.046-.01-4.569-.009-.477.105-.649.618-.643,2.511.026,5.023.022,7.535,0,.42,0,.536.117.553.533.093,2.175.1,2.174-2.026,2.174-.828,0-1.658.03-2.485-.01-.564-.028-.5.312-.5.664s-.075.686.493.663a25.439,25.439,0,0,1,2.964,0c1.18.09.366,1.019.524,1.535.1.325.351,1.016-.548.968-.959-.051-1.924.014-2.885-.022-.5-.018-.565.2-.557.617.008.4.026.648.542.636,1.335-.032,2.672.008,4.008-.021.5-.011.7.089.7.651.008,2.073.031,2.073-2.057,2.073s-4.169-.014-6.253.01c-.479.005-.644-.106-.632-.617.036-1.549.013-3.1.013-4.649" transform="translate(884.25 555.85)" fill="#fff" opacity="0.8"/>
    <path id="Tracciato_22676" data-name="Tracciato 22676" d="M452.021,340.961c.183.24.485.14.722.255a2.784,2.784,0,0,1,1.9,2.329,3.228,3.228,0,0,1-1.473,3.218c-.266.169-.555.3-.833.454a8.765,8.765,0,0,1-2.27.335,10.937,10.937,0,0,1-4.419-.865c-.931-.665-.931-.665-.259-1.972a1.606,1.606,0,0,0,.229-.326c.277-.727.631-.746,1.3-.347a5.472,5.472,0,0,0,3.215.794c.3-.02.65-.012.721-.368.089-.444-.34-.511-.616-.586-.771-.209-1.567-.326-2.336-.542-1.208-.34-2.349-.791-2.7-2.2a4.34,4.34,0,0,1,.132-2.051,4.57,4.57,0,0,1,2.83-2.142,9.957,9.957,0,0,1,6.1.829c.551.345.641.727.185,1.251a4.56,4.56,0,0,0-.719,1.139c-.205.464-.463.471-.828.236a4.589,4.589,0,0,0-3.4-.831c-.219.029-.513.079-.5.412.014.269.246.314.457.365l2.558.616" transform="translate(569.102 556.626)" fill="#fff" opacity="0.8"/>
    <path id="Tracciato_22677" data-name="Tracciato 22677" d="M325.95,346.667c-.077,1.518-.077,1.512-1.651,1.523a4.427,4.427,0,0,0-1.347.066c-1.694-.118-3.388-.067-5.082-.028-.612.034-.831-.174-.819-.861.052-2.992.035-5.986.01-8.978,0-.522.131-.675.664-.669q3.647.043,7.3,0c.541-.006.786.113.726.7a10.525,10.525,0,0,0,.015,1.28q-.024.367-.048.734c-1.408,0-2.818.038-4.224-.02-.688-.028-.845.215-.689.813-.134.471.13.516.506.514,1.163-.009,2.325.007,3.488.013l-.01-.011c0,.641-.026,1.284.008,1.924.025.466-.151.6-.6.588-.989-.026-1.979.013-2.967-.017-.516-.016-.459.3-.462.624s-.031.631.472.617c1.361-.04,2.723-.041,4.085-.057.165.211.445.008.622.173Z" transform="translate(676.437 555.854)" fill="#fff" opacity="0.8"/>
    <path id="Tracciato_22678" data-name="Tracciato 22678" d="M.01,253.895c0-1.549,0-3.1,0-4.646,0-.261-.129-.62.376-.609,2.028.046,4.064-.13,6.084.083,2.333.246,3.518,1.567,3.466,3.692s-1.357,3.409-3.7,3.575a17.039,17.039,0,0,1-2,.017c-.437-.021-.544.141-.526.547.029.666-.016,1.336.016,2,.021.432-.142.55-.552.538-.881-.025-1.763-.032-2.643,0-.447.018-.532-.157-.527-.556.018-1.548.007-3.1.007-4.646m3.706-1.585c0,1.123,0,1.123.8,1.122,1.248,0,1.759-.334,1.737-1.127-.021-.771-.506-.982-1.808-1.065-1-.063-.682.585-.728,1.071" transform="translate(942.581 630.651)" fill="#fff" opacity="0.8"/>
    <path id="Tracciato_22679" data-name="Tracciato 22679" d="M266.047,523.639a3.228,3.228,0,0,1-3.757-1.561c-.368-.607-.979-.124-1.452-.281a4.964,4.964,0,0,0-.581-1.574,7.193,7.193,0,0,0,.766-.05c.713-.126,1.3-.289,1.259-1.277a2.365,2.365,0,0,1,.976-1.938.8.8,0,0,0,.232-1.1,3.266,3.266,0,0,0-4.154-1.694c.329-2.5,3.066-3.341,5.413-1.6a3.52,3.52,0,0,1,1.541-2.392,3.4,3.4,0,0,0,3.891.38,3.171,3.171,0,0,1,.329,4.04,3.027,3.027,0,0,1-2.362,1.306,3.974,3.974,0,0,1-2.646-.925c.224.408-.771,1.037.2,1.16a3.4,3.4,0,0,1,2.808,2.306,3.2,3.2,0,0,0-2.462,5.207" transform="translate(724.885 411.096)" fill="#dedfe0" opacity="0.5"/>
    <path id="Tracciato_22680" data-name="Tracciato 22680" d="M185.4,348.192c1.1-3.427,2.17-6.739,3.232-10.053a.507.507,0,0,1,.572-.41c1.2.022,2.4.029,3.606,0,.4-.01.5.206.593.492q1.52,4.663,3.042,9.326c.158.48.12.726-.482.659-.448-.05-.907-.005-1.361-.011a3.924,3.924,0,0,1-1.652-.084c-.421-.226-.309-.957-.45-1.459-.105-.375-.267-.466-.6-.442-.239.017-.481,0-.721,0-1.526,0-1.531,0-1.954,1.448-.106.364-.243.57-.7.55-1.009-.045-2.021-.014-3.125-.014m5.52-7.611c-.238,1-.366,1.768-.609,2.495-.209.625-.135.905.583.806a5.116,5.116,0,0,1,.64-.006c.136,0,.309-.019.259-.2a18.251,18.251,0,0,0-.873-3.1" transform="translate(786.948 555.848)" fill="#fff" opacity="0.8"/>
    <path id="Tracciato_22681" data-name="Tracciato 22681" d="M725.728,393.624c-.393-.07-.791-.118-1.177-.214-.76-.189-1.319-.518-1.169-1.48a2.058,2.058,0,0,0-.557-1.7.992.992,0,0,1,.062-1.593,4.859,4.859,0,0,0,1.86-3.163,1.92,1.92,0,0,1,.115-.3c.3-.351.833-.534.886-1.069a4.285,4.285,0,0,1,.616-1.707,3.623,3.623,0,0,0,4.068-.817c1.973,1.449,2.148,3.37.447,5.143a1.17,1.17,0,0,0-.294.7,3.169,3.169,0,0,1-1.547,2.31c-.245.146-.464.25-.5.631a2.992,2.992,0,0,1-2.62,3.122.745.745,0,0,0-.2.129" transform="translate(336.124 519.029)" fill="#dedfe0" opacity="0.5"/>
    <path id="Tracciato_22682" data-name="Tracciato 22682" d="M234.236,534.155a3.266,3.266,0,0,1,4.154,1.694.8.8,0,0,1-.232,1.1,2.365,2.365,0,0,0-.976,1.938c.045.988-.547,1.151-1.259,1.277a7.135,7.135,0,0,1-.766.05,4.954,4.954,0,0,1,.581,1.574c-.074,2.089-1.1,3.35-2.855,3.5a3.129,3.129,0,0,1-.655-6.223c.21-.028.424-.024.7-.039a3.676,3.676,0,0,1-.5-2.746,3.491,3.491,0,0,1,1.8-2.131" transform="translate(749.984 391.103)" fill="#dedfe0" opacity="0.5"/>
    <path id="Tracciato_22683" data-name="Tracciato 22683" d="M248.725,341.962c.591-1.324,1.149-2.529,1.662-3.753a.636.636,0,0,1,.7-.471q1.281.038,2.563,0c.5-.014.538.131.31.544-.8,1.443-1.509,2.939-2.37,4.342a6.771,6.771,0,0,0-1.038,4.157c.1,1.412.021,1.418-1.372,1.418-.614,0-1.229-.015-1.842.006-.336.011-.508-.083-.455-.445.012-.078-.008-.161,0-.24a8.182,8.182,0,0,0-1.431-5.65c-.744-1.161-1.308-2.436-1.986-3.642-.24-.428-.1-.493.3-.487.881.012,1.763.024,2.644-.006.391-.013.539.153.7.486.576,1.2,1.1,2.417,1.607,3.739" transform="translate(738.299 555.838)" fill="#fff" opacity="0.8"/>
    <path id="Tracciato_22684" data-name="Tracciato 22684" d="M480.764,248.579c1.974.011,3.948.055,5.92.016.657-.013.787.2.778.806-.031,1.923-.006,1.923-1.963,1.923-1.374,0-1.377,0-1.373,1.376,0,.773.02,1.546.03,2.318-.01,1.12-.044,2.24-.021,3.359.01.5-.1.721-.652.689a22.123,22.123,0,0,0-2.4,0c-.525.027-.68-.142-.672-.669.03-1.947.012-3.9.012-5.843,0-1.23,0-1.23-1.206-1.23-2.078,0-2.062,0-2.035-2.091.006-.479.117-.65.623-.634.985.032,1.973-.01,2.959-.021" transform="translate(542.022 630.681)" fill="#fff" opacity="0.8"/>
    <path id="Tracciato_22685" data-name="Tracciato 22685" d="M128.55,106.983a3.047,3.047,0,0,1,1.561-3.1,2.986,2.986,0,0,1,3.462.193c.372.274.6.119.928-.028a3.04,3.04,0,0,1,3.44.469,2.945,2.945,0,0,1,.936,3.2,3.049,3.049,0,0,1-2.645,2.264,2.937,2.937,0,0,1-2.19-.581c-.241-.169-.433-.341-.777-.143a3.073,3.073,0,0,1-3.337-.09,3.858,3.858,0,0,0-1.378-2.183" transform="translate(834.683 752.535)" fill="#dedfe0" opacity="0.5"/>
    <path id="Tracciato_22686" data-name="Tracciato 22686" d="M467.286,235.31c-.987.011-1.974.053-2.959.021-.507-.016-.617.155-.623.634-.027,2.091-.043,2.091,2.035,2.091,1.206,0,1.206,0,1.206,1.23,0,1.948.018,3.9-.012,5.843-.008.527.147.7.672.669a22.13,22.13,0,0,1,2.4,0c.554.032.662-.193.652-.689-.023-1.119.011-2.239.021-3.359a3.017,3.017,0,0,1,1.272,3.407,3.21,3.21,0,0,1-3.013,2.32,3.143,3.143,0,0,1-3.054-2.367c-.141-.561-.32-.61-.844-.57a2.775,2.775,0,0,1-2.307-.88,7.461,7.461,0,0,0,.647-3.956,5.126,5.126,0,0,0-2.258-3.849,3.128,3.128,0,0,1,2.972-3.081,3.016,3.016,0,0,1,3.194,2.535" transform="translate(555.5 643.949)" fill="#dedfe0" opacity="0.5"/>
    <path id="Tracciato_22687" data-name="Tracciato 22687" d="M131.316,342.846c0-1.522.022-3.045-.013-4.566-.012-.509.149-.638.634-.613a16.772,16.772,0,0,0,2.322,0c.683-.06.772.231.764.815-.031,2.082.008,4.166-.025,6.249-.009.559.141.728.7.706,1.173-.044,2.35,0,3.525-.022.46-.011.574.148.583.6.04,2.127.054,2.126-2.073,2.126-1.95,0-3.9-.013-5.849.01-.443,0-.592-.1-.584-.57.03-1.575.011-3.151.011-4.727" transform="translate(832.36 555.907)" fill="#fff" opacity="0.8"/>
    <path id="Tracciato_22688" data-name="Tracciato 22688" d="M141.559,253.9c0-1.524.018-3.048-.011-4.572-.009-.485.115-.662.623-.636a21.684,21.684,0,0,0,2.485,0c.541-.035.6.194.6.642-.018,2.139.013,4.278-.022,6.416-.009.573.167.722.718.7,1.148-.04,2.3.012,3.448-.023.5-.015.619.157.623.639.019,2.08.035,2.08-2.046,2.08-1.872,0-3.744-.032-5.615.017-.688.018-.84-.2-.817-.852.051-1.469.016-2.941.016-4.411" transform="translate(823.766 630.593)" fill="#fff" opacity="0.8"/>
    <path id="Tracciato_22689" data-name="Tracciato 22689" d="M291.807,223.337c-.927.011-1.855.057-2.78.019-.576-.024-.812.116-.769.738.048.683-.014,1.374-.029,2.063-1.425-.22-1.9-.684-2.753-2.682-.33.211-.5.62-.913.721-.2-.745-.7-.915-1.419-.842a9.387,9.387,0,0,1-2.148,0,1.244,1.244,0,0,0-1.615,1.19A6.787,6.787,0,0,1,279,225.66a3.5,3.5,0,0,0-.7-2.094,2.172,2.172,0,0,1,1.073-.674c.447-.145.518-.324.432-.8a3.08,3.08,0,0,1,2.978-3.581c1.691-.043,2.612.7,3.308,2.66,1.809-1.277,2.765-1.495,4.009-.845a2.982,2.982,0,0,1,1.711,3.013" transform="translate(708.969 655.924)" fill="#dedfe0" opacity="0.5"/>
    <path id="Tracciato_22690" data-name="Tracciato 22690" d="M147.945,182.625a3.364,3.364,0,0,1,3.1,1.31,1.945,1.945,0,0,0,.742.45,3,3,0,0,1,1.733,2.926,2.961,2.961,0,0,1-1.973,2.761,2.9,2.9,0,0,1-3.322-.645,6.621,6.621,0,0,0-1.331-.987,2.951,2.951,0,0,1-1.548-2.548,3.286,3.286,0,0,1,2.593-3.267" transform="translate(820.567 686.054)" fill="#dedfe0" opacity="0.5"/>
    <path id="Tracciato_22691" data-name="Tracciato 22691" d="M438.511,398.388a10.936,10.936,0,0,0,4.419.865,8.764,8.764,0,0,0,2.27-.335,6.5,6.5,0,0,0-1.212,2.447,1.411,1.411,0,0,1-.628.908,2.113,2.113,0,0,0-.894,1.519c-1.377,2.417-3.946,2.545-5.7.285a3.207,3.207,0,0,1,1.024-4.127c.472-.379.332-1.109.725-1.562" transform="translate(576.242 504.925)" fill="#dedfe0" opacity="0.5"/>
    <path id="Tracciato_22692" data-name="Tracciato 22692" d="M199.326,78.59a3.178,3.178,0,0,1-3.254,1.247,3.013,3.013,0,0,1-2.361-2.156,3.141,3.141,0,0,1,4.34-3.729,3.1,3.1,0,0,1,1.83,3.032c-.008.133-.026.265-.039.4l-.516,1.21" transform="translate(780.094 777.53)" fill="#dedfe0" opacity="0.5"/>
    <path id="Tracciato_22693" data-name="Tracciato 22693" d="M466.766,6.3a3.176,3.176,0,0,1-3.078-3.167,3.148,3.148,0,1,1,6.3.038A3.232,3.232,0,0,1,466.766,6.3" transform="translate(553.345 839.347)" fill="#dedfe0" opacity="0.5"/>
    <path id="Tracciato_22694" data-name="Tracciato 22694" d="M297.4,566.858a3.2,3.2,0,0,1,2.462-5.207,4.66,4.66,0,0,1,2.023.752,4.191,4.191,0,0,1,1.139,2.072c-.108,1.824-.79,2.852-2.218,3.324a3.147,3.147,0,0,1-3.405-.941" transform="translate(693.536 367.876)" fill="#dedfe0" opacity="0.5"/>
    <path id="Tracciato_22695" data-name="Tracciato 22695" d="M607.677,544.957a3.2,3.2,0,0,1-3.142-3.1,3.263,3.263,0,0,1,3.174-3.17,3.134,3.134,0,1,1-.031,6.267" transform="translate(435.112 387.15)" fill="#dedfe0" opacity="0.5"/>
    <path id="Tracciato_22696" data-name="Tracciato 22696" d="M315.255,613.8a3.14,3.14,0,1,1,3.076,3.138,3.135,3.135,0,0,1-3.076-3.138" transform="translate(677.944 326.719)" fill="#dedfe0" opacity="0.5"/>
    <path id="Tracciato_22697" data-name="Tracciato 22697" d="M108.316,153.845c-2.293-.43-3.237-2.267-2.4-4.662a3.144,3.144,0,0,1,4.4-1.153,3.416,3.416,0,0,1,1.524,2.258,3.213,3.213,0,0,1-3.529,3.557" transform="translate(853.923 715.479)" fill="#dedfe0" opacity="0.5"/>
    <path id="Tracciato_22698" data-name="Tracciato 22698" d="M526.593,162.286c1.281-1.644,2.717-2.088,4.279-1.286a3.11,3.11,0,0,1,1.7,3.016,3.388,3.388,0,0,1-1.988,2.705c-2.2.463-3.813-.431-4.241-2.334a3.965,3.965,0,0,1,.251-2.1" transform="translate(500.801 704.524)" fill="#dedfe0" opacity="0.5"/>
    <path id="Tracciato_22699" data-name="Tracciato 22699" d="M229.383,91.079l.516-1.21a3.263,3.263,0,0,1,3.78-1.129,3.089,3.089,0,0,1,1.846,3.91c-.075.226-.154.451-.232.677a4.007,4.007,0,0,0-1.557,1.267,3.243,3.243,0,0,1-4.353-3.515" transform="translate(750.038 765.042)" fill="#dedfe0" opacity="0.5"/>
    <path id="Tracciato_22700" data-name="Tracciato 22700" d="M795.317,296.88a3.583,3.583,0,0,0-2.544-1.8,3.612,3.612,0,0,1,.006-2.674,4.625,4.625,0,0,1,.92-1.1c1.635-1.228,3.475-.811,4.869,1.115.454,2.043.042,3.231-1.405,4.076a3.439,3.439,0,0,1-1.845.386" transform="translate(277.311 595.399)" fill="#dedfe0" opacity="0.5"/>
    <path id="Tracciato_22701" data-name="Tracciato 22701" d="M301.38,482.076a3.4,3.4,0,0,1-3.891-.38c-1.5-2.108-1.31-3.475.731-5.154a3.342,3.342,0,0,1,3.519.461,1.013,1.013,0,0,1,.4,1.369,3.38,3.38,0,0,0,.165,2.7l-.926,1" transform="translate(693.686 439.564)" fill="#dedfe0" opacity="0.5"/>
    <path id="Tracciato_22702" data-name="Tracciato 22702" d="M663.347,240.561a3.614,3.614,0,0,1,3.262,1.082c.333.384.407.68-.032,1.068a3.032,3.032,0,0,0-.849,3.739,3.189,3.189,0,0,1-3.343-.232,2.963,2.963,0,0,1-1.272-3.007,3.006,3.006,0,0,1,2.087-2.51l.156-.145Z" transform="translate(387.653 637.429)" fill="#dedfe0" opacity="0.5"/>
    <path id="Tracciato_22703" data-name="Tracciato 22703" d="M653.413,92.882a3.382,3.382,0,0,0-3.078,2.137,3.493,3.493,0,0,1-2.4-1.132.944.944,0,0,1,.046-1.332,2.946,2.946,0,0,0,.3-3.031,3.183,3.183,0,0,1,5.129,3.359" transform="translate(398.889 764.863)" fill="#dedfe0" opacity="0.5"/>
    <path id="Tracciato_22704" data-name="Tracciato 22704" d="M104.187,127.089a3.144,3.144,0,0,0-4.4,1.153,2.946,2.946,0,0,1-1.261-3.644,3.039,3.039,0,0,1,3.689-1.872,9.021,9.021,0,0,1,.964.37,3.86,3.86,0,0,1,1.379,2.183,5.3,5.3,0,0,1-.369,1.81" transform="translate(860.056 736.421)" fill="#dedfe0" opacity="0.5"/>
    <path id="Tracciato_22705" data-name="Tracciato 22705" d="M284.15,122.574a3.339,3.339,0,0,0,1.269-3.61,4.373,4.373,0,0,0-1.3-1.782,3,3,0,0,1,3.694.3,3.145,3.145,0,0,1-2.379,5.5,4.033,4.033,0,0,1-1.285-.408" transform="translate(704.08 741.393)" fill="#dedfe0" opacity="0.5"/>
    <path id="Tracciato_22706" data-name="Tracciato 22706" d="M122.431,168.109a3.213,3.213,0,0,0,3.529-3.557,3.042,3.042,0,0,1,2.745,2.912,3.286,3.286,0,0,0-2.593,3.267c-2.12.067-3.163-.676-3.68-2.622" transform="translate(839.807 701.215)" fill="#dedfe0" opacity="0.5"/>
    <path id="Tracciato_22707" data-name="Tracciato 22707" d="M438.089,445.664a3.376,3.376,0,0,1-.147,1.48,3.2,3.2,0,0,1-3.338,2.07,3.109,3.109,0,0,1-1.936-5.258,3.449,3.449,0,0,0,1.371,2.079c1.234.813,2.494.7,4.05-.369" transform="translate(580.11 466.675)" fill="#dedfe0" opacity="0.5"/>
    <path id="Tracciato_22708" data-name="Tracciato 22708" d="M432.672,348.487a4.34,4.34,0,0,0-.132,2.051c.347,1.412,1.488,1.863,2.7,2.2.768.217,1.565.333,2.336.542.276.075.7.142.616.586-.071.356-.425.348-.721.368a5.47,5.47,0,0,1-3.215-.794c-.666-.4-1.019-.38-1.3.346a1.6,1.6,0,0,1-.229.326.342.342,0,0,0-.531-.149,3.169,3.169,0,0,1-1.64.268c-.1-.123-.21-.239-.3-.369-.607-.9-.606-.9.232-1.592a3.467,3.467,0,0,0,.934-3.523c-.08-.253-.174-.5-.261-.754a4.1,4.1,0,0,1,1.51.491" transform="translate(581.768 547.227)" fill="#dedfe0" opacity="0.5"/>
    <path id="Tracciato_22709" data-name="Tracciato 22709" d="M442.621,435.666c-1.556,1.074-2.816,1.183-4.05.369a3.449,3.449,0,0,1-1.371-2.079,3.531,3.531,0,0,1,.224-1.628c1.758,2.26,4.327,2.132,5.7-.285a3.173,3.173,0,0,1-.508,3.622" transform="translate(575.579 476.673)" fill="#dedfe0" opacity="0.5"/>
    <path id="Tracciato_22710" data-name="Tracciato 22710" d="M553.072,181.1a3.388,3.388,0,0,0,1.988-2.705,3.441,3.441,0,0,0,3.237-.654,3.067,3.067,0,0,1-1.087,4.04,3.118,3.118,0,0,1-4.138-.681" transform="translate(478.312 690.14)" fill="#dedfe0" opacity="0.5"/>
    <path id="Tracciato_22711" data-name="Tracciato 22711" d="M798.794,279.722c-1.394-1.926-3.234-2.343-4.869-1.115a4.627,4.627,0,0,0-.92,1.1,3.017,3.017,0,0,1,1.032-3.614,3.178,3.178,0,0,1,3.738-.007,3.04,3.04,0,0,1,1.019,3.634" transform="translate(277.084 608.096)" fill="#dedfe0" opacity="0.5"/>
    <path id="Tracciato_22712" data-name="Tracciato 22712" d="M518.7,13.287a3.5,3.5,0,0,0-2.715,1.288c-.145.183-.283.426-.552.123a3.519,3.519,0,0,0-2.885-1.069,3.17,3.17,0,0,1,3.024-2.7,3.1,3.1,0,0,1,3.127,2.357" transform="translate(512.329 830.174)" fill="#dedfe0" opacity="0.5"/>
    <path id="Tracciato_22713" data-name="Tracciato 22713" d="M607.012,200.278c1.252-.061,1.266-.058,1.882.326-.058.225-.284.222-.437.3a3.115,3.115,0,0,0-.921,4.945c.171.2.421.346.408.657a3.2,3.2,0,0,1-3.406-2.714c-.272-1.5.7-2.882,2.473-3.518" transform="translate(435.147 671.25)" fill="#dedfe0" opacity="0.5"/>
    <path id="Tracciato_22714" data-name="Tracciato 22714" d="M702.087,475.582a3.131,3.131,0,0,0,2.314-5.029c-.2-.26-.223-.447.042-.669.242-.2.454-.443.679-.666,1.633.9,2.378,2.419,1.742,3.914-.72,1.689-2.124,3.07-4.129,2.728a1.129,1.129,0,0,1-.648-.277" transform="translate(353.224 445.469)" fill="#dedfe0" opacity="0.5"/>
    <path id="Tracciato_22715" data-name="Tracciato 22715" d="M471.258,326.943a9.956,9.956,0,0,0-6.1-.829,3.154,3.154,0,0,1,3.23-2.2,3.21,3.21,0,0,1,2.865,3.033" transform="translate(552.106 567.457)" fill="#dedfe0" opacity="0.5"/>
    <path id="Tracciato_22716" data-name="Tracciato 22716" d="M368.958,343.612l.049-.734c.387-.449.562-1.073,1.132-1.372q0,4.106,0,8.212a3.305,3.305,0,0,1-.952-.946c-.178-.165-.457.038-.623-.172.473-.753.156-1.6.3-2.4.16-.337.535-.624.327-1.054a3.967,3.967,0,0,1-.237-1.535" transform="translate(633.192 552.674)" fill="#dedfe0" opacity="0.5"/>
    <path id="Tracciato_22717" data-name="Tracciato 22717" d="M322.155,402.932c1.694-.039,3.388-.09,5.082.028a1.452,1.452,0,0,1-1.156,1.279c-.564.151-.906.7-1.33,1.088a3.064,3.064,0,0,1-2.6-2.395" transform="translate(672.152 501.149)" fill="#dedfe0" opacity="0.5"/>
    <path id="Tracciato_22718" data-name="Tracciato 22718" d="M420.845,201.1c-.842-1.108-2.158-1.371-3.35-1.824a3.258,3.258,0,0,0-2.24.222c.639-1.41,2.816-1.827,4.241-.8a3.041,3.041,0,0,1,1.349,2.4" transform="translate(594 673.028)" fill="#dedfe0" opacity="0.5"/>
    <path id="Tracciato_22719" data-name="Tracciato 22719" d="M431.924,460.185a3.118,3.118,0,0,0,2.782,2.653,3.2,3.2,0,0,0,3.337-2.069,3.075,3.075,0,0,1-6.119-.583" transform="translate(580.01 453.051)" fill="#dedfe0" opacity="0.5"/>
    <path id="Tracciato_22720" data-name="Tracciato 22720" d="M473.4,355.2l-2.558-.616c-.211-.051-.443-.1-.457-.365-.017-.332.276-.383.5-.412a4.589,4.589,0,0,1,3.4.831c-.2.335-.633.3-.879.562" transform="translate(547.724 542.388)" fill="#dedfe0" opacity="0.5"/>
    <path id="Tracciato_22721" data-name="Tracciato 22721" d="M430.312,312.635a9.136,9.136,0,0,0,4.48-.182,2.892,2.892,0,0,1-4.48.182" transform="translate(581.361 577.062)" fill="#dedfe0" opacity="0.5"/>
    <path id="Tracciato_22722" data-name="Tracciato 22722" d="M674.477,240.64l-.156.145.156-.145" transform="translate(376.531 637.345)" fill="#dedfe0" opacity="0.5"/>
    <path id="Tracciato_22723" data-name="Tracciato 22723" d="M458.156,311.8c0-.128.1-.13.191-.14-.028.1-.082.156-.191.14" transform="translate(557.988 577.732)" fill="#dedfe0" opacity="0.5"/>
    <path id="Tracciato_22724" data-name="Tracciato 22724" d="M414.4,206.536l-.179.126c.036-.076.05-.182.179-.126" transform="translate(594.866 665.986)" fill="#dedfe0" opacity="0.5"/>
    <path id="Tracciato_22725" data-name="Tracciato 22725" d="M533.392,58.343c-.078-.1-.189-.194-.059-.32a1.993,1.993,0,0,1,.208.166l-.149.153" transform="translate(494.932 790.64)" fill="#dedfe0" opacity="0.5"/>
    <path id="Tracciato_22726" data-name="Tracciato 22726" d="M251.912,248.512l.377.242a3.5,3.5,0,0,1,.7,2.094,13.671,13.671,0,0,1-.772,2.339c-.21-.232-.371-.046-.549.059a3.064,3.064,0,0,1-4.353-.733,32.676,32.676,0,0,1,2.178-2.843,3.028,3.028,0,0,0,2.419-1.157" transform="translate(734.976 630.737)" fill="#dedfe0" opacity="0.5"/>
    <path id="Tracciato_22727" data-name="Tracciato 22727" d="M368.466,505.914c2.057.413,3.07,1.468,3.061,3.187a3.14,3.14,0,1,1-4.644-2.758c.21-.115.429-.214.644-.32l.939-.108" transform="translate(635.975 414.665)" fill="#dedfe0" opacity="0.5"/>
    <path id="Tracciato_22728" data-name="Tracciato 22728" d="M297.2,268.447l.585-2.694a7.021,7.021,0,0,1,.559,2.106,2.741,2.741,0,0,1-1.144.588" transform="translate(693.098 616.264)" fill="#dedfe0" opacity="0.5"/>
    <path id="Tracciato_22729" data-name="Tracciato 22729" d="M402.309,356.171c-.325-.1-.859.2-.995-.2a4.854,4.854,0,0,1-.041-1.5.133.133,0,0,1,.033-.069,4.224,4.224,0,0,1,2.091-.027.919.919,0,0,1,.4,1.176c-.223.776-.919.542-1.49.615" transform="translate(605.771 541.966)" fill="#dedfe0" opacity="0.5"/>
    <path id="Tracciato_22730" data-name="Tracciato 22730" d="M363.433,267.661c0-.694.013-1.389-.006-2.083-.01-.345.123-.452.46-.48,1.4-.116,1.941.329,2.127,1.748a7.417,7.417,0,0,1-.032,1.994,1.764,1.764,0,0,1-2.285,1.476c-.313-.085-.259-.292-.261-.492-.007-.721,0-1.442,0-2.163" transform="translate(637.507 616.829)" fill="#dedfe0" opacity="0.5"/>
    <path id="Tracciato_22731" data-name="Tracciato 22731" d="M435.666,280.779a3.961,3.961,0,0,1-.188,1.561,1.387,1.387,0,0,1-2.677-.051,10.422,10.422,0,0,1-.193-1.17,3.824,3.824,0,0,1,3.057-.34" transform="translate(579.433 603.798)" fill="#dedfe0" opacity="0.5"/>
    <path id="Tracciato_22732" data-name="Tracciato 22732" d="M434.773,265.476a2.826,2.826,0,0,1-1.861,1.792c.19-1.564.654-2.01,1.861-1.792" transform="translate(579.178 616.54)" fill="#dedfe0" opacity="0.5"/>
    <path id="Tracciato_22733" data-name="Tracciato 22733" d="M345.037,364.05c-.144.794.173,1.646-.3,2.4-1.361.016-2.723.017-4.084.057-.5.015-.476-.281-.472-.616s-.054-.64.462-.624c.988.03,1.979-.01,2.967.016.447.012.623-.122.6-.588-.035-.64-.009-1.283-.009-1.924.471.3.585.837.838,1.281" transform="translate(657.022 534.826)" fill="#dedfe0" opacity="0.5"/>
    <path id="Tracciato_22734" data-name="Tracciato 22734" d="M340.222,357.025c1.675-.79,3.012-.614,3.994.526-1.163-.006-2.325-.021-3.488-.013-.376,0-.64-.043-.506-.514" transform="translate(657.016 540.054)" fill="#dedfe0" opacity="0.5"/>
  </g>
</svg>
