<svg xmlns="http://www.w3.org/2000/svg" width="160.873" height="21.6" viewBox="0 0 160.873 21.6">
  <g id="Raggruppa_3636" data-name="Raggruppa 3636" transform="translate(-603 -880.7)">
    <path id="Tracciato_22638" data-name="Tracciato 22638" d="M142.464,18.862c-.142,2.5-.142,2.5-2.483,2.5-2.276,0-2.276,0-2.276-2.319,0-5.922.018-11.845-.019-17.767-.005-.879.2-1.245,1.127-1.152,1.155.115,2.683-.469,3.382.225s.175,2.212.2,3.368c.03,1.3.007,2.593.007,4.077a16.813,16.813,0,0,1,1.436-1.5,6.026,6.026,0,0,1,8.82,1.976,10.463,10.463,0,0,1,.262,9.715,5.977,5.977,0,0,1-10.458.878m-.081-5.522c0,2.136,1.047,3.571,2.844,3.9a3.262,3.262,0,0,0,3.654-2.2c.692-2.017.029-4.33-1.486-5.179-2.407-1.35-5.013.459-5.012,3.479" transform="translate(501.043 880.7)" fill="#fff" opacity="0.8"/>
    <path id="Tracciato_22639" data-name="Tracciato 22639" d="M374.635,33.361a5.38,5.38,0,0,1-5.882,2.732,5.973,5.973,0,0,1-4.893-4.122,11.006,11.006,0,0,1,.07-8.211c1.545-3.964,7.3-5.981,10.7-1.411.25-2.381.25-2.381,2.736-2.381,2.048,0,2.048,0,2.048,1.994,0,4.319-.027,8.638.022,12.956.01.88-.267,1.161-1.092,1.058a8.46,8.46,0,0,0-1.036-.007c-2.477,0-2.477,0-2.672-2.607M367.961,27.9c-.018,2.438,1.218,3.949,3.273,4,1.989.05,3.456-1.568,3.487-3.847.032-2.333-1.308-3.925-3.333-3.96-2.121-.037-3.41,1.393-3.427,3.806" transform="translate(334.123 866.09)" fill="#fff" opacity="0.8"/>
    <path id="Tracciato_22640" data-name="Tracciato 22640" d="M492.341,28.852c-1.512,0-3.026.034-4.536-.014-.75-.024-.849.252-.728.914a2.821,2.821,0,0,0,5.177,1.208,1.051,1.051,0,0,1,1.1-.662c1.123.035,2.248.046,3.37,0,.774-.033.826.2.611.893a7.242,7.242,0,0,1-7.112,4.983c-3.687.033-6.569-1.886-7.432-5.245-.825-3.214-.715-6.378,1.771-8.969a8.149,8.149,0,0,1,9.131-1.449,7.539,7.539,0,0,1,4.1,7.47c-.046.658-.237.9-.917.885-1.511-.042-3.024-.013-4.536-.013m-2.305-2.079c.778,0,1.557-.024,2.334.008.628.026.7-.252.6-.793a2.738,2.738,0,0,0-2.824-2.343,2.983,2.983,0,0,0-3.023,2.327c-.123.634.055.854.7.812.732-.047,1.469-.011,2.2-.011" transform="translate(245.833 866.091)" fill="#fff" opacity="0.8"/>
    <path id="Tracciato_22641" data-name="Tracciato 22641" d="M73.72,33.6a6.012,6.012,0,0,1-4.16,2.747c-3.783.427-6.425-1.91-6.6-6.039-.131-3.1-.023-6.216-.044-9.325,0-.529.121-.734.707-.783,3.975-.333,3.973-.349,3.974,3.583,0,1.727-.034,3.455.016,5.181.064,2.166,1.108,3.34,2.928,3.4,1.839.064,3.1-1.156,3.182-3.323.1-2.587.065-5.181.016-7.77-.016-.838.206-1.148,1.067-1.074a13.6,13.6,0,0,0,2.587,0c.968-.1,1.109.305,1.1,1.164q-.063,6.865,0,13.73c.009.9-.226,1.261-1.139,1.136a9.648,9.648,0,0,0-1.294-.01c-2.257,0-2.257,0-2.344-2.618" transform="translate(556.426 865.845)" fill="#fff" opacity="0.8"/>
    <path id="Tracciato_22642" data-name="Tracciato 22642" d="M0,30.461H2.792c.909,0,1.8-.224,2.208,1.1.291.935,2.164,1.3,3.112.869a1.231,1.231,0,0,0,.759-1.112,1.2,1.2,0,0,0-.685-1.279,13.7,13.7,0,0,0-2.7-.865,24.3,24.3,0,0,1-2.478-.726A4.367,4.367,0,0,1,1.668,20.98c3.424-3.017,9.751-1.241,11.144,3.1.269.837.112,1.094-.752,1.028a14.954,14.954,0,0,0-2.074,0c-.822.052-1.482.01-1.794-.981a1.747,1.747,0,0,0-1.432-1c-.953-.2-1.9-.223-2.255.887-.358,1.136.525,1.512,1.393,1.771,1.279.381,2.584.683,3.852,1.1,2.526.824,3.584,2.258,3.5,4.627-.076,2.139-1.409,3.645-3.865,4.233a9.4,9.4,0,0,1-5.361-.257C1.8,34.709.639,33.273,0,30.461" transform="translate(603 866.277)" fill="#fff" opacity="0.8"/>
    <path id="Tracciato_22643" data-name="Tracciato 22643" d="M207.087,30.423c1.328,0,2.615.017,3.9-.009.473-.01.62.188.8.613a2.645,2.645,0,0,0,3.111,1.451,1.2,1.2,0,0,0,1.028-1.023,1.245,1.245,0,0,0-.619-1.428,12.488,12.488,0,0,0-2.7-.883c-.788-.216-1.592-.388-2.361-.658a3.949,3.949,0,0,1-2.926-3.138,4.532,4.532,0,0,1,1.773-4.7c3.535-2.622,9.347-.809,10.765,3.326.3.89.139,1.18-.8,1.092a10.824,10.824,0,0,0-1.814,0c-.9.066-1.628,0-2.029-1.041a1.953,1.953,0,0,0-1.716-1.01c-.883-.112-1.717.037-1.956,1.033-.232.963.455,1.419,1.253,1.658,1.32.4,2.672.693,3.981,1.122,2.614.855,3.647,2.277,3.536,4.73-.093,2.077-1.49,3.636-3.948,4.172a9.023,9.023,0,0,1-5.954-.562,5.806,5.806,0,0,1-3.328-4.744" transform="translate(449.651 866.315)" fill="#fff" opacity="0.8"/>
    <path id="Tracciato_22644" data-name="Tracciato 22644" d="M437.942,16.925c0-.562-.02-1.124,0-1.685.048-1.09.2-2.224-1.532-1.877-.477.1-.556-.26-.55-.649.01-.6.035-1.212-.006-1.815-.073-1.078-.068-2.025,1.48-1.689.566.123.609-.3.6-.725-.009-.821.031-1.644-.013-2.463-.031-.582.207-.775.748-.731.257.021.518,0,.778,0,1.028.03,2.327-.3,3.006.2.649.481.225,1.858.189,2.833-.036.956.506.894,1.147.9,1.954.009,1.954.021,1.954,1.958v.259c0,1.914,0,1.969-1.881,1.907-.954-.031-1.285.206-1.222,1.208.095,1.506.01,3.024.029,4.536.02,1.557.346,1.933,1.923,1.859.995-.047,1.343.267,1.19,1.219a3.279,3.279,0,0,0,0,.518c0,2.711,0,2.711-2.7,2.525-3.236-.223-4.828-1.77-5.1-5.052-.088-1.073-.014-2.159-.014-3.239h-.032" transform="translate(280.261 876.837)" fill="#fff" opacity="0.8"/>
    <path id="Tracciato_22645" data-name="Tracciato 22645" d="M270.238,5.421c2.287,0,2.287,0,2.288,2.279,0,1.645,0,1.711,1.764,1.623,1.044-.052,1.552.187,1.335,1.308a2.774,2.774,0,0,0,0,.517c0,2.256,0,2.283-2.22,2.337-.653.016-.91.163-.89.866.048,1.683.031,3.368.01,5.053-.015,1.173.476,1.86,1.7,1.688,1.253-.176,1.6.371,1.419,1.49a.822.822,0,0,0,0,.129c0,2.861,0,2.861-2.85,2.611-3.2-.281-4.835-1.957-4.946-5.179-.064-1.855-.06-3.714-.009-5.57.022-.814-.164-1.233-1.05-1.072s-1.152-.24-1.053-1.071a7.167,7.167,0,0,0,0-1.423c-.088-1.085-.052-2,1.478-1.672.553.119.614-.3.607-.732-.012-.691.057-1.389-.017-2.071-.1-.919.251-1.238,1.142-1.119a9.832,9.832,0,0,0,1.295.01" transform="translate(406.243 876.711)" fill="#fff" opacity="0.8"/>
    <path id="Tracciato_22646" data-name="Tracciato 22646" d="M322.191,23.078a7.14,7.14,0,0,1,4.371-3.022c.713-.138,1.042-.044,1,.779-.053,1.163-.047,2.331,0,3.493.027.651-.138.953-.844.909a7.57,7.57,0,0,0-1.544.1c-2.034.3-2.941,1.351-2.978,3.537q-.053,3.17.006,6.341c.013.707-.158,1.02-.926.969-1.2-.079-2.745.369-3.513-.224-.818-.631-.244-2.25-.257-3.433-.041-3.71.03-7.421-.043-11.129-.021-1.065.326-1.338,1.3-1.243a11.5,11.5,0,0,0,2.327,0c.94-.1,1.224.269,1.107,1.151a16.375,16.375,0,0,0-.01,1.773" transform="translate(368.02 865.886)" fill="#fff" opacity="0.8"/>
    <path id="Tracciato_22647" data-name="Tracciato 22647" d="M563.748,70.271c-2.373,0-4.747-.027-7.119.014-.829.014-1.113-.245-1.132-1.1-.074-3.372-.1-3.371,3.236-3.371,4.1,0,8.2.024,12.3-.018.9-.009,1.174.244,1.176,1.158.008,3.318.042,3.318-3.281,3.318h-5.178" transform="translate(191.665 831.978)" fill="#fff" opacity="0.8"/>
  </g>
</svg>
