<svg xmlns="http://www.w3.org/2000/svg" width="159.531" height="68.001" viewBox="0 0 159.531 68.001">
  <g id="Raggruppa_3637" data-name="Raggruppa 3637" transform="translate(-264.762 -857.499)">
    <path id="Tracciato_22648" data-name="Tracciato 22648" d="M.909.01A53.8,53.8,0,0,0,7.042,2.686c7.77,3.241,15.562,6.426,23.345,9.635,3.087,1.273,3.936,2.536,3.952,5.856.005,1.094.008,2.189,0,3.282a5.08,5.08,0,0,1-3.388,5.1c-3.3,1.331-6.589,2.7-10.193,4.181,1.744.742,3.2,1.373,4.666,1.983,1.844.768,3.686,1.541,5.545,2.273a4.886,4.886,0,0,1,3.351,4.823q.072,5.422,0,10.846a5.005,5.005,0,0,1-3.48,4.88C21.156,59.516,11.5,63.535,1.823,67.527a3.342,3.342,0,0,1-1.772.456V50.275c2.755-1.168,5.5-2.353,8.268-3.5q9.35-3.879,18.712-7.73c.606-.25,1.372-.429,1.375-1.253s-.778-1.009-1.371-1.264a40.23,40.23,0,0,1-4.852-2.055c-3.609-2.157-6.956-1.9-10.662-.005A82.216,82.216,0,0,1,.052,39.137V27.713C1.813,27,3.576,26.289,5.334,25.566q10.482-4.311,20.954-8.647c.827-.345,2.127-.438,2.112-1.609s-1.344-1.177-2.159-1.545c-1.862-.839-3.771-1.574-5.657-2.358Q10.316,7.139.052,2.866A12.579,12.579,0,0,0,.028.728C-.131-.179.436.023.909.01" transform="translate(264.761 857.5)" fill="#fff" opacity="0.8"/>
    <path id="Tracciato_22649" data-name="Tracciato 22649" d="M209.481,66.266q.759-2.859,1.518-5.717c.11-.413.2-.832.341-1.236.321-.947,1.131-.779,1.8-.649.815.16.446.83.321,1.277-.881,3.158-1.8,6.3-2.692,9.459a1.27,1.27,0,0,1-1.387,1.119c-.8-.014-1.048-.466-1.225-1.116a74.444,74.444,0,0,0-2.321-7.424c-.652,2.44-1.337,4.873-1.938,7.326a1.34,1.34,0,0,1-1.734,1.18c-.744-.116-.807-.737-.96-1.263-.891-3.056-1.774-6.115-2.619-9.184-.128-.465-.621-1.19.313-1.381.733-.149,1.558-.239,1.829.815.438,1.7.895,3.4,1.346,5.1.145.544.3,1.086.52,1.9a12.529,12.529,0,0,0,1.01-3.086c.362-1.23.686-2.472,1-3.717a1.457,1.457,0,0,1,2.823.023c.578,2.191,1.175,4.378,1.764,6.566l.3.009" transform="translate(123.072 815.663)" fill="#dedfe0" opacity="0.8"/>
    <path id="Tracciato_22650" data-name="Tracciato 22650" d="M302.049,59.337c.109,1.273-.622,1.257-1.388,1.221-.953-.046-.827-.757-.828-1.353-.011-4.376,0-8.752-.009-13.128,0-.762.015-1.411,1.086-1.417,1.052-.005,1.128.6,1.117,1.388-.017,1.222,0,2.444,0,3.657.534.054.7-.3.958-.472a4.794,4.794,0,0,1,6.928,1.572,7.577,7.577,0,0,1,.141,7.4c-1.519,2.943-4.862,3.468-8,1.135m6.458-4.857a13.017,13.017,0,0,0-.219-1.533,3.066,3.066,0,0,0-3.07-2.642,3.167,3.167,0,0,0-3.069,2.675,6.708,6.708,0,0,0-.01,3.242,3.167,3.167,0,0,0,3.182,2.712,3.293,3.293,0,0,0,3.073-3.02c.067-.42.069-.85.113-1.434" transform="translate(50.568 825.595)" fill="#dedfe0" opacity="0.8"/>
    <path id="Tracciato_22651" data-name="Tracciato 22651" d="M359.96,129.855c0-1.479.015-2.758-.006-4.036-.012-.754.257-1.137,1.072-1.136.774,0,1.128.283,1.126,1.082-.013,4.562,0,9.125-.006,13.687,0,.54-.028,1.08-.773,1.115-.788.037-1.618.143-1.434-1.18-3.783,2.8-7.6,1.314-8.55-3.1a7.907,7.907,0,0,1,.391-4.618c1.3-3.374,4.741-4.211,8.18-1.818m.044,4.737c-.012-2.6-1.263-4.269-3.206-4.27-1.886,0-3.116,1.593-3.2,4.146-.085,2.624,1.2,4.449,3.148,4.481,2,.033,3.27-1.672,3.258-4.357" transform="translate(13.859 768.426)" fill="#dedfe0" opacity="0.8"/>
    <path id="Tracciato_22652" data-name="Tracciato 22652" d="M348.919,43.465a18.364,18.364,0,0,1,2.09.4,3.8,3.8,0,0,1,1.58,6.545c-.725.686-.718.892.092,1.477a4.31,4.31,0,0,1,.841,5.779c-1.4,2.032-3.519,2.468-5.8,2.292a4.9,4.9,0,0,1-4.51-3.185c-.234-.591-.819-1.417.131-1.841.886-.4,1.556-.091,1.963.971a3.6,3.6,0,0,0,5.56,1.536,2.7,2.7,0,0,0-.443-4.6,6.191,6.191,0,0,0-2.21-.519c-.7-.058-1.035-.34-1.03-1.059.005-.749.453-.964,1.089-1.04a10.92,10.92,0,0,0,1.681-.279,1.964,1.964,0,0,0,1.541-2.115,2.125,2.125,0,0,0-1.505-2.171,3.217,3.217,0,0,0-4.425,1.848,1.312,1.312,0,0,1-1.914.856c-.9-.318-.393-1.054-.216-1.573.722-2.119,2.773-3.312,5.49-3.325" transform="translate(19.856 826.448)" fill="#dedfe0" opacity="0.8"/>
    <path id="Tracciato_22653" data-name="Tracciato 22653" d="M259.985,64.749c-1.14,0-2.282.022-3.421-.007-.833-.021-.944.353-.764,1.071a3.477,3.477,0,0,0,5.656,1.518c.278-.256.475-.634.79-.807a1.485,1.485,0,0,1,1.74.013c.469.448-.048.977-.318,1.387-1.407,2.142-4.725,2.875-7.309,1.642-2.444-1.166-3.717-4.364-2.924-7.347.8-3.005,3-4.689,5.909-4.515a5.8,5.8,0,0,1,5.193,6.094c-.069.745-.462.956-1.131.945-1.14-.018-2.281-.005-3.422-.005Zm-1.057-1.921c.757,0,1.515-.022,2.272.006s1.07-.255.78-1.018a3.094,3.094,0,0,0-2.708-2.189A3.2,3.2,0,0,0,256,61.413c-.447.983-.306,1.536.94,1.428.657-.057,1.324-.01,1.987-.012" transform="translate(83.876 816.284)" fill="#dedfe0" opacity="0.8"/>
    <path id="Tracciato_22654" data-name="Tracciato 22654" d="M404.8,148.784a5.419,5.419,0,0,1-5.446,1.155,3.226,3.226,0,0,1-2.444-3,3.094,3.094,0,0,1,1.91-3.067,15.513,15.513,0,0,1,4.664-1.242c1.13-.194,1.42-.752.935-1.791a2.119,2.119,0,0,0-1.933-1.242,2.4,2.4,0,0,0-2.375.982c-.183.275-.264.62-.462.881a1.348,1.348,0,0,1-1.692.3c-.73-.28-.349-.882-.169-1.334.742-1.865,2.884-2.9,5.366-2.619a3.8,3.8,0,0,1,3.628,3.58c.388,2.552.059,5.131.237,7.692a.7.7,0,0,1-.727.841c-.807.088-1.4-.109-1.492-1.131m-3.156-.4a2.764,2.764,0,0,0,2.72-1.454c.345-.666.768-1.47.342-2.145-.452-.716-1.3-.273-1.974-.19a7.828,7.828,0,0,0-1.78.453c-.916.345-1.825.8-1.537,2.023.271,1.143,1.224,1.319,2.229,1.313" transform="translate(-18.789 759.086)" fill="#dedfe0" opacity="0.8"/>
    <path id="Tracciato_22655" data-name="Tracciato 22655" d="M488.838,144.017c-.026,3.679-2.3,6.155-5.658,6.164-3.378.009-5.811-2.6-5.809-6.229,0-3.645,2.419-6.244,5.8-6.234,3.4.01,5.7,2.565,5.671,6.3m-2.367-.278c-.013-.2-.013-.625-.074-1.046a3.272,3.272,0,0,0-3.2-3.043,3.193,3.193,0,0,0-3.281,2.773,6.235,6.235,0,0,0,.087,3.37,3.176,3.176,0,0,0,2.682,2.43c2.178.324,3.783-1.483,3.789-4.484" transform="translate(-76.271 759.114)" fill="#dedfe0" opacity="0.8"/>
    <path id="Tracciato_22656" data-name="Tracciato 22656" d="M233.84,143.973c-.006,3.73-2.339,6.247-5.753,6.208-3.378-.039-5.769-2.68-5.711-6.309.057-3.6,2.411-6.123,5.73-6.15,3.375-.027,5.739,2.55,5.734,6.252m-2.378-.412a7.954,7.954,0,0,0-.087-1.018,3.335,3.335,0,0,0-3.2-2.9,3.2,3.2,0,0,0-3.232,2.654A6.434,6.434,0,0,0,225,145.81a3.139,3.139,0,0,0,4.615,2.025c1.534-.833,1.883-2.275,1.847-4.275" transform="translate(105.897 759.112)" fill="#dedfe0" opacity="0.8"/>
    <path id="Tracciato_22657" data-name="Tracciato 22657" d="M313.062,139.239a5.1,5.1,0,0,1,3.647-1.528c2.242-.011,3.722,1.082,3.89,3.306.2,2.646.093,5.316.121,7.975.009.8-.51.89-1.144.9-.716.011-1.037-.294-1.036-1.017,0-2.233.027-4.467-.043-6.7a2.312,2.312,0,0,0-2.044-2.516,2.828,2.828,0,0,0-3.133,1.918,6.083,6.083,0,0,0-.3,2.105c.012,1.663-.016,3.326.006,4.989.011.8-.22,1.235-1.127,1.231-.943,0-1.081-.521-1.078-1.279.013-3.089,0-6.177.01-9.266,0-.595-.125-1.3.826-1.353.756-.039,1.474-.058,1.4,1.233" transform="translate(42.711 759.119)" fill="#dedfe0" opacity="0.8"/>
    <path id="Tracciato_22658" data-name="Tracciato 22658" d="M526.036,138.914a14.815,14.815,0,0,1,1.816-1.071c3.082-1.229,5.646.334,5.83,3.648.132,2.369.027,4.751.052,7.127.009.8-.357,1.077-1.128,1.078-.818,0-1.075-.388-1.07-1.139.015-2,.019-3.992-.008-5.988-.028-2.087-.768-3.056-2.331-3.135a2.853,2.853,0,0,0-3.08,2.887c-.164,1.935-.074,3.892-.093,5.84-.007.769.094,1.543-1.1,1.543s-1.1-.774-1.1-1.543c0-2.994-.008-5.989.007-8.982,0-.587-.147-1.322.805-1.368.734-.035,1.53-.145,1.4,1.106" transform="translate(-109.457 759.323)" fill="#dedfe0" opacity="0.8"/>
    <path id="Tracciato_22659" data-name="Tracciato 22659" d="M276.194,149.47c-.469.326-.8.593-1.16.8-2.846,1.635-5.932.128-6.146-3.114-.163-2.46-.047-4.939-.078-7.409-.01-.8.347-1.083,1.123-1.083.814,0,1.08.379,1.074,1.134-.015,2-.021,3.992.009,5.986.031,2.117.666,3.02,2.134,3.141,1.639.135,2.849-.918,3-2.909s.078-3.988.077-5.982c0-.793.083-1.385,1.127-1.376,1.075.008,1.079.667,1.077,1.422-.006,3.041,0,6.082-.009,9.123,0,.594.128,1.306-.824,1.354-.751.038-1.479.072-1.407-1.088" transform="translate(72.733 758.441)" fill="#dedfe0" opacity="0.8"/>
    <path id="Tracciato_22660" data-name="Tracciato 22660" d="M202.97,135.628c0,1.283-.017,2.566.006,3.848.014.775-.3,1.11-1.1,1.11s-1.106-.33-1.1-1.107c.015-2.47-.011-4.941,0-7.411.005-.8.02-1.537-1.062-1.651-.45-.047-.578-.442-.562-.861s.125-.813.6-.828c.93-.029.992-.606,1.05-1.341.16-2.037,1.1-2.793,3.206-2.706.546.022,1.072.038,1.148.76a.875.875,0,0,1-.966,1.095c-.717.022-1.161.309-1.207,1.095-.043.719.229,1.072.974,1.048.6-.019,1.171.029,1.206.845.033.789-.478.972-1.105.968-.9-.005-1.145.5-1.082,1.287,0,.047,0,.1,0,.143q0,1.853,0,3.706Z" transform="translate(122.484 768.433)" fill="#dedfe0" opacity="0.8"/>
    <path id="Tracciato_22661" data-name="Tracciato 22661" d="M437.184,137.458c0-.854-.011-1.708,0-2.562.013-.962.162-1.969-1.312-1.987-.442-.005-.569-.449-.545-.863s.14-.829.612-.814c1.154.036,1.326-.629,1.246-1.556-.071-.834.034-1.527,1.151-1.5,1.045.027,1.106.7,1.041,1.463-.087,1.01.137,1.679,1.362,1.567.593-.055.83.346.831.908,0,.52-.279.859-.764.836-1.4-.066-1.47.781-1.437,1.841.051,1.612.033,3.227.009,4.84-.014.921.184,1.6,1.294,1.611.642.006.935.374.9,1.015-.041.7-.514.789-1.085.831-2.416.179-3.244-.54-3.3-2.926-.02-.9,0-1.8-.005-2.7" transform="translate(-46.233 765.931)" fill="#dedfe0" opacity="0.8"/>
    <path id="Tracciato_22662" data-name="Tracciato 22662" d="M465.016,144.661c0,1.521-.014,3.042.006,4.562.011.8-.1,1.384-1.138,1.365-.95-.017-1.07-.541-1.067-1.291.012-3.136.017-6.273,0-9.409,0-.808.239-1.226,1.138-1.221.951.006,1.074.54,1.067,1.289-.016,1.569,0,3.136,0,4.7" transform="translate(-65.873 758.437)" fill="#dedfe0" opacity="0.8"/>
  </g>
</svg>
