<svg data-name="Componente 6 – 2" xmlns="http://www.w3.org/2000/svg" width="233.031" height="31.289"><path data-name="Tracciato 22638" d="M58.675 27.323c-.206 3.617-.206 3.617-3.6 3.617-3.3 0-3.3 0-3.3-3.36 0-8.579.026-17.158-.028-25.736-.008-1.273.286-1.8 1.632-1.668 1.673.167 3.887-.679 4.9.326s.253 3.2.292 4.879c.044 1.877.01 3.756.01 5.905a24.356 24.356 0 012.087-2.172c3.885-3.142 10.262-1.76 12.776 2.863a15.156 15.156 0 01.379 14.073c-2.68 5.964-11.27 7.281-15.148 1.272m-.118-8c0 3.094 1.516 5.172 4.12 5.647a4.726 4.726 0 005.293-3.184c1-2.921.041-6.272-2.152-7.5-3.486-1.955-7.261.665-7.261 5.039" fill="#fff" opacity=".5"/><path data-name="Tracciato 22639" d="M153.193 27.162c-2.089 3.492-5.023 4.437-8.521 3.957-3.59-.493-5.84-2.761-7.087-5.971a15.943 15.943 0 01.1-11.894c2.238-5.742 10.581-8.663 15.5-2.044.362-3.449.362-3.449 3.964-3.449 2.967 0 2.967 0 2.967 2.889 0 6.256-.039 12.512.032 18.767.014 1.275-.387 1.681-1.582 1.532a12.254 12.254 0 00-1.5-.01c-3.588 0-3.588 0-3.87-3.777m-9.668-7.916c-.026 3.532 1.764 5.721 4.741 5.8 2.881.073 5.006-2.271 5.052-5.572.046-3.38-1.894-5.686-4.828-5.737-3.073-.054-4.939 2.018-4.964 5.513" fill="#fff" opacity=".5"/><path data-name="Tracciato 22640" d="M195.804 20.631c-2.191 0-4.383.049-6.571-.02-1.086-.035-1.229.366-1.054 1.324.321 1.759 1.146 3.1 2.946 3.472 1.817.379 3.564.109 4.553-1.722a1.523 1.523 0 011.593-.959c1.626.05 3.257.067 4.881 0 1.121-.048 1.2.3.885 1.294-1.35 4.331-5.343 7.173-10.3 7.218-5.341.048-9.516-2.732-10.765-7.6-1.2-4.655-1.036-9.239 2.565-12.992 3.213-3.348 8.774-4.175 13.226-2.1a10.921 10.921 0 015.943 10.82c-.066.954-.344 1.31-1.328 1.283-2.189-.061-4.381-.019-6.571-.019m-3.339-3.011c1.127 0 2.255-.035 3.381.011.91.038 1.014-.366.875-1.148a3.967 3.967 0 00-4.091-3.393 4.32 4.32 0 00-4.379 3.371c-.178.919.08 1.237 1.02 1.176 1.06-.068 2.129-.016 3.193-.017" fill="#fff" opacity=".5"/><path data-name="Tracciato 22641" d="M39.322 27.147c-1.71 2.257-3.52 3.7-6.026 3.98-5.479.618-9.307-2.767-9.56-8.748-.19-4.5-.033-9-.064-13.507-.005-.767.176-1.063 1.024-1.134 5.759-.483 5.756-.506 5.757 5.19 0 2.5-.05 5 .024 7.5.092 3.138 1.605 4.838 4.241 4.93 2.664.093 4.493-1.674 4.609-4.813.138-3.748.094-7.5.023-11.256-.023-1.214.3-1.663 1.546-1.555a19.693 19.693 0 003.748 0c1.4-.148 1.606.442 1.595 1.686q-.091 9.944 0 19.888c.013 1.306-.327 1.827-1.651 1.646a13.976 13.976 0 00-1.875-.014c-3.27 0-3.27 0-3.4-3.792" fill="#fff" opacity=".5"/><path data-name="Tracciato 22642" d="M0 23.231h4.045c1.317 0 2.6-.325 3.2 1.588.422 1.354 3.135 1.885 4.507 1.259a1.783 1.783 0 001.1-1.611 1.742 1.742 0 00-.992-1.853 19.851 19.851 0 00-3.913-1.254 35.2 35.2 0 01-3.59-1.051 6.326 6.326 0 01-1.94-10.811c4.96-4.37 14.125-1.8 16.143 4.486.389 1.212.162 1.584-1.089 1.489a21.661 21.661 0 00-3 0c-1.191.076-2.147.015-2.6-1.42a2.53 2.53 0 00-2.074-1.443c-1.381-.289-2.759-.323-3.266 1.285-.519 1.645.761 2.19 2.018 2.565 1.853.553 3.743.989 5.58 1.588 3.66 1.194 5.191 3.271 5.069 6.7-.11 3.1-2.041 5.28-5.6 6.131a13.614 13.614 0 01-7.765-.372C2.612 29.384.926 27.304 0 23.231" fill="#fff" opacity=".5"/><path data-name="Tracciato 22643" d="M77.841 23.232c1.923 0 3.788.025 5.652-.013.684-.014.9.272 1.154.888a3.831 3.831 0 004.506 2.1 1.738 1.738 0 001.488-1.481 1.8 1.8 0 00-.9-2.068 18.09 18.09 0 00-3.9-1.278c-1.142-.312-2.306-.563-3.42-.954-2.189-.768-3.852-2.123-4.239-4.546a6.564 6.564 0 012.572-6.804c5.121-3.8 13.54-1.172 15.593 4.817.442 1.289.2 1.71-1.155 1.581a15.68 15.68 0 00-2.627 0c-1.307.1-2.358 0-2.939-1.508a2.83 2.83 0 00-2.486-1.463c-1.28-.163-2.487.054-2.834 1.5-.336 1.4.659 2.055 1.816 2.4 1.913.574 3.87 1 5.766 1.625 3.786 1.239 5.282 3.3 5.122 6.852-.135 3.009-2.159 5.266-5.719 6.043a13.07 13.07 0 01-8.624-.814 8.41 8.41 0 01-4.821-6.871" fill="#fff" opacity=".5"/><path data-name="Tracciato 22644" d="M166.876 18.921c0-.814-.029-1.629.006-2.441.069-1.578.285-3.221-2.219-2.719-.691.139-.805-.377-.8-.94.014-.876.051-1.756-.008-2.629-.106-1.561-.1-2.933 2.144-2.447.821.178.882-.432.876-1.05-.012-1.189.044-2.381-.018-3.567-.044-.843.3-1.123 1.083-1.059.373.03.751-.005 1.127.006 1.489.044 3.37-.436 4.354.294.94.7.327 2.692.274 4.1-.051 1.386.733 1.295 1.662 1.3 2.831.012 2.831.03 2.831 2.836v.376c0 2.773 0 2.852-2.724 2.762-1.382-.045-1.862.3-1.77 1.749.138 2.182.015 4.38.042 6.57.029 2.256.5 2.8 2.786 2.692 1.441-.068 1.946.387 1.723 1.765a4.75 4.75 0 00-.005.75c0 3.927 0 3.927-3.918 3.658-4.688-.323-6.993-2.564-7.382-7.317-.127-1.554-.02-3.127-.02-4.692h-.046" fill="#fff" opacity=".5"/><path data-name="Tracciato 22645" d="M106.44 2.074c3.313 0 3.313 0 3.314 3.3 0 2.382 0 2.478 2.555 2.351 1.513-.076 2.248.27 1.934 1.895a4.018 4.018 0 00-.006.75c0 3.268 0 3.307-3.216 3.385-.946.023-1.318.237-1.289 1.254.069 2.438.045 4.879.015 7.319-.021 1.7.69 2.694 2.462 2.445 1.816-.255 2.317.538 2.056 2.159a1.193 1.193 0 000 .187c0 4.144 0 4.144-4.129 3.781-4.64-.407-7-2.834-7.165-7.5-.092-2.687-.086-5.38-.014-8.068.032-1.179-.238-1.786-1.521-1.554-1.263.229-1.669-.348-1.525-1.552a10.381 10.381 0 00.005-2.062c-.128-1.572-.076-2.9 2.141-2.423.8.172.889-.434.879-1.061-.017-1 .083-2.011-.025-3-.145-1.332.363-1.793 1.655-1.621a14.242 14.242 0 001.875.014" fill="#fff" opacity=".5"/><path data-name="Tracciato 22646" d="M126.326 11.972c1.911-2.462 3.8-3.887 6.331-4.377 1.032-.2 1.51-.064 1.455 1.128a58.886 58.886 0 000 5.06c.039.943-.2 1.381-1.223 1.317a10.965 10.965 0 00-2.237.144c-2.947.429-4.261 1.956-4.313 5.123q-.077 4.592.008 9.186c.019 1.024-.229 1.478-1.342 1.4-1.737-.114-3.976.534-5.089-.324-1.185-.915-.354-3.259-.373-4.972-.059-5.374.043-10.749-.062-16.121-.03-1.543.472-1.938 1.887-1.8a16.664 16.664 0 003.37 0c1.361-.145 1.773.389 1.6 1.667a23.726 23.726 0 00-.015 2.568" fill="#fff" opacity=".5"/><path data-name="Tracciato 22647" d="M220.776 31.215c-3.437 0-6.876-.039-10.312.021-1.2.021-1.612-.356-1.639-1.594-.107-4.884-.149-4.883 4.688-4.883 5.938 0 11.876.035 17.813-.027 1.3-.014 1.7.353 1.7 1.677.012 4.807.061 4.806-4.753 4.806h-7.5" fill="#fff" opacity=".5"/></svg>