<svg data-name="Componente 5 – 2" xmlns="http://www.w3.org/2000/svg" width="231.086" height="98.501"><path data-name="Tracciato 22648" d="M1.315.015a77.932 77.932 0 008.884 3.878c11.254 4.7 22.542 9.309 33.816 13.957 4.471 1.844 5.7 3.673 5.724 8.483.007 1.585.012 3.17 0 4.755-.033 3.524-1.553 6.043-4.907 7.394-4.783 1.927-9.544 3.912-14.765 6.057 2.526 1.075 4.636 1.988 6.759 2.872 2.671 1.112 5.34 2.233 8.032 3.292a7.078 7.078 0 014.854 6.987q.1 7.854 0 15.711c-.044 3.467-1.8 5.74-5.041 7.069-14.026 5.743-28.02 11.564-42.03 17.348a4.841 4.841 0 01-2.566.66V72.827c3.991-1.691 7.972-3.408 11.977-5.068q13.544-5.619 27.105-11.2c.878-.363 1.987-.621 1.992-1.815s-1.127-1.462-1.986-1.831c-2.34-1.005-4.866-1.684-7.028-2.977-5.228-3.124-10.077-2.755-15.445-.008A119.093 119.093 0 01.074 56.692V40.144c2.55-1.036 5.105-2.063 7.651-3.11q15.183-6.245 30.352-12.526c1.2-.5 3.081-.634 3.059-2.33s-1.946-1.705-3.128-2.238c-2.7-1.216-5.462-2.28-8.2-3.416Q14.942 10.342.074 4.152a18.221 18.221 0 00-.035-3.1C-.191-.258.631.035 1.315.015" fill="#fff" opacity=".5"/><path data-name="Tracciato 22649" d="M98.198 35.387l2.2-8.282c.159-.6.3-1.2.494-1.79.465-1.372 1.639-1.129 2.6-.94 1.18.231.646 1.2.465 1.85-1.276 4.574-2.612 9.131-3.9 13.7a1.839 1.839 0 01-2.01 1.621c-1.165-.02-1.519-.674-1.774-1.616a107.837 107.837 0 00-3.363-10.755c-.944 3.535-1.937 7.059-2.807 10.612a1.941 1.941 0 01-2.512 1.709c-1.078-.168-1.17-1.068-1.391-1.829a939.654 939.654 0 01-3.794-13.3c-.185-.674-.9-1.723.454-2 1.061-.216 2.257-.346 2.649 1.18.634 2.466 1.3 4.925 1.95 7.385.209.788.429 1.573.753 2.752a18.15 18.15 0 001.463-4.47c.525-1.782.993-3.581 1.445-5.384a2.11 2.11 0 014.089.034c.837 3.174 1.7 6.341 2.555 9.511l.434.012" fill="#fff" opacity=".5"/><path data-name="Tracciato 22650" d="M127.262 39.736c.158 1.843-.9 1.822-2.011 1.768-1.38-.066-1.2-1.1-1.2-1.959-.016-6.339 0-12.678-.013-19.016 0-1.1.022-2.045 1.574-2.052 1.524-.007 1.633.873 1.618 2.011-.024 1.77-.007 3.54-.007 5.3.774.079 1.012-.431 1.388-.684a6.944 6.944 0 0110.035 2.277 10.975 10.975 0 01.2 10.714c-2.2 4.264-7.042 5.024-11.589 1.644m9.355-7.035a18.857 18.857 0 00-.317-2.22c-.628-2.5-2.236-3.849-4.447-3.827-2.183.022-3.835 1.435-4.446 3.874a9.716 9.716 0 00-.015 4.7c.618 2.537 2.358 3.986 4.609 3.928s4.044-1.8 4.452-4.374c.1-.608.1-1.231.164-2.077" fill="#fff" opacity=".5"/><path data-name="Tracciato 22651" d="M157.973 59.074c0-2.143.022-4-.008-5.846-.018-1.092.372-1.647 1.553-1.646 1.122 0 1.634.41 1.63 1.567-.019 6.609 0 13.217-.008 19.826 0 .783-.04 1.565-1.119 1.615-1.141.053-2.344.207-2.078-1.709-5.479 4.06-11 1.9-12.385-4.485a11.454 11.454 0 01.566-6.689c1.889-4.887 6.868-6.1 11.849-2.634m.063 6.861c-.018-3.772-1.829-6.184-4.645-6.185-2.732 0-4.514 2.308-4.634 6.005-.124 3.8 1.734 6.445 4.559 6.491 2.891.047 4.737-2.422 4.719-6.311" fill="#fff" opacity=".5"/><path data-name="Tracciato 22652" d="M150.667 17.982a26.6 26.6 0 013.028.585 5.5 5.5 0 012.289 9.481c-1.05.993-1.04 1.292.133 2.139a6.243 6.243 0 011.218 8.372c-2.03 2.944-5.1 3.576-8.408 3.32a7.093 7.093 0 01-6.533-4.614c-.338-.856-1.186-2.052.189-2.667 1.284-.574 2.255-.132 2.843 1.406a5.211 5.211 0 008.054 2.224 3.917 3.917 0 00-.641-6.665 8.967 8.967 0 00-3.2-.751c-1.012-.084-1.5-.492-1.493-1.534.008-1.085.657-1.4 1.578-1.507a15.816 15.816 0 002.435-.4 2.845 2.845 0 002.232-3.063 3.078 3.078 0 00-2.18-3.145c-2.784-1.028-5.387-.046-6.41 2.676a1.9 1.9 0 01-2.772 1.239c-1.3-.461-.569-1.527-.313-2.278 1.046-3.07 4.017-4.8 7.953-4.816" fill="#fff" opacity=".5"/><path data-name="Tracciato 22653" d="M114.577 34.089c-1.652 0-3.305.032-4.956-.011-1.207-.031-1.367.511-1.106 1.552.857 3.423 5.5 4.689 8.193 2.2.4-.371.688-.918 1.145-1.169a2.151 2.151 0 012.521.019c.679.65-.07 1.415-.46 2.01-2.037 3.1-6.845 4.164-10.588 2.379-3.54-1.689-5.384-6.321-4.235-10.642 1.158-4.353 4.35-6.792 8.559-6.54a8.4 8.4 0 017.522 8.827c-.1 1.079-.669 1.385-1.638 1.369-1.652-.026-3.3-.007-4.957-.007zm-1.528-2.782c1.1 0 2.2-.031 3.291.009 1.117.041 1.55-.37 1.129-1.475a4.482 4.482 0 00-3.923-3.17 4.637 4.637 0 00-4.736 2.586c-.648 1.424-.443 2.225 1.361 2.069.952-.082 1.918-.014 2.878-.018" fill="#fff" opacity=".5"/><path data-name="Tracciato 22654" d="M175.64 72.964a7.85 7.85 0 01-7.889 1.673 4.673 4.673 0 01-3.54-4.35 4.482 4.482 0 012.766-4.442 22.471 22.471 0 016.756-1.8c1.637-.281 2.057-1.09 1.354-2.595a3.07 3.07 0 00-2.8-1.8 3.47 3.47 0 00-3.441 1.422c-.265.4-.383.9-.669 1.276a1.953 1.953 0 01-2.45.432c-1.057-.405-.505-1.278-.244-1.933 1.074-2.7 4.178-4.2 7.772-3.794 3.021.338 4.775 2.033 5.255 5.186.563 3.7.086 7.432.344 11.141a1.017 1.017 0 01-1.053 1.218c-1.169.128-2.03-.158-2.161-1.638m-4.571-.586a4 4 0 003.94-2.107c.5-.964 1.112-2.129.5-3.107-.654-1.037-1.89-.4-2.859-.275a11.34 11.34 0 00-2.578.656c-1.326.5-2.644 1.165-2.226 2.93.392 1.656 1.772 1.911 3.228 1.9" fill="#fff" opacity=".5"/><path data-name="Tracciato 22655" d="M214.1 66.099c-.038 5.33-3.33 8.916-8.2 8.929-4.893.013-8.418-3.768-8.414-9.023 0-5.28 3.5-9.044 8.395-9.03 4.921.015 8.253 3.716 8.215 9.124m-3.429-.4c-.019-.283-.019-.9-.108-1.515a4.74 4.74 0 00-4.641-4.407c-2.451-.041-4.116 1.4-4.752 4.016a9.032 9.032 0 00.127 4.881 4.6 4.6 0 003.885 3.519c3.155.469 5.48-2.148 5.489-6.495" fill="#fff" opacity=".5"/><path data-name="Tracciato 22656" d="M108.605 66.032c-.008 5.4-3.387 9.049-8.333 8.992-4.894-.056-8.357-3.882-8.273-9.139.083-5.21 3.493-8.87 8.3-8.909 4.889-.04 8.314 3.694 8.306 9.056m-3.444-.6a11.518 11.518 0 00-.127-1.475 4.831 4.831 0 00-4.641-4.195 4.634 4.634 0 00-4.681 3.845 9.32 9.32 0 00.089 5.084 4.547 4.547 0 006.685 2.934c2.222-1.206 2.728-3.3 2.676-6.192" fill="#fff" opacity=".5"/><path data-name="Tracciato 22657" d="M131.832 59.186a7.384 7.384 0 015.283-2.214c3.248-.016 5.392 1.568 5.635 4.789.29 3.833.134 7.7.175 11.552.012 1.162-.739 1.29-1.656 1.3-1.037.015-1.5-.426-1.5-1.473.006-3.235.039-6.471-.062-9.7-.059-1.877-.871-3.329-2.961-3.644a4.1 4.1 0 00-4.538 2.778 8.812 8.812 0 00-.435 3.049c.017 2.409-.024 4.818.009 7.227.016 1.157-.318 1.789-1.632 1.783-1.366-.006-1.565-.755-1.561-1.853.018-4.474 0-8.948.014-13.422 0-.861-.181-1.888 1.2-1.96 1.1-.057 2.136-.084 2.033 1.786" fill="#fff" opacity=".5"/><path data-name="Tracciato 22658" d="M219.913 59.01a21.464 21.464 0 012.63-1.552c4.465-1.78 8.178.484 8.445 5.284.191 3.432.039 6.882.076 10.323.013 1.162-.518 1.56-1.635 1.561-1.185 0-1.558-.562-1.549-1.65.021-2.891.027-5.783-.012-8.674-.041-3.024-1.113-4.426-3.376-4.541-2.4-.122-4.226 1.4-4.461 4.181-.238 2.8-.107 5.638-.134 8.459-.011 1.115.136 2.235-1.594 2.234s-1.59-1.122-1.59-2.235c0-4.337-.012-8.675.01-13.011 0-.85-.213-1.915 1.166-1.981 1.064-.051 2.216-.21 2.024 1.6" fill="#fff" opacity=".5"/><path data-name="Tracciato 22659" d="M121.915 73.023c-.679.472-1.155.858-1.68 1.16-4.123 2.368-8.593.185-8.9-4.51-.236-3.564-.069-7.154-.113-10.731-.015-1.154.5-1.568 1.627-1.569 1.18 0 1.565.549 1.556 1.642-.022 2.891-.03 5.782.013 8.672.045 3.067.964 4.375 3.091 4.55 2.373.2 4.127-1.329 4.348-4.214s.113-5.776.112-8.665c0-1.149.121-2.006 1.633-1.994 1.558.012 1.563.966 1.561 2.06-.008 4.405.006 8.81-.013 13.215 0 .86.185 1.892-1.194 1.961-1.087.055-2.143.1-2.038-1.577" fill="#fff" opacity=".5"/><path data-name="Tracciato 22660" d="M87.914 67.445c0 1.858-.024 3.717.009 5.574.02 1.123-.439 1.608-1.589 1.608s-1.6-.478-1.595-1.6c.022-3.579-.015-7.157.007-10.736.007-1.165.029-2.227-1.538-2.391-.651-.069-.837-.64-.814-1.247.022-.592.181-1.177.865-1.2 1.347-.043 1.437-.877 1.521-1.942.232-2.951 1.593-4.046 4.644-3.92.791.032 1.553.055 1.662 1.1a1.268 1.268 0 01-1.4 1.586c-1.039.032-1.682.448-1.749 1.586-.062 1.042.332 1.552 1.41 1.518.866-.028 1.7.043 1.746 1.224.048 1.143-.693 1.408-1.6 1.4-1.31-.007-1.658.728-1.567 1.865.005.069 0 .138 0 .206v5.368z" fill="#fff" opacity=".5"/><path data-name="Tracciato 22661" d="M182.788 66.472c0-1.237-.016-2.474 0-3.711.019-1.394.234-2.852-1.9-2.878-.641-.008-.825-.65-.789-1.251.034-.583.2-1.2.886-1.179 1.671.052 1.92-.911 1.8-2.253-.1-1.208.049-2.212 1.668-2.171 1.514.039 1.6 1.018 1.508 2.119-.126 1.462.2 2.432 1.973 2.269.858-.079 1.2.5 1.2 1.316 0 .753-.4 1.244-1.107 1.211-2.023-.1-2.129 1.131-2.081 2.666.073 2.335.048 4.674.013 7.01-.02 1.335.266 2.319 1.875 2.334.93.009 1.355.542 1.3 1.47-.059 1.019-.745 1.142-1.572 1.2-3.5.259-4.7-.782-4.775-4.238-.029-1.305 0-2.612-.007-3.918" fill="#fff" opacity=".5"/><path data-name="Tracciato 22662" d="M194.653 66.049c0 2.2-.02 4.406.009 6.609.015 1.163-.145 2-1.649 1.977-1.376-.025-1.55-.784-1.546-1.87.017-4.542.024-9.086 0-13.629-.007-1.17.346-1.776 1.649-1.769 1.378.008 1.556.781 1.546 1.867-.023 2.272-.007 4.543-.007 6.815" fill="#fff" opacity=".5"/></svg>