<svg id="Group_16104" data-name="Group 16104" xmlns="http://www.w3.org/2000/svg" xmlns:xlink="http://www.w3.org/1999/xlink" width="162.171" height="133.78" viewBox="0 0 162.171 133.78">
  <defs>
    <linearGradient id="linear-gradient" x1="0.151" y1="0.197" x2="0.649" y2="0.955" gradientUnits="objectBoundingBox">
      <stop offset="0" stop-color="#30e6fc"/>
      <stop offset="1" stop-color="#290266"/>
    </linearGradient>
    <clipPath id="clip-path">
      <rect id="Rectangle_5674" data-name="Rectangle 5674" width="162.171" height="133.78" fill="url(#linear-gradient)"/>
    </clipPath>
  </defs>
  <g id="Group_16103" data-name="Group 16103" clip-path="url(#clip-path)">
    <path id="Path_4474" data-name="Path 4474" d="M7.8,74.325c4.223,2.452,8.13,4.729,12.045,6.992,4.644,2.684,9.318,5.32,13.932,8.054a2.948,2.948,0,0,0,3.429.012c2.163-1.337,4.351-2.65,6.611-3.812,1.465-.753,1.78-1.828,1.774-3.344-.045-11.006.016-22.013-.062-33.018a4.056,4.056,0,0,1,2.325-4.093q15.7-8.9,31.27-18.048c1.437-.841,2.595-.982,3.933.015a22.909,22.909,0,0,0,2.3,1.369c2.945,1.695,3.384,2.668,2.873,5.977-.154,1-.582,1.171-1.378.726q-2.16-1.209-4.293-2.465a2.235,2.235,0,0,0-2.495-.222c-8.8,5.095-17.618,10.16-26.734,15.41,1.749,1.034,3.247,1.937,4.761,2.812,7.027,4.059,14.076,8.08,21.073,12.19a3.169,3.169,0,0,0,3.787.03,39.237,39.237,0,0,1,5.371-3.064c2.317-1.041,3.059-2.566,3.021-5.137-.161-10.729-.025-21.462-.111-32.193A3.737,3.737,0,0,1,93.39,18.76Q109.255,9.725,125.022.515a2.966,2.966,0,0,1,3.4.04q15.694,9.129,31.458,18.137a3.912,3.912,0,0,1,2.293,3.893c-.1,12.037-.076,24.077-.018,36.115a3.423,3.423,0,0,1-1.948,3.444Q144.7,70.976,129.3,80.007A4.506,4.506,0,0,1,124.053,80c-9.294-5.495-18.7-10.807-28-16.285a3.712,3.712,0,0,0-4.495.043c-2.057,1.368-4.245,2.548-6.421,3.728a2.665,2.665,0,0,0-1.507,2.66q.05,14.136-.007,28.273c-.009,1.754.482,1.826,1.857,1.025q12.12-7.066,24.3-14.025a2.852,2.852,0,0,0,1.728-2.945c-.11-1.574-.027-3.162,0-4.744.01-.559.04-1.105.916-.959,2.208.368,3.911,2.6,4.227,4.779.616,4.247-.993,6.654-4.838,8.706-9.7,5.178-19.144,10.849-28.642,16.4a3.553,3.553,0,0,1-4.124.037c-9.489-5.569-19.058-11-28.545-16.577a3.739,3.739,0,0,0-4.509,0c-2.176,1.439-4.484,2.683-6.773,3.943a2.331,2.331,0,0,0-1.354,2.3q.045,14.343,0,28.686c0,1.361.253,1.772,1.6.988q12.482-7.265,25.017-14.438a2.428,2.428,0,0,0,1.3-2.371c-.02-1.581,0-3.164.019-4.746.014-1.407.542-1.545,1.811-.989,2.408,1.054,3.283,2.581,3.408,5.345.169,3.739-1.1,5.732-4.386,7.52C56.8,121.714,47.167,127.46,37.479,133.1a3.29,3.29,0,0,1-3.778.152Q18.032,124.08,2.263,115.082A3.906,3.906,0,0,1,0,111.175Q.131,93.222.005,75.267A3.732,3.732,0,0,1,2.19,71.528Q17.7,62.71,33.1,53.676c1.815-1.071,3.228-1.153,4.847.083A17.323,17.323,0,0,0,39.9,54.9c2.962,1.695,3.283,2.405,2.808,5.825-.144,1.035-.522,1.372-1.477.813a8.458,8.458,0,0,1-1.254-.712c-3-2.544-5.706-2.2-9.023-.085-6.837,4.357-14,8.209-21.021,12.272-.589.341-1.161.71-2.14,1.311M156.945,42.136c0-4.746-.044-9.493.024-14.238.023-1.638-.423-1.7-1.716-.948q-12.3,7.168-24.654,14.233a2.688,2.688,0,0,0-1.508,2.648q.064,14.134,0,28.269c-.009,1.724.436,1.85,1.85,1.023q12.108-7.084,24.3-14.027a3.08,3.08,0,0,0,1.733-3.136c-.071-4.608-.026-9.216-.027-13.825M33.052,110.659c0-4.674-.017-9.349.013-14.023A2.5,2.5,0,0,0,31.8,94.077Q19.175,86.867,6.613,79.554c-1.176-.684-1.4-.257-1.4.872q.024,14.436,0,28.872a2.418,2.418,0,0,0,1.335,2.336q12.428,7.132,24.819,14.327c1.419.825,1.719.4,1.7-1.072-.056-4.743-.021-9.486-.021-14.229m121.1-88.96c-.23-.309-.288-.458-.4-.521Q140.826,13.672,127.891,6.17a2.271,2.271,0,0,0-2.508.046q-12.5,7.228-25.015,14.422c-1.038.6-1.344,1.007-.052,1.746Q112.94,29.6,125.509,36.912a1.871,1.871,0,0,0,2.1.156c8.793-5.107,17.6-10.193,26.544-15.369M78.518,84.251c0-4.674-.014-9.349.01-14.023a2.562,2.562,0,0,0-1.243-2.6Q64.676,60.4,52.107,53.106c-1.069-.62-1.439-.416-1.436.83q.035,12.991,0,25.982c0,1.294.443,1.4,1.463.8q4.893-2.862,9.83-5.65c1.183-.667.886-1.086-.1-1.622a56.446,56.446,0,0,0-5.209-2.92c-2.529-1.044-3.2-2.782-3-5.344.141-1.8.638-1.989,2.086-1.14,4.564,2.677,9.16,5.3,13.742,7.945.731.422,1.387.88,1.386,1.872-.009,5.7,0,11.41-.007,17.115,0,.477-.028.97-.749.979-1.586.02-4.3-2.586-4.32-4.226-.024-2.337-.052-4.675.006-7.011.038-1.493-.325-1.877-1.725-1.03-3,1.813-6.026,3.583-9.106,5.253-1.546.838-1.152,1.287.065,1.985q10.907,6.256,21.77,12.588c1.38.806,1.747.492,1.729-1.034-.054-4.742-.02-9.486-.021-14.228m30.332-36.332C106.395,46.493,104.29,45.041,102,44c-2.435-1.1-3.028-2.84-2.8-5.272.14-1.464.409-2.089,1.952-1.181,4.679,2.755,9.4,5.448,14.1,8.157.685.394,1.3.86,1.3,1.719q.031,8.559.013,17.119c0,.457-.031.993-.7,1.08-1.163.151-4.353-2.512-4.369-3.719-.034-2.612-.05-5.226,0-7.838.023-1.29-.3-1.666-1.506-.92-1.519.94-3.091,1.794-4.639,2.688-2.04,1.179-4.08,2.361-6.4,3.7,8.259,4.776,16.1,9.317,23.952,13.85,1.553.9,1.363-.311,1.364-1.183.009-9.489-.011-18.978.025-28.466a2.537,2.537,0,0,0-1.413-2.49q-12.435-7.127-24.825-14.331c-1.415-.826-1.72-.48-1.7,1.015.053,4.4.021,8.8.021,13.2q0,6.085,0,12.17c0,.966.112,1.766,1.377,1.034,3.616-2.09,7.231-4.183,11.1-6.419" transform="translate(0 0)" fill="url(#linear-gradient)"/>
  </g>
</svg>
