<svg xmlns="http://www.w3.org/2000/svg" width="154.743" height="55.066" viewBox="0 0 154.743 55.066">
  <g id="Raggruppa_3677" data-name="Raggruppa 3677" transform="translate(0.495 0.608)">
    <path id="Unione_9" data-name="Unione 9" d="M103.732,51.066c-2.129-3.306-1.47-7.487,1.722-10.335,2.879-2.57,6.554-3.822,9.917-5.59,3.12-1.637,2.855-4.374,2.041-7.1-.725-2.428-2.75-2.763-4.949-2.5a3.507,3.507,0,0,0-3.406,3.42,8.73,8.73,0,0,1-.629,3.162,3.53,3.53,0,0,1-4.846,1.727c-1.822-.812-1.929-2.387-1.311-4.158,2.275-6.53,15.091-10.781,20.694-6.838a7.378,7.378,0,0,1,2.986,6c.156,2.847.037,5.711.037,8.567h.111c0,2.041-.009,4.082,0,6.123.015,2.536-.231,5.081,3.825,4.358,1.9-.337,1.714,1.211,1.006,2.467-1.973,3.5-6.7,4.39-10.244,1.532-1.864-1.506-3.19-1.577-5-.274a13.928,13.928,0,0,1-2.953,1.363,11.231,11.231,0,0,1-4.118.964A5.552,5.552,0,0,1,103.732,51.066Zm6.986-6.242c.006,2.063.612,4.114,2.988,3.977,3.707-.213,4.271-3.087,4.213-6.15.047-3.6-.2-4.276-1.592-4.352-.04,0-.081,0-.122,0C113.831,38.3,110.71,41.948,110.718,44.824ZM1.223,50.98A8.113,8.113,0,0,1,3.257,40.631c2.827-2.4,6.3-3.752,9.6-5.372,3.167-1.558,3.045-4.222,2.306-7.011-.653-2.463-2.565-2.955-4.81-2.729-2.2.221-3.5,1.334-3.619,3.646-.064,1.219-.042,2.495-.907,3.491a3.594,3.594,0,0,1-4,1.354C.051,33.425-.143,31.916.069,30.328a6.616,6.616,0,0,1,2.318-4.2A19.2,19.2,0,0,1,15.959,21.4c4.96.15,7.519,2.905,7.732,8.207.2,4.9.065,9.811.115,14.717.023,2.189.183,4.3,3.376,3.575a2.772,2.772,0,0,1,1.571.172c5,2.078,5.607,1.709,5.634-3.71.024-4.769-.082-9.54-.028-14.308.025-2.229-.665-3.657-3.08-3.96a1.726,1.726,0,0,1-1.573-2.029,1.741,1.741,0,0,1,1.484-1.725c3.612-.39,3.091-3.109,3.276-5.513C35.413,4.653,48.43-3.312,59.6,1.349c2.154.9,3.165,2.058,3.093,4.574-.191,6.531-.064,13.071-.064,19.607H62.31c0,6.405.01,12.811,0,19.216-.006,2.4-.044,4.753,3.117,5.312.829.147,1.572.636,1.432,1.656a1.622,1.622,0,0,1-1.794,1.337q-6.329.062-12.661-.017a1.886,1.886,0,0,1-1.925-1.254c-.3-1,.4-1.533,1.213-1.8,2.355-.778,2.382-2.7,2.383-4.66,0-4.907-.111-9.816.043-14.717.1-3.146-1.09-4.606-4.286-4.328a17.13,17.13,0,0,1-2.86,0c-3.071-.247-4.529.951-4.422,4.211.155,4.765.039,9.539.035,14.308,0,2.217-.106,4.459,2.674,5.3a1.409,1.409,0,0,1,1.086,1.534,1.559,1.559,0,0,1-1.714,1.417c-1.6-.055-3.219.037-4.833.129-3.538.2-7.074.4-10.485-.935a2.809,2.809,0,0,0-2.941.32,6.236,6.236,0,0,1-8.233-.85c-1.624-1.557-2.919-1.559-4.618-.307a11.853,11.853,0,0,1-3.257,1.661,13.5,13.5,0,0,1-4.133.83A5.4,5.4,0,0,1,1.223,50.98Zm7.233-6.522c.024,2.086.361,4.521,3.11,4.251,3.346-.328,4.207-2.945,3.987-6.345-.494-1.09,1.171-3.471-1.494-3.992a1.576,1.576,0,0,0-.3-.028C11.689,38.343,8.428,42.067,8.456,44.458ZM43.464,9.023c-1.093,3.435-.911,6.954-.785,10.47a2.493,2.493,0,0,0,2.169,2.515c6.77,1.741,9.239-.075,9.23-6.9,0-.27,0-.542,0-.812h-.07c0-1.354.027-2.708-.006-4.061C53.932,7.419,53.081,5,49.881,4.648a8.04,8.04,0,0,0-.87-.049C46.255,4.6,44.376,6.157,43.464,9.023ZM83.046,53.736c-8.394-.087-15.853-7.77-15.751-16.224.1-8.521,7.714-16.012,16.433-16.176,8.7-.163,16.2,7.013,16.234,15.528A16.8,16.8,0,0,1,83.22,53.737ZM77.982,28.686c-1.463,2.7-1.751,5.694-1.787,9.467a14.412,14.412,0,0,0,2.481,8.965c2.736,3.829,7.155,3.765,9.792-.1C91.81,42.127,91.6,32.712,88.048,28c-1.542-2.045-3.306-3.064-5.009-3.064C81.15,24.936,79.336,26.189,77.982,28.686Zm57.935,14.972c-.005-3.814.043-7.628.063-11.443.013-2.478.281-4.933-3.237-5.576-1.724-.315-1.531-1.859-.229-2.7,3.594-2.31,6.5-5.36,9.487-8.344,1.745-1.74,3.04-.644,2.718,1.253-.791,4.654,1.327,5.715,5.387,5.318,1.52-.148,3.633-.335,3.643,2.108.01,2.413-1.921,2.584-3.78,2.715-5.723.4-5.747.421-5.777,6.082-.018,3.677-.11,7.365.133,11.028.172,2.6,1.222,4.8,4.452,4.656,1.4-.029,3.455-1.256,3.826.839.338,1.92-1.933,2.4-3.375,2.98a14.153,14.153,0,0,1-5.213,1.123C139.057,53.7,135.927,50.055,135.917,43.658Z" transform="translate(0 0)" fill="#fff" stroke="rgba(0,0,0,0)" stroke-width="1"/>
  </g>
</svg>
