<svg xmlns="http://www.w3.org/2000/svg" width="115.867" height="41.36" viewBox="0 0 115.867 41.36">
  <g id="Raggruppa_3558" data-name="Raggruppa 3558" transform="translate(0.597 0.581)">
    <path id="Unione_9" data-name="Unione 9" d="M77.434,38.12a5.872,5.872,0,0,1,1.286-7.715c2.149-1.918,4.892-2.853,7.4-4.173,2.329-1.222,2.131-3.265,1.524-5.3-.541-1.812-2.053-2.063-3.695-1.867a2.618,2.618,0,0,0-2.543,2.553,6.517,6.517,0,0,1-.47,2.36,2.635,2.635,0,0,1-3.617,1.289c-1.36-.606-1.44-1.782-.979-3.1,1.7-4.875,11.265-8.048,15.448-5.1a5.507,5.507,0,0,1,2.229,4.48c.116,2.126.027,4.263.027,6.395h.083c0,1.524-.007,3.047,0,4.571.011,1.893-.172,3.793,2.856,3.253,1.416-.252,1.28.9.751,1.842a5,5,0,0,1-7.647,1.144c-1.392-1.124-2.381-1.177-3.73-.2a10.4,10.4,0,0,1-2.2,1.017,8.384,8.384,0,0,1-3.074.72A4.144,4.144,0,0,1,77.434,38.12Zm5.215-4.66c0,1.54.457,3.071,2.231,2.969,2.767-.159,3.188-2.3,3.145-4.591.035-2.685-.15-3.192-1.188-3.249l-.091,0C84.973,28.587,82.643,31.313,82.649,33.46ZM.913,38.056a6.056,6.056,0,0,1,1.519-7.725c2.11-1.794,4.7-2.8,7.165-4.01,2.364-1.163,2.273-3.152,1.721-5.234-.487-1.838-1.915-2.206-3.59-2.037a2.64,2.64,0,0,0-2.7,2.721,4.013,4.013,0,0,1-.677,2.606,2.683,2.683,0,0,1-2.986,1.011C.038,24.951-.107,23.825.051,22.64A4.939,4.939,0,0,1,1.782,19.5a14.332,14.332,0,0,1,10.131-3.529c3.7.112,5.613,2.169,5.772,6.127.147,3.657.049,7.324.086,10.986.017,1.634.136,3.211,2.52,2.668a2.07,2.07,0,0,1,1.173.129c3.733,1.552,4.186,1.276,4.206-2.769.018-3.56-.061-7.121-.021-10.681.019-1.664-.5-2.73-2.3-2.956a1.288,1.288,0,0,1-1.174-1.515,1.3,1.3,0,0,1,1.108-1.288c2.7-.291,2.307-2.321,2.446-4.116A13.764,13.764,0,0,1,44.493,1.007,3.143,3.143,0,0,1,46.8,4.421c-.143,4.875-.048,9.758-.048,14.636h-.239c0,4.781.007,9.563,0,14.344,0,1.789-.033,3.548,2.327,3.965.619.11,1.174.475,1.069,1.236a1.211,1.211,0,0,1-1.339,1q-4.725.047-9.452-.013a1.408,1.408,0,0,1-1.437-.936c-.223-.743.3-1.145.905-1.346,1.758-.581,1.778-2.019,1.779-3.479,0-3.663-.083-7.327.032-10.986.073-2.348-.813-3.439-3.2-3.231a12.788,12.788,0,0,1-2.135,0c-2.293-.184-3.381.71-3.3,3.144.116,3.557.029,7.121.026,10.681,0,1.655-.079,3.329,2,3.958a1.052,1.052,0,0,1,.811,1.145,1.164,1.164,0,0,1-1.28,1.058c-1.2-.041-2.4.028-3.608.1-2.641.149-5.281.3-7.827-.7a2.1,2.1,0,0,0-2.2.239,4.655,4.655,0,0,1-6.146-.635,2.291,2.291,0,0,0-3.447-.229,8.848,8.848,0,0,1-2.431,1.24,10.076,10.076,0,0,1-3.085.619A4.028,4.028,0,0,1,.913,38.056Zm5.4-4.869c.018,1.557.269,3.375,2.322,3.173,2.5-.245,3.141-2.2,2.976-4.737-.369-.813.874-2.591-1.115-2.98a1.176,1.176,0,0,0-.222-.021C8.725,28.622,6.292,31.4,6.312,33.187ZM32.445,6.736a22.623,22.623,0,0,0-.586,7.816,1.861,1.861,0,0,0,1.619,1.878c5.053,1.3,6.9-.056,6.89-5.15,0-.2,0-.4,0-.606h-.052c0-1.011.02-2.021,0-3.031-.053-2.1-.688-3.911-3.077-4.172a6,6,0,0,0-.65-.036C34.529,3.433,33.126,4.6,32.445,6.736ZM61.992,40.113A12.338,12.338,0,0,1,50.235,28c.078-6.361,5.758-11.953,12.267-12.075A11.959,11.959,0,0,1,74.62,27.518a12.543,12.543,0,0,1-12.5,12.6Zm-3.78-18.7c-1.092,2.012-1.307,4.251-1.334,7.067a10.758,10.758,0,0,0,1.852,6.692c2.043,2.858,5.341,2.81,7.31-.072,2.494-3.653,2.339-10.682-.314-14.2a4.888,4.888,0,0,0-3.739-2.287C60.577,18.614,59.223,19.55,58.212,21.414ZM101.46,32.59c0-2.847.032-5.694.047-8.542.01-1.849.209-3.682-2.416-4.162-1.287-.235-1.143-1.387-.171-2.012A44.071,44.071,0,0,0,106,11.645c1.3-1.3,2.269-.481,2.029.935-.59,3.474.991,4.266,4.022,3.97,1.135-.11,2.712-.25,2.72,1.574.007,1.8-1.434,1.929-2.822,2.027-4.272.3-4.29.315-4.313,4.54-.014,2.745-.082,5.5.1,8.232.129,1.94.912,3.584,3.324,3.476,1.043-.022,2.579-.937,2.856.626.253,1.433-1.443,1.793-2.52,2.225a10.565,10.565,0,0,1-3.891.839C103.8,40.088,101.467,37.365,101.46,32.59Z" transform="translate(0 0)" fill="#2fdcb6" stroke="rgba(0,0,0,0)" stroke-width="1"/>
  </g>
</svg>
