<svg xmlns="http://www.w3.org/2000/svg" width="196.854" height="69.873"><g data-name="Raggruppa 3047"><path data-name="Unione 9" d="M132.638 65.689c-2.712-4.211-1.873-9.538 2.194-13.166 3.668-3.274 8.349-4.87 12.633-7.121 3.974-2.086 3.637-5.572 2.6-9.041-.924-3.093-3.5-3.521-6.3-3.187a4.467 4.467 0 00-4.339 4.356 11.128 11.128 0 01-.8 4.028c-1.323 2.41-3.591 3.353-6.173 2.2-2.32-1.034-2.457-3.041-1.671-5.3 2.9-8.319 19.225-13.733 26.362-8.711 2.653 1.867 3.639 4.638 3.8 7.646.2 3.627.046 7.275.046 10.913h.141c0 2.6-.012 5.2 0 7.8.019 3.231-.294 6.473 4.873 5.551 2.416-.43 2.184 1.543 1.281 3.143-2.514 4.453-8.537 5.592-13.049 1.952-2.375-1.918-4.063-2.008-6.366-.349a17.747 17.747 0 01-3.761 1.736 14.311 14.311 0 01-5.246 1.229 7.073 7.073 0 01-6.225-3.679zm8.9-7.952c.007 2.628.78 5.24 3.807 5.067 4.722-.272 5.441-3.933 5.367-7.834.059-4.582-.257-5.448-2.028-5.544h-.156c-3.026-.005-7.001 4.647-6.991 8.309zM2.052 65.58C-.472 61.41.57 55.86 4.644 52.396c3.6-3.061 8.028-4.78 12.227-6.844 4.035-1.984 3.879-5.379 2.938-8.932-.831-3.137-3.268-3.764-6.127-3.477-2.8.281-4.455 1.7-4.611 4.644-.082 1.553-.053 3.178-1.155 4.448-1.345 1.548-3.055 2.4-5.095 1.725C.56 43.214.313 41.292.583 39.27a8.427 8.427 0 012.953-5.354 24.458 24.458 0 0117.289-6.022c6.318.191 9.579 3.7 9.849 10.455.25 6.241.083 12.5.147 18.748.029 2.788.233 5.479 4.3 4.554a3.532 3.532 0 012 .219c6.37 2.648 7.143 2.178 7.178-4.726.03-6.075-.1-12.153-.036-18.228.032-2.839-.848-4.658-3.923-5.045a2.2 2.2 0 01-2-2.585 2.218 2.218 0 011.89-2.2c4.6-.5 3.938-3.96 4.174-7.023 1.2-15.5 17.787-25.65 32.02-19.712 2.744 1.145 4.032 2.622 3.94 5.827-.243 8.32-.082 16.652-.082 24.978h-.408c0 8.16.012 16.319-.006 24.479-.007 3.053-.056 6.054 3.971 6.767 1.057.188 2 .81 1.824 2.11a2.066 2.066 0 01-2.286 1.7q-8.063.08-16.129-.021a2.4 2.4 0 01-2.452-1.6c-.38-1.268.5-1.954 1.545-2.3 3-.992 3.035-3.446 3.036-5.937 0-6.25-.141-12.5.055-18.748.125-4.007-1.388-5.868-5.46-5.513a21.815 21.815 0 01-3.643 0c-3.912-.315-5.77 1.211-5.633 5.364.2 6.07.05 12.152.045 18.228 0 2.824-.135 5.681 3.406 6.754a1.8 1.8 0 011.383 1.955 1.986 1.986 0 01-2.184 1.8c-2.043-.07-4.1.047-6.156.164-4.507.255-9.012.51-13.357-1.191a3.578 3.578 0 00-3.746.408 7.943 7.943 0 01-10.488-1.083c-2.07-1.983-3.719-1.985-5.883-.391a15.1 15.1 0 01-4.149 2.116 17.194 17.194 0 01-5.265 1.057 6.875 6.875 0 01-6.251-3.695zm9.214-8.309c.031 2.657.459 5.76 3.962 5.416 4.263-.418 5.36-3.751 5.079-8.083-.629-1.388 1.491-4.422-1.9-5.086a2 2 0 00-.379-.035c-2.645-.002-6.798 4.741-6.763 7.787zm44.6-45.141c-1.393 4.375-1.16 8.859-1 13.338a3.176 3.176 0 002.763 3.2c8.624 2.218 11.77-.1 11.759-8.789v-1.034h-.089c0-1.725.034-3.449-.007-5.173-.09-3.589-1.174-6.674-5.251-7.12a10.239 10.239 0 00-1.109-.062c-3.514.003-5.909 1.989-7.07 5.64zm50.423 56.959c-10.692-.11-20.2-9.9-20.064-20.668.133-10.855 9.827-20.4 20.934-20.607 11.079-.208 20.635 8.934 20.681 19.782a21.4 21.4 0 01-21.328 21.5zm-6.451-31.911c-1.864 3.434-2.231 7.254-2.276 12.06a18.36 18.36 0 003.161 11.42c3.486 4.878 9.115 4.8 12.475-.124 4.257-6.234 3.991-18.229-.536-24.231-1.964-2.6-4.212-3.9-6.381-3.9-2.411-.002-4.722 1.595-6.447 4.775zm73.8 19.073c-.007-4.858.055-9.717.08-14.577.017-3.156.357-6.284-4.124-7.1-2.2-.4-1.951-2.368-.292-3.434 4.579-2.943 8.275-6.829 12.085-10.629 2.223-2.217 3.872-.82 3.462 1.6-1.007 5.928 1.691 7.28 6.863 6.775 1.937-.188 4.628-.426 4.641 2.686.012 3.074-2.447 3.292-4.816 3.458-7.291.516-7.322.537-7.359 7.748-.024 4.684-.14 9.382.17 14.049.22 3.311 1.557 6.116 5.672 5.931 1.78-.037 4.4-1.6 4.873 1.068.431 2.446-2.463 3.06-4.3 3.8a18.029 18.029 0 01-6.64 1.431c-6.316-.01-10.303-4.656-10.315-12.806z" fill="#fff" stroke="rgba(0,0,0,0)"/></g></svg>