<svg xmlns="http://www.w3.org/2000/svg" width="161.288" height="50.033" viewBox="0 0 161.288 50.033">
  <g id="Raggruppa_3039" data-name="Raggruppa 3039" transform="translate(0.5 0.627)">
    <path id="Unione_8" data-name="Unione 8" d="M26.584,48.906c-.135-.912.447-1.59.8-2.331,1.012-2.152,2.034-4.3,3.118-6.413.805-1.572,1.863-1.687,2.937-.287,1.244,1.621,2.368,3.334,3.56,5,.361.5.077.664-.332.887a23.324,23.324,0,0,1-8.347,2.807c-.445.055-.948-.012-1.328.339Zm-5.065,0a14.137,14.137,0,0,0-2.7-.584,24.2,24.2,0,0,1-14.346-9.79c-.132-.19-.247-.394-.435-.694a13.568,13.568,0,0,1,3.214-.373c6.082-.462,12.169-.858,18.253-1.275a5.975,5.975,0,0,1,.607-.006c1.521.058,2.211,1.078,1.584,2.452-1.029,2.259-2.119,4.49-3.186,6.733-.4.848-.805,1.7-1.214,2.543a1.992,1.992,0,0,1-.767.993Zm18.038-5.758c-1.167-1.684-2.4-3.322-3.525-5.03-.907-1.379-.227-2.612,1.435-2.737,1.677-.125,3.356-.232,5.034-.348v.012c1.174-.08,2.349-.161,3.524-.235.6-.037.813.146.5.758a25.246,25.246,0,0,1-6.1,7.684.727.727,0,0,1-.437.223C39.843,43.475,39.71,43.369,39.557,43.149Zm64.785-1.4a1.768,1.768,0,0,1-1.479-2.03,19.878,19.878,0,0,0,.083-3.317q.032-4.438,0-8.877a7.767,7.767,0,0,1,4.776-7.628,8.482,8.482,0,0,1,10.181,2.2c3.352,3.938,2.326,10.367-1.827,12.927-3.042,1.876-6.328,1.654-9.328-.9-.2-.168-.393-.342-.754-.658,0,2.339,0,4.457,0,6.573a1.586,1.586,0,0,1-1.5,1.713Q104.417,41.761,104.342,41.754Zm6.169-19.8c-2.138.157-4.358,2.021-4.561,5.491-.171,2.917,2.372,6.266,5.458,5.839,3.421.212,5.555-2.625,5.456-5.64-.09-2.769-1.36-5.718-5.616-5.718C111.012,21.929,110.767,21.938,110.511,21.957ZM90.588,41.625a1.472,1.472,0,0,1-.785-2.216c.636-1.436,1.214-2.9,1.835-4.343a.733.733,0,0,0-.058-.737q-1.941-3.571-3.835-7.166c-.97-1.835-1.952-3.666-2.868-5.527-.662-1.345-.394-1.978.794-2.367a1.325,1.325,0,0,1,1.722.819c.853,1.812,1.753,3.609,2.673,5.379a60.444,60.444,0,0,0,3.087,5.877c1.136-2.228,2.025-4.528,2.967-6.807.6-1.451,1.2-2.9,1.856-4.327a1.343,1.343,0,0,1,2.03-.807c.941.379,1.151.809.7,1.933-1.19,2.944-2.426,5.871-3.667,8.794-1.113,2.623-2.257,5.234-3.387,7.851-.395.913-.778,1.833-1.195,2.735a1.7,1.7,0,0,1-1.443,1A.979.979,0,0,1,90.588,41.625Zm56.628-6.547a8.105,8.105,0,0,1-3.925-7.9c.307-5.87,5.555-9.3,11.226-7.653,2.977.864,4.678,3.065,5.551,5.954.056.189.021.408.221.536V35.3c-.133.1-.27.2-.4.3a1.628,1.628,0,0,1-2.829-1.069c-.037-.224-.03-.454-.05-.811a10.4,10.4,0,0,1-3.68,2.134,7.567,7.567,0,0,1-2.268.362A7.319,7.319,0,0,1,147.215,35.078ZM151.908,21.9a5.618,5.618,0,0,0-5.59,5.791,5.356,5.356,0,0,0,5.548,5.595c3.413.139,5.308-2.658,5.381-5.548a5.649,5.649,0,0,0-5.292-5.839ZM62.9,34.732a3.472,3.472,0,0,1-.049-.7q0-9.236,0-18.472c0-1.469.67-2.048,2.041-1.877a1.23,1.23,0,0,1,1.2,1.434c-.013,2.119.022,4.239-.015,6.358-.013.7.206.93.919.923,3.375-.032,6.752-.039,10.128,0,.811.01.938-.309.932-1.013-.029-3.532-.01-7.065-.016-10.6a2.118,2.118,0,0,1,.608-1.739,1.51,1.51,0,0,1,2.461.6,3.5,3.5,0,0,1,.171,1.288q0,5.753,0,11.507c0,3.87.008,7.739-.007,11.609,0,.732-.079,1.489-.878,1.843a1.555,1.555,0,0,1-2.346-1.513c-.02-2.66-.042-5.318.012-7.975.019-.93-.268-1.233-1.208-1.217-1.985.033-3.972.027-5.957.023-1.019,0-2.038-.006-3.056,0-1.682,0-1.748.079-1.748,1.739,0,2.49-.015,4.981.008,7.47a1.488,1.488,0,0,1-1.261,1.667,1.464,1.464,0,0,1-.28.027A1.759,1.759,0,0,1,62.9,34.732Zm62.42,1.373a1.906,1.906,0,0,1-1.9-2.13q-.008-4.488,0-8.976c0-3.06-.017-6.119.007-9.178.014-1.631,1.121-2.564,2.469-2.216.966.25,1.137.97,1.154,1.767.032,1.511.023,3.025,0,4.538-.009.655.023.978.788.483a7.919,7.919,0,0,1,8.237-.341,5.722,5.722,0,0,1,3.149,4.058c.735,3.392.281,6.821.375,10.232a1.55,1.55,0,0,1-1.609,1.76c-1.084-.074-1.611-.681-1.612-1.868,0-2.487.03-4.976-.011-7.463-.037-2.26-.849-4.078-3.256-4.687-2.775-.7-6.329.675-6.089,4.236.173,2.543.037,5.107.032,7.662,0,1.346-.642,2.124-1.719,2.124ZM1.891,33.913A23.549,23.549,0,0,1,0,24.5,23.992,23.992,0,0,1,8.12,6.376c.963-.874,1-.892,1.734.116,1.758,2.424,3.486,4.871,5.214,7.316a2.608,2.608,0,0,1,.08,2.855q-1.324,2.718-2.574,5.472a1.4,1.4,0,0,0,.565,2,1.533,1.533,0,0,0,2.111-.572,8.132,8.132,0,0,0,.621-1.149c.253-.512.462-1.046.734-1.546.923-1.7,2.139-1.814,3.249-.26q3.464,4.848,6.872,9.732c1.009,1.446.419,2.68-1.335,2.782-7.505.435-14.989,1.213-22.5,1.546l-.076,0C2.22,34.669,2.065,34.337,1.891,33.913Zm33.5-4.125q3.936-8.335,7.921-16.648A1.572,1.572,0,0,1,44.8,12.127a1.6,1.6,0,0,1,1.524.965A24.4,24.4,0,0,1,48.864,28.22c-.13.776-.365,1.528-.489,2.312-.132.834-.852,1.134-1.668,1.183q-4.786.29-9.571.6c-.061,0-.121,0-.179,0C35.387,32.314,34.7,31.263,35.392,29.788Zm-6.3-1.456c-2.883-4.059-5.738-8.136-8.609-12.205a2.747,2.747,0,0,1-.613-1.669,2.471,2.471,0,0,1,.286-1.161q2.922-6.081,5.825-12.172A1.317,1.317,0,0,1,27.578.2,24.852,24.852,0,0,1,41.961,7.149a.894.894,0,0,1,.193,1.221c-3.113,6.547-6.2,13.107-9.32,19.649-.513,1.073-1.163,1.612-1.854,1.612A2.523,2.523,0,0,1,29.09,28.332Zm-13.1-18.67c-1.433-1.819-2.736-3.741-4.08-5.63-.378-.533.181-.618.452-.776a23.181,23.181,0,0,1,7.63-2.8C20.976.283,21.973.171,23.175,0,21.6,3.259,20.158,6.355,18.606,9.4a1.554,1.554,0,0,1-1.378.906A1.583,1.583,0,0,1,15.986,9.662Z" transform="translate(0)" fill="#2fdcb6" stroke="rgba(0,0,0,0)" stroke-width="1"/>
  </g>
</svg>
