<svg xmlns="http://www.w3.org/2000/svg" width="234.948" height="61.271"><g data-name="Raggruppa 3053"><path data-name="Unione 10" d="M216.7 60.769L204 42.015l-10.911 18.754H176.38l6.28-10.114h9.915l13.606-20.573-13.606-19.469h-9.921L175.784.498h17.306l12.361 18.158L216.107.498h16.624l-19.01 30.349 20.289 29.922zm-76.677-10.545a16.62 16.62 0 01-5.3-3.411 16.2 16.2 0 01-3.549-5.046 14.765 14.765 0 01-1.3-6.155 14.773 14.773 0 011.3-6.156 16.213 16.213 0 013.549-5.046 16.6 16.6 0 015.3-3.411 16.972 16.972 0 016.489-1.248A16.975 16.975 0 01153 20.999a16.637 16.637 0 015.3 3.411 16.218 16.218 0 013.549 5.046 14.793 14.793 0 011.3 6.156 12.286 12.286 0 01-.084 1.469q-.082.694-.194 1.415h-24.178a8.732 8.732 0 003.021 3.909 7.888 7.888 0 004.8 1.525 7.976 7.976 0 003.715-.887 8.324 8.324 0 002.827-2.328h9.207a15.929 15.929 0 01-2.358 4.325 15.455 15.455 0 01-3.6 3.411 17.885 17.885 0 01-4.548 2.217 16.806 16.806 0 01-5.24.8 16.963 16.963 0 01-6.496-1.242zm1.691-21.406a8.749 8.749 0 00-3.021 3.91h15.638a8.694 8.694 0 00-3.05-3.91 7.94 7.94 0 00-4.769-1.524 7.9 7.9 0 00-4.8 1.526zm-31.3 21.961a12.394 12.394 0 01-3.91-2 9.627 9.627 0 01-2.689-3.217 9.142 9.142 0 01-1-4.3h8.318a2.618 2.618 0 001.248 2.55 5.508 5.508 0 002.635.667 5.184 5.184 0 002.634-.721 2.344 2.344 0 001.248-2.163 2.33 2.33 0 00-1.219-1.886 7.358 7.358 0 00-3.107-1.107 19 19 0 01-4.241-1.054 14.917 14.917 0 01-3.66-1.941 10 10 0 01-2.551-2.69 6.022 6.022 0 01-.971-3.3 8.827 8.827 0 01.942-4.1 9.3 9.3 0 012.579-3.105 12.151 12.151 0 013.8-1.968 14.808 14.808 0 014.548-.694 14.717 14.717 0 014.574.694 11.9 11.9 0 013.771 2 9.442 9.442 0 012.579 3.188 9.55 9.55 0 01.944 4.326h-8.319a3.645 3.645 0 00-.305-1.58 2.571 2.571 0 00-.8-1 3 3 0 00-1.137-.5 6.1 6.1 0 00-1.3-.139 5.12 5.12 0 00-2.469.583 2.154 2.154 0 00-1.082 2.08 1.717 1.717 0 00.611 1.248 6.059 6.059 0 001.608 1.053 11.944 11.944 0 002.218.776 22.736 22.736 0 002.44.472 12.379 12.379 0 013.244.776 9.865 9.865 0 012.829 1.664 8.438 8.438 0 012.024 2.523 7.084 7.084 0 01.776 3.355 9.127 9.127 0 01-1 4.3 9.637 9.637 0 01-2.688 3.217 12.49 12.49 0 01-3.883 2 15.3 15.3 0 01-4.63.693 15.376 15.376 0 01-4.613-.697zm-34.521-.555a16.34 16.34 0 01-5.241-3.411 16.4 16.4 0 01-3.52-5.046 14.751 14.751 0 01-1.3-6.155 14.763 14.763 0 011.3-6.156 16.413 16.413 0 013.52-5.046A16.329 16.329 0 0175.893 21a16.614 16.614 0 016.4-1.249A16.554 16.554 0 0188.726 21a16.41 16.41 0 015.213 3.41 16.437 16.437 0 013.521 5.046 14.782 14.782 0 011.3 6.156v14.972h-7.763v-3.715a10.624 10.624 0 01-3.716 3.355 10.205 10.205 0 01-4.991 1.248 16.614 16.614 0 01-6.401-1.246zm3.328-22.264a8.466 8.466 0 00-2.635 1.774 8.49 8.49 0 00-1.774 2.633 8.035 8.035 0 00-.666 3.245 8.035 8.035 0 00.666 3.245 8.49 8.49 0 001.774 2.633 8.441 8.441 0 002.635 1.774 8.023 8.023 0 003.243.666 8.033 8.033 0 003.244-.666 8.469 8.469 0 002.635-1.774 8.516 8.516 0 001.774-2.633 8.035 8.035 0 00.666-3.245 8.035 8.035 0 00-.666-3.245 8.516 8.516 0 00-1.774-2.633 8.494 8.494 0 00-2.635-1.774 8.017 8.017 0 00-3.244-.667 8.008 8.008 0 00-3.247.669zm-38.9 22.264a16.617 16.617 0 01-5.3-3.411 16.161 16.161 0 01-3.549-5.046 14.751 14.751 0 01-1.3-6.155 14.758 14.758 0 011.3-6.156 16.178 16.178 0 013.549-5.046 16.6 16.6 0 015.3-3.411 16.966 16.966 0 016.488-1.248 16.977 16.977 0 016.489 1.248 16.618 16.618 0 015.3 3.411 16.221 16.221 0 013.55 5.046 14.792 14.792 0 011.3 6.156 12.294 12.294 0 01-.083 1.469q-.084.694-.194 1.415H38.992a8.75 8.75 0 003.022 3.909 7.887 7.887 0 004.8 1.525 7.981 7.981 0 003.716-.887 8.311 8.311 0 002.827-2.328h9.206a15.892 15.892 0 01-2.357 4.325 15.436 15.436 0 01-3.6 3.411 17.881 17.881 0 01-4.547 2.217 16.813 16.813 0 01-5.241.8 16.957 16.957 0 01-6.503-1.242zm1.691-21.406a8.767 8.767 0 00-3.022 3.91h15.639a8.7 8.7 0 00-3.051-3.91 7.937 7.937 0 00-4.769-1.524 7.9 7.9 0 00-4.802 1.526zm128.885 21.838l12.986-20.916-12.992-19.127h9.921l13.606 19.469-13.606 20.573zM.506 50.585V10.658h8.873V42.6h18.855v7.985z" fill="#fff" stroke="rgba(0,0,0,0)"/></g></svg>