<svg xmlns="http://www.w3.org/2000/svg" xmlns:xlink="http://www.w3.org/1999/xlink" width="240.514" height="62.08" viewBox="0 0 240.514 62.08">
  <defs>
    <clipPath id="clip-path">
      <rect id="Rectangle_9891" data-name="Rectangle 9891" width="240.514" height="62.08" fill="#fff"/>
    </clipPath>
    <clipPath id="clip-path-2">
      <path id="Path_22666" data-name="Path 22666" d="M714.745,0,703.769,18.7,691.037,0H673.211l7.077,10.418h10.22l14.015,20.054L690.507,51.663H680.294L673.826,62.08h17.211l11.239-19.317L715.359,62.08h17.826l-20.9-30.821L731.867,0Z" transform="translate(-673.211)" fill="#fff"/>
    </clipPath>
  </defs>
  <g id="Group_28398" data-name="Group 28398" opacity="0.8">
    <path id="Path_22661" data-name="Path 22661" d="M0,39.016V80.142H28.56V71.916H9.139v-32.9Z" transform="translate(0 -28.553)" fill="#fff"/>
    <g id="Group_28393" data-name="Group 28393">
      <g id="Group_28392" data-name="Group 28392" clip-path="url(#clip-path)">
        <path id="Path_22662" data-name="Path 22662" d="M131.082,73.946a17.478,17.478,0,0,1,6.683,1.285,17.12,17.12,0,0,1,5.455,3.513,16.688,16.688,0,0,1,3.656,5.2,15.226,15.226,0,0,1,1.342,6.34,12.711,12.711,0,0,1-.086,1.514q-.086.715-.2,1.456h-24.9a9,9,0,0,0,3.113,4.027,8.131,8.131,0,0,0,4.941,1.571,8.222,8.222,0,0,0,3.827-.914,8.583,8.583,0,0,0,2.913-2.4H147.3a16.384,16.384,0,0,1-2.428,4.455,15.885,15.885,0,0,1-3.713,3.513,18.431,18.431,0,0,1-4.684,2.285,18.013,18.013,0,0,1-12.081-.457,17.116,17.116,0,0,1-5.455-3.513,16.675,16.675,0,0,1-3.656-5.2,15.642,15.642,0,0,1,0-12.68,16.683,16.683,0,0,1,3.656-5.2,17.111,17.111,0,0,1,5.455-3.513,17.472,17.472,0,0,1,6.683-1.285m8.054,13.366a8.953,8.953,0,0,0-3.141-4.027,8.511,8.511,0,0,0-9.853,0,9.015,9.015,0,0,0-3.113,4.027Z" transform="translate(-83.388 -54.115)" fill="#fff"/>
        <path id="Path_22663" data-name="Path 22663" d="M267.861,73.946a16.894,16.894,0,0,1,15.622,10,15.231,15.231,0,0,1,1.342,6.34V105.7h-8v-3.827A10.95,10.95,0,0,1,273,105.333a10.512,10.512,0,0,1-5.141,1.285,17.113,17.113,0,0,1-6.6-1.285,16.715,16.715,0,0,1-9.025-8.711,15.646,15.646,0,0,1,0-12.681,16.715,16.715,0,0,1,9.025-8.711,17.118,17.118,0,0,1,6.6-1.285m.171,24.9a8.267,8.267,0,0,0,3.342-.685,8.549,8.549,0,0,0,4.541-4.541,8.487,8.487,0,0,0,0-6.683,8.547,8.547,0,0,0-4.541-4.541,8.487,8.487,0,0,0-6.683,0,8.545,8.545,0,0,0-4.541,4.541,8.485,8.485,0,0,0,0,6.683,8.547,8.547,0,0,0,4.541,4.541,8.262,8.262,0,0,0,3.341.685" transform="translate(-183.612 -54.115)" fill="#fff"/>
        <path id="Path_22664" data-name="Path 22664" d="M408.954,87.54a12.778,12.778,0,0,1,3.341.8,10.152,10.152,0,0,1,2.913,1.714,8.681,8.681,0,0,1,2.085,2.6,7.29,7.29,0,0,1,.8,3.456,9.421,9.421,0,0,1-1.028,4.427,9.92,9.92,0,0,1-2.77,3.313,12.823,12.823,0,0,1-4,2.056,16.194,16.194,0,0,1-9.51,0,12.75,12.75,0,0,1-4.027-2.056,9.915,9.915,0,0,1-2.77-3.313,9.424,9.424,0,0,1-1.028-4.427h8.568a2.7,2.7,0,0,0,1.285,2.627,5.683,5.683,0,0,0,2.713.686,5.339,5.339,0,0,0,2.713-.743,2.342,2.342,0,0,0,.029-4.17,7.585,7.585,0,0,0-3.2-1.142,19.527,19.527,0,0,1-4.369-1.085,15.369,15.369,0,0,1-3.77-2,10.315,10.315,0,0,1-2.628-2.77,6.206,6.206,0,0,1-1-3.4,9.082,9.082,0,0,1,.971-4.227,9.562,9.562,0,0,1,2.656-3.2,12.514,12.514,0,0,1,3.912-2.028,15.81,15.81,0,0,1,9.4,0,12.261,12.261,0,0,1,3.884,2.056A9.711,9.711,0,0,1,416.78,80a9.841,9.841,0,0,1,.971,4.455h-8.568a3.771,3.771,0,0,0-.314-1.628,2.649,2.649,0,0,0-.828-1.028,3.113,3.113,0,0,0-1.171-.514,6.339,6.339,0,0,0-1.342-.143,5.276,5.276,0,0,0-2.542.6,2.219,2.219,0,0,0-1.114,2.142,1.766,1.766,0,0,0,.628,1.285,6.22,6.22,0,0,0,1.657,1.085,12.287,12.287,0,0,0,2.285.8,23.277,23.277,0,0,0,2.513.486" transform="translate(-287.578 -54.115)" fill="#fff"/>
        <path id="Path_22665" data-name="Path 22665" d="M514.033,73.946a17.476,17.476,0,0,1,6.683,1.285,17.119,17.119,0,0,1,5.455,3.513,16.687,16.687,0,0,1,3.655,5.2,15.225,15.225,0,0,1,1.343,6.34,12.7,12.7,0,0,1-.086,1.514q-.086.715-.2,1.456h-24.9a9,9,0,0,0,3.113,4.027,8.131,8.131,0,0,0,4.941,1.571,8.222,8.222,0,0,0,3.827-.914,8.584,8.584,0,0,0,2.913-2.4h9.482a16.384,16.384,0,0,1-2.428,4.455,15.886,15.886,0,0,1-3.713,3.513,18.432,18.432,0,0,1-4.684,2.285,18.013,18.013,0,0,1-12.081-.457,17.116,17.116,0,0,1-5.455-3.513,16.675,16.675,0,0,1-3.655-5.2,15.642,15.642,0,0,1,0-12.68,16.683,16.683,0,0,1,3.655-5.2,17.111,17.111,0,0,1,5.455-3.513,17.472,17.472,0,0,1,6.683-1.285m8.054,13.366a8.952,8.952,0,0,0-3.142-4.027,8.511,8.511,0,0,0-9.853,0,9.014,9.014,0,0,0-3.113,4.027Z" transform="translate(-363.64 -54.115)" fill="#fff"/>
      </g>
    </g>
    <g id="Group_28395" data-name="Group 28395" transform="translate(180.54)">
      <g id="Group_28394" data-name="Group 28394" clip-path="url(#clip-path-2)">
        <rect id="Rectangle_9892" data-name="Rectangle 9892" width="59.973" height="62.08" transform="translate(0)" fill="#fff"/>
      </g>
    </g>
    <g id="Group_28397" data-name="Group 28397">
      <g id="Group_28396" data-name="Group 28396" clip-path="url(#clip-path)">
        <path id="Path_22667" data-name="Path 22667" d="M678.65,58.9,664.635,38.847H654.416l13.382,19.7L654.422,80.092h10.214Z" transform="translate(-478.916 -28.429)" fill="#fff"/>
      </g>
    </g>
  </g>
</svg>
