<svg xmlns="http://www.w3.org/2000/svg" xmlns:xlink="http://www.w3.org/1999/xlink" width="254.309" height="77.703" viewBox="0 0 254.309 77.703">
  <defs>
    <clipPath id="clip-path">
      <rect id="Rectangle_9890" data-name="Rectangle 9890" width="254.309" height="77.703" fill="#fff"/>
    </clipPath>
  </defs>
  <g id="Group_28391" data-name="Group 28391" opacity="0.8">
    <g id="Group_28390" data-name="Group 28390" transform="translate(0 0)" clip-path="url(#clip-path)">
      <path id="Path_22649" data-name="Path 22649" d="M30.7,45.092a22.522,22.522,0,0,0-4.27-.922A38.312,38.312,0,0,1,3.722,28.677c-.207-.3-.39-.622-.692-1.1a21.6,21.6,0,0,1,5.086-.59c9.623-.731,19.258-1.356,28.888-2.015a8.317,8.317,0,0,1,.959,0c2.407.092,3.514,1.706,2.506,3.866-1.628,3.576-3.352,7.108-5.04,10.658-.641,1.342-1.275,2.684-1.923,4.023a3.132,3.132,0,0,1-1.213,1.572Z" transform="translate(3.956 32.583)" fill="#fff"/>
      <path id="Path_22650" data-name="Path 22650" d="M125.573,38.359c-.21.159-.427.311-.632.477a2.577,2.577,0,0,1-4.477-1.69c-.06-.35-.046-.722-.081-1.282a16.5,16.5,0,0,1-5.821,3.378,11.29,11.29,0,0,1-9.683-1.233A12.831,12.831,0,0,1,98.667,25.5c.484-9.289,8.786-14.716,17.769-12.111a12.848,12.848,0,0,1,8.786,9.42c.092.3.035.648.35.848ZM112.24,35.175a8.335,8.335,0,0,0,8.526-8.143c.007-.214,0-.431-.009-.646a8.656,8.656,0,1,0-17.287-.307c0,.078,0,.154,0,.233a8.446,8.446,0,0,0,8.026,8.849c.244.014.491.014.735,0Z" transform="translate(128.703 16.632)" fill="#fff"/>
      <path id="Path_22651" data-name="Path 22651" d="M18.523,42.655c-.214-1.446.692-2.515,1.259-3.689,1.614-3.4,3.228-6.8,4.92-10.144,1.275-2.485,2.949-2.667,4.646-.461,1.971,2.566,3.746,5.273,5.623,7.908.572.8.127,1.056-.523,1.406A36.979,36.979,0,0,1,21.239,42.12a3.379,3.379,0,0,0-2.11.537Z" transform="translate(24.141 35.018)" fill="#fff"/>
      <path id="Path_22652" data-name="Path 22652" d="M.26,33.757A37.945,37.945,0,0,1,13.107,5.076c1.522-1.383,1.589-1.406,2.741.182,2.785,3.834,5.519,7.71,8.256,11.578a4.129,4.129,0,0,1,.122,4.517q-2.11,4.3-4.074,8.662a2.206,2.206,0,0,0,.685,3.046,1.719,1.719,0,0,0,.212.118,2.418,2.418,0,0,0,3.311-.851l.028-.051a13.093,13.093,0,0,0,.984-1.821c.4-.809.731-1.655,1.153-2.46,1.462-2.7,3.385-2.87,5.141-.41q5.485,7.674,10.9,15.4c1.6,2.289.659,4.242-2.11,4.4-11.878.7-23.719,1.92-35.609,2.46-1.054.046-1.293-.5-1.582-1.194a37.264,37.264,0,0,1-3-14.9" transform="translate(0.339 5.29)" fill="#fff"/>
      <path id="Path_22653" data-name="Path 22653" d="M13.9,22.861a3.9,3.9,0,0,1,.461-1.844q4.61-9.628,9.222-19.265A2.076,2.076,0,0,1,26.117.286a39.3,39.3,0,0,1,22.762,11,1.411,1.411,0,0,1,.3,1.932c-4.92,10.361-9.81,20.75-14.755,31.095-1.535,3.228-3.866,3.4-5.923.5-4.57-6.425-9.081-12.879-13.623-19.332a4.3,4.3,0,0,1-.984-2.617" transform="translate(18.144 0.282)" fill="#fff"/>
      <path id="Path_22654" data-name="Path 22654" d="M72.58,27.4V45.776c0,1.153-.127,2.359-1.406,2.916A2.457,2.457,0,0,1,67.462,46.3c-.035-4.217-.067-8.415.018-12.62.032-1.473-.422-1.95-1.911-1.927-4.752.081-9.51.021-14.267.032-2.661,0-2.767.127-2.767,2.767,0,3.94-.025,7.88,0,11.82a2.363,2.363,0,0,1-2,2.635,2.735,2.735,0,0,1-3.062-2.144A5.439,5.439,0,0,1,43.4,45.75V16.516c0-2.326,1.054-3.242,3.228-2.97A1.934,1.934,0,0,1,48.55,15.5a1.782,1.782,0,0,1-.028.314c-.021,3.355.035,6.711-.025,10.064,0,1.114.327,1.473,1.455,1.462,5.342-.048,10.688-.062,16.028,0,1.286,0,1.487-.491,1.476-1.614-.046-5.593,0-11.184-.025-16.777A3.342,3.342,0,0,1,68.394,6.2a2.385,2.385,0,0,1,3.894.945,5.511,5.511,0,0,1,.27,2.038q.01,9.116.023,18.221" transform="translate(56.66 7.237)" fill="#fff"/>
      <path id="Path_22655" data-name="Path 22655" d="M27.556,40.391c-2.681.127-3.9-1.57-2.767-3.993Q31.035,23.2,37.327,10.055a2.481,2.481,0,0,1,2.359-1.614A2.525,2.525,0,0,1,42.1,9.972a37.461,37.461,0,0,1,4.3,14.41,37.251,37.251,0,0,1-.284,9.529c-.207,1.231-.581,2.418-.777,3.659-.208,1.321-1.349,1.8-2.64,1.874q-7.57.467-15.143.948" transform="translate(31.811 11.018)" fill="#fff"/>
      <path id="Path_22656" data-name="Path 22656" d="M75.846,35.524v10.4a2.479,2.479,0,0,1-2.253,2.688,2.373,2.373,0,0,1-.362.007,2.812,2.812,0,0,1-2.34-3.209,31.689,31.689,0,0,0,.129-5.25q.052-7.031,0-14.064a12.32,12.32,0,0,1,7.56-12.076,13.414,13.414,0,0,1,16.111,3.484,14.062,14.062,0,0,1-2,19.788c-.288.237-.588.461-.895.673a11.822,11.822,0,0,1-14.755-1.409c-.318-.265-.627-.539-1.2-1.037m8.563-.3a8.216,8.216,0,0,0,8.655-7.753,7.948,7.948,0,0,0-.018-1.171c-.152-4.625-2.379-9.57-10.052-9.005-3.385.244-6.9,3.2-7.219,8.687-.27,4.611,3.753,9.914,8.636,9.238Z" transform="translate(92.506 16.576)" fill="#fff"/>
      <path id="Path_22657" data-name="Path 22657" d="M85,27.055c0-4.842-.028-9.683,0-14.525.021-2.58,1.775-4.06,3.919-3.514,1.529.4,1.8,1.538,1.824,2.813.053,2.393.039,4.786,0,7.182,0,1.035.035,1.547,1.247.768a12.522,12.522,0,0,1,13.033-.542,9.07,9.07,0,0,1,4.987,6.423c1.153,5.365.443,10.8.595,16.2a2.457,2.457,0,0,1-2.1,2.764,2.374,2.374,0,0,1-.443.021c-1.715-.118-2.552-1.079-2.552-2.956,0-3.94.046-7.878-.018-11.814-.06-3.576-1.342-6.455-5.153-7.417-4.381-1.109-10.018,1.056-9.635,6.7.27,4.023.06,8.085.048,12.127,0,2.144-1.026,3.378-2.753,3.361a3,3,0,0,1-3.02-2.974,3.238,3.238,0,0,1,.023-.4q0-7.128,0-14.22" transform="translate(110.933 11.624)" fill="#fff"/>
      <path id="Path_22658" data-name="Path 22658" d="M71.942,32.036c1.8-3.514,3.2-7.166,4.692-10.774.95-2.306,1.9-4.59,2.94-6.845a2.126,2.126,0,0,1,2.573-1.554,2.093,2.093,0,0,1,.639.274c1.489.6,1.821,1.282,1.1,3.062-1.884,4.659-3.839,9.289-5.8,13.918-1.757,4.15-3.571,8.286-5.36,12.42-.625,1.448-1.233,2.9-1.891,4.332a2.44,2.44,0,0,1-2.953,1.439,2.339,2.339,0,0,1-1.245-3.516c1.01-2.273,1.918-4.57,2.9-6.873a1.153,1.153,0,0,0-.092-1.167Q66.38,31.1,63.377,25.41c-1.533-2.9-3.087-5.8-4.537-8.745-1.056-2.13-.622-3.133,1.259-3.746a2.094,2.094,0,0,1,2.7,1.22l.028.076c1.349,2.87,2.767,5.711,4.217,8.514a99.688,99.688,0,0,0,4.9,9.307" transform="translate(76.082 16.689)" fill="#fff"/>
      <path id="Path_22659" data-name="Path 22659" d="M26.382.119c-2.492,5.157-4.777,10.057-7.23,14.873a2.39,2.39,0,0,1-4.15.417c-2.266-2.88-4.33-5.923-6.455-8.911-.6-.844.286-.98.692-1.227A36.628,36.628,0,0,1,21.314.838C22.9.562,24.477.386,26.382.119" transform="translate(10.892 0.155)" fill="#fff"/>
      <path id="Path_22660" data-name="Path 22660" d="M35.6,24.386c1.861-.122,3.719-.254,5.577-.369.943-.06,1.286.231.791,1.2a39.988,39.988,0,0,1-9.649,12.162c-.59.5-.934.48-1.383-.166-1.844-2.663-3.795-5.273-5.577-7.961-1.439-2.183-.35-4.134,2.271-4.33s5.3-.369,7.968-.553Z" transform="translate(32.267 31.345)" fill="#fff"/>
    </g>
  </g>
</svg>
