<svg xmlns="http://www.w3.org/2000/svg" width="379.272" height="78.912" viewBox="0 0 379.272 78.912">
  <g id="Raggruppa_3036" data-name="Raggruppa 3036" transform="translate(0.5 0.51)">
    <path id="Unione_7" data-name="Unione 7" d="M-3174.695-4180.278a74.813,74.813,0,0,1-5.57-13.5,110.677,110.677,0,0,1-3.688-16.051c-.505-3.315-.963-6.641-1.314-9.976-.314-2.993-.537-6-.651-9.008-.152-4.014-.167-8.035-.22-12.052-.005-.389-.133-.526-.495-.624a8.108,8.108,0,0,1-6.221-6.656,7.4,7.4,0,0,1-.146-1.431v-.07a8.34,8.34,0,0,1,6.872-8.053,8.234,8.234,0,0,1,9.676,7.113,7.963,7.963,0,0,1-3.112,7.564.9.9,0,0,0-.386.825,106.125,106.125,0,0,0,.916,10.7,114.748,114.748,0,0,0,5.531,22.516,126.155,126.155,0,0,0,11.635,24.572c.315.512.639,1.018,1,1.594-2.986.651-5.872,1.281-8.758,1.909-1.451.316-2.91.609-4.354.958a1.007,1.007,0,0,1-.239.033C-3174.438-4179.915-3174.562-4180.033-3174.695-4180.278Zm12.386-25.62c.172-.058.31-.109.451-.149a23.8,23.8,0,0,0,11.968-7.676,1.113,1.113,0,0,1,.506-.316,67.025,67.025,0,0,1,12.78-2.4,82.815,82.815,0,0,1,12.818-.275c2.676.16,5.344.476,8.014.726a4.911,4.911,0,0,1,.548.121c-.118.661-.22,1.318-.355,1.969a20.742,20.742,0,0,1-1.588,4.761.572.572,0,0,1-.686.364,60.964,60.964,0,0,0-10.842-.108,73.725,73.725,0,0,0-13.99,2.427,77.728,77.728,0,0,0-16.668,6.562c-.044.022-.093.04-.192.082Zm282.283-.641a12.658,12.658,0,0,1-11.272-11.539,12.472,12.472,0,0,1,9.071-12.926,12.418,12.418,0,0,1,14.248,6l-4.964,2.676a6.82,6.82,0,0,0-6.532-3.32,6.46,6.46,0,0,0-4.341,2.2,6.579,6.579,0,0,0,.49,9.394c3.147,2.845,6.851,2.248,10.486-1.734l4.855,2.645c-1.324,3.664-6.59,6.675-10.973,6.675A8.729,8.729,0,0,1-2880.025-4206.54Zm25.85.041a12.6,12.6,0,0,1-12.479-12.544,12.517,12.517,0,0,1,12.544-12.424h.022a12.448,12.448,0,0,1,12.4,12.462,12.535,12.535,0,0,1-12.479,12.506Zm-6.684-12.575a6.735,6.735,0,0,0,6.7,6.762,6.67,6.67,0,0,0,6.667-6.669,6.621,6.621,0,0,0-6.625-6.689h-.009A6.685,6.685,0,0,0-2860.86-4219.074Zm-100.465,12.575a12.518,12.518,0,0,1-12.376-12.7,12.426,12.426,0,0,1,12.481-12.265h.2a12.385,12.385,0,0,1,12.208,12.519,12.459,12.459,0,0,1-12.456,12.45Zm-6.677-12.558a6.834,6.834,0,0,0,6.658,6.745,6.726,6.726,0,0,0,6.784-6.686,6.69,6.69,0,0,0-6.573-6.671h-.058A6.784,6.784,0,0,0-2968-4219.057Zm70.707,12.528a2.584,2.584,0,0,1-2.8-2.871,2.556,2.556,0,0,1,2.793-2.877,2.577,2.577,0,0,1,2.83,2.85,2.626,2.626,0,0,1-2.808,2.9Zm-134.729-1.258a6.2,6.2,0,0,1-3.871-5.434c-.043-.527.085-.849.665-.907,1.316-.132,2.626-.307,3.944-.407a1.044,1.044,0,0,1,.828.324,4.63,4.63,0,0,0,5,2.208,5.907,5.907,0,0,0,1.883-.7,2.394,2.394,0,0,0,1.143-2.35,2.226,2.226,0,0,0-1.589-2.046,7.04,7.04,0,0,0-2.072-.4c-2.511-.047-5.024-.019-7.537-.019h-1.25c.571-4.613,1.127-9.1,1.691-13.654.362-.023.661-.059.958-.06q1.951,0,3.9,0c3.078,0,6.157.006,9.236-.021.856-.009,1.132.251,1.08,1.093a23.19,23.19,0,0,0,0,3.156c.073.965-.227,1.3-1.232,1.277-2.578-.066-5.159-.024-7.74-.019-.434,0-.868.038-1.372.061-.155,1.094-.3,2.122-.467,3.29.51.03.932.047,1.352.083a33.688,33.688,0,0,1,4.636.429c3.562.809,5.558,3.2,5.684,6.49.157,4.119-1.624,7.056-5.153,8.182a13.608,13.608,0,0,1-4.163.667A13.3,13.3,0,0,1-3032.024-4207.787Zm100.66-1.109c-.895-1.669-2.015-3.217-3.043-4.814-.177-.275-.381-.532-.657-.918-1.4,2.161-2.783,4.165-4.012,6.261a2.382,2.382,0,0,1-2.509,1.374c-1.674-.112-3.359-.029-5.24-.029.321-.54.512-.885.726-1.217,2.13-3.308,4.241-6.629,6.414-9.91a1.389,1.389,0,0,0-.024-1.8c-2.223-3.37-4.4-6.771-6.584-10.163-.2-.306-.384-.618-.69-1.115,2.312,0,4.432-.025,6.549.031.268.008.588.406.777.692,1.511,2.292,3,4.6,4.586,7.048.273-.372.495-.643.683-.935,1.307-2.022,2.625-4.039,3.9-6.082a1.4,1.4,0,0,1,1.383-.779c1.918.048,3.839.016,5.929.016-.269.458-.427.747-.6,1.021-2.222,3.451-4.428,6.913-6.688,10.338a1.315,1.315,0,0,0,.015,1.706c2.2,3.344,4.349,6.722,6.513,10.088.177.276.331.567.617,1.062a40.583,40.583,0,0,0-4.6.036,5.125,5.125,0,0,1-.571.034A3.053,3.053,0,0,1-2931.364-4208.9Zm-82.144.819c.03-3.7.014-7.407.014-11.111,0-3.668.015-7.337-.014-11.006-.005-.764.179-1.083,1.022-1.06,3.122.092,6.257-.044,9.364.2a7.878,7.878,0,0,1,6.99,7.644,8,8,0,0,1-6.339,8.324,22,22,0,0,1-4.256.216c-.87-.011-1.1.29-1.077,1.113.051,1.936-.011,3.874.03,5.81.015.715-.231.955-.934.933-1.255-.04-2.515-.053-3.77,0-.044,0-.084,0-.124,0C-3013.326-4207.006-3013.513-4207.344-3013.508-4208.077Zm5.721-15.012c0,2.815,0,2.825,2.808,2.795a5.912,5.912,0,0,0,1.6-.2,2.575,2.575,0,0,0,1.777-2.36,2.506,2.506,0,0,0-1.455-2.564,6.048,6.048,0,0,0-1.98-.313c-.358-.009-.669-.015-.94-.015C-3007.786-4225.75-3007.787-4225.433-3007.787-4223.089Zm-49.054,14.959c.057-3.665.024-7.33.024-11,0-3.7.023-7.4-.018-11.1-.01-.813.23-1.044,1.032-1.029,1.226.022,2.455.01,3.684,0a64.748,64.748,0,0,1,6.9.167,6.954,6.954,0,0,1,5.392,10.215,1.235,1.235,0,0,0,.156,1.585,7.6,7.6,0,0,1-4.2,12.086,6.786,6.786,0,0,1-1.415.123c-3.461.027-6.923.019-10.384.073h-.082C-3056.553-4207.007-3056.855-4207.222-3056.841-4208.13Zm5.828-8.02c.018,1.148.005,2.3.005,3.64,1.951,0,3.771.017,5.591-.006a2.026,2.026,0,0,0,1.942-2.069,2.092,2.092,0,0,0-1.853-2.274c-1-.033-2-.029-3.009-.023-.657,0-1.315.006-1.972,0h-.02C-3050.85-4216.884-3051.022-4216.651-3051.013-4216.149Zm.64-9.56a.846.846,0,0,0-.6.563c-.065.969-.029,1.946-.029,3.038,1.844,0,3.529.038,5.212-.015a1.642,1.642,0,0,0,1.5-1.742,1.666,1.666,0,0,0-1.522-1.824c-.791-.038-1.582-.052-2.373-.052C-3048.915-4225.741-3049.644-4225.729-3050.373-4225.709Zm215.907,18.7c-1.322-.051-2.647-.033-3.971-.005-.635.013-.9-.175-.895-.866q.031-11.254,0-22.506c0-.688.247-.876.893-.859,1.356.038,2.717.048,4.072,0a1.345,1.345,0,0,1,1.363.8c1.753,2.983,3.545,5.942,5.324,8.909.171.285.359.563.617.969.261-.4.469-.688.653-.994,1.781-2.964,3.576-5.923,5.325-8.907a1.368,1.368,0,0,1,1.375-.775c1.66.023,3.321-.035,4.98-.062v24.256h-5.842v-13.088l-.245-.066c-.209.326-.427.646-.626.977-1.512,2.534-3.015,5.072-4.532,7.6a1.145,1.145,0,0,1-2.119.016c-1.551-2.589-3.088-5.187-4.634-7.779a2.03,2.03,0,0,0-.739-.77c-.017.352-.05.7-.051,1.053,0,3.7-.02,7.4.014,11.1.006.706-.168,1.005-.858,1.005C-2834.395-4207.009-2834.43-4207.009-2834.466-4207.011Zm-154.73,0c-1.356-.048-2.716-.028-4.073-.01-.563.008-.77-.205-.768-.781q.021-11.351,0-22.7c0-.51.158-.743.7-.735,1.135.016,2.272.013,3.41.01,2.394-.009,4.788-.016,7.166.168a7.371,7.371,0,0,1,6.782,5.713,7.882,7.882,0,0,1-2.573,8.629c-.224.2-.461.39-.744.629l4.994,9.054c-2.2,0-4.195.027-6.185-.03-.265-.009-.6-.388-.764-.674-1.2-2.086-2.365-4.194-3.544-6.292-.382-.681-2.676-1.216-3.229-.707a1.285,1.285,0,0,0-.2.841c-.017,1.969-.043,3.938.008,5.9.019.733-.212.984-.877.984Zm.974-18.593c0,1.585-.014,3.139.018,4.693,0,.2.257.578.388.576a37.8,37.8,0,0,0,5.046-.236,2.5,2.5,0,0,0,1.736-2.593,2.472,2.472,0,0,0-1.859-2.4c-.708-.06-1.417-.078-2.136-.078C-2986.074-4225.641-2987.133-4225.6-2988.223-4225.6Zm-72.848,18.587c-4.855-.03-9.71-.032-14.566-.043v-24.256c1.762.027,3.525.067,5.287.075s3.532.007,5.3.005q1.731,0,3.464,0c.362,0,.727.03,1.177.05v4.856c0,.611-.4.593-.763.574-.067,0-.131-.007-.193-.005-2.308.016-4.617.009-6.927.009h-1.39v3.61h8.321v5.462h-5.9c-2.5,0-2.5,0-2.5,2.489v1.644c.415.026.77.07,1.123.071,2.479.005,4.959.027,7.437-.012.749-.011,1.031.213.995.985-.055,1.187-.04,2.377-.005,3.565.019.627-.155.917-.833.917Zm147.332-.087a36.045,36.045,0,0,1,.019-3.646,13.2,13.2,0,0,0-2.107-8.458c-2.14-3.536-3.975-7.253-5.937-10.9-.172-.317-.324-.646-.563-1.126,2.143,0,4.132-.026,6.118.032.258.007.576.416.739.709,1.37,2.459,2.708,4.935,4.059,7.4.159.293.337.578.617,1.056,1.31-2.416,2.658-4.583,3.686-6.895.814-1.83,1.875-2.665,3.918-2.349a26.271,26.271,0,0,0,3.839.033c-.208.439-.343.761-.508,1.066-2.534,4.72-5.085,9.432-7.591,14.166a4.258,4.258,0,0,0-.458,1.821c-.052,2.333-.021,4.667-.021,7.08Zm-254.589-25.141c.811-.158,1.563-.333,2.328-.448a11.154,11.154,0,0,1,5.03.317,6.058,6.058,0,0,1,4.043,8.5,13.063,13.063,0,0,1-4.469,5.418c-.505.386-1.042.732-1.628,1.142Zm22.82,10.854a14.387,14.387,0,0,0,.517-7.785c1.125-.152,2.212-.317,3.3-.44a81.473,81.473,0,0,1,11.768-.515,61.047,61.047,0,0,1,14.81,2.11.972.972,0,0,1,.824.928,17.324,17.324,0,0,1,.055,5.884c-.04.2-.1.392-.162.611C-3124.717-4223.242-3135.073-4222.791-3145.509-4221.391Zm-.573-13.055a14.894,14.894,0,0,0-3.037-7.167c.69-.132,1.3-.267,1.924-.368a70,70,0,0,1,13.761-.932,59.127,59.127,0,0,1,16.631,2.779,1.434,1.434,0,0,1,.877.726,12.343,12.343,0,0,1,1.441,6.808C-3124.8-4236.622-3135.364-4236.559-3146.081-4234.445Zm-24.639-10.17c-.184-1.616-.307-3.238-.462-4.857a.5.5,0,0,1,.359-.581,68.127,68.127,0,0,1,14.644-4.332,70.337,70.337,0,0,1,13.434-1.171c3.32.044,6.642.276,9.952.56a60.026,60.026,0,0,1,10.808,1.979,1.69,1.69,0,0,1,.824.545,19.677,19.677,0,0,1,3.261,6.583c-2.218-.631-4.359-1.32-6.54-1.851a61.565,61.565,0,0,0-17.369-1.592,80.552,80.552,0,0,0-24.748,5.121c-1.228.458-2.435.979-3.745,1.508A18.457,18.457,0,0,1-3170.72-4244.615Z" transform="translate(3193 4257.817)" fill="#fff" stroke="rgba(0,0,0,0)" stroke-width="1"/>
  </g>
</svg>
