<svg id="Raggruppa_3013" data-name="Raggruppa 3013" xmlns="http://www.w3.org/2000/svg" xmlns:xlink="http://www.w3.org/1999/xlink" width="49.596" height="48.906" viewBox="0 0 49.596 48.906">
  <defs>
    <clipPath id="clip-path">
      <rect id="Rettangolo_44" data-name="Rettangolo 44" width="49.596" height="48.906" fill="#2fdcb6"/>
    </clipPath>
  </defs>
  <g id="Raggruppa_3012" data-name="Raggruppa 3012" clip-path="url(#clip-path)">
    <path id="Tracciato_771" data-name="Tracciato 771" d="M20.174,47.087l-5.5,1.2c-.912.2-1.827.383-2.733.6a.336.336,0,0,1-.451-.207,46.978,46.978,0,0,1-3.5-8.476A69.408,69.408,0,0,1,5.679,30.126c-.318-2.081-.6-4.169-.825-6.262-.2-1.879-.337-3.768-.409-5.656-.1-2.52-.1-5.044-.138-7.566,0-.245-.084-.33-.311-.392A5.089,5.089,0,0,1,.091,6.072a5.207,5.207,0,1,1,10.3-1.533A5,5,0,0,1,8.435,9.288a.565.565,0,0,0-.243.518,66.743,66.743,0,0,0,.576,6.718A72.045,72.045,0,0,0,12.24,30.66a79.266,79.266,0,0,0,7.3,15.427c.2.321.4.638.63,1" transform="translate(0 0)" fill="#2fdcb6"/>
    <path id="Tracciato_772" data-name="Tracciato 772" d="M296.929,404.731l-1.735-3.821c.108-.036.2-.068.284-.094A14.944,14.944,0,0,0,302.991,396a.687.687,0,0,1,.317-.2,42.109,42.109,0,0,1,8.023-1.507,51.973,51.973,0,0,1,8.048-.173c1.68.1,3.355.3,5.032.455a3.223,3.223,0,0,1,.344.076c-.074.415-.138.827-.222,1.236a13.044,13.044,0,0,1-1,2.989.359.359,0,0,1-.43.229,38.185,38.185,0,0,0-6.807-.068,46.242,46.242,0,0,0-8.782,1.524,48.808,48.808,0,0,0-10.464,4.119c-.028.015-.058.025-.121.052" transform="translate(-275.926 -368.315)" fill="#2fdcb6"/>
    <path id="Tracciato_773" data-name="Tracciato 773" d="M243.261,27.764c-1.391-.4-2.737-.828-4.105-1.161a38.661,38.661,0,0,0-10.9-1,50.589,50.589,0,0,0-15.536,3.216c-.771.288-1.529.614-2.351.947a11.541,11.541,0,0,1-.263-1.2c-.115-1.014-.192-2.033-.289-3.049a.31.31,0,0,1,.225-.364,42.732,42.732,0,0,1,9.193-2.719,44.15,44.15,0,0,1,8.434-.736c2.084.028,4.17.174,6.248.351a37.7,37.7,0,0,1,6.785,1.243,1.059,1.059,0,0,1,.518.342,12.364,12.364,0,0,1,2.047,4.133" transform="translate(-196.114 -20.275)" fill="#2fdcb6"/>
    <path id="Tracciato_774" data-name="Tracciato 774" d="M476.306,271.933c-6.482-1.66-12.984-1.377-19.535-.5a9.033,9.033,0,0,0,.325-4.887c.706-.095,1.389-.2,2.074-.277a51.016,51.016,0,0,1,7.388-.323,38.25,38.25,0,0,1,9.3,1.324.608.608,0,0,1,.517.582,10.867,10.867,0,0,1,.036,3.695c-.025.124-.065.246-.1.384" transform="translate(-426.956 -248.567)" fill="#2fdcb6"/>
    <path id="Tracciato_775" data-name="Tracciato 775" d="M443.793,149.481c-6.478-2.525-13.107-2.486-19.835-1.158a9.345,9.345,0,0,0-1.907-4.5c.434-.083.819-.167,1.208-.231a43.952,43.952,0,0,1,8.639-.585,37.142,37.142,0,0,1,10.44,1.745.9.9,0,0,1,.551.456,7.747,7.747,0,0,1,.9,4.273" transform="translate(-394.502 -133.65)" fill="#2fdcb6"/>
    <path id="Tracciato_776" data-name="Tracciato 776" d="M237.291,240.607c.509-.1.982-.21,1.461-.282a7,7,0,0,1,3.158.2,3.8,3.8,0,0,1,2.538,5.336,8.2,8.2,0,0,1-2.806,3.4c-.317.242-.654.46-1.022.717l-3.329-9.371" transform="translate(-221.802 -224.553)" fill="#2fdcb6"/>
  </g>
</svg>
